<svg width="90" height="60" viewBox="0 0 90 60" fill="none" xmlns="http://www.w3.org/2000/svg">
<g clip-path="url(#clip0_360_7381)">
<path d="M83.2597 60H6.74033C3.01764 60 0 56.9294 0 53.1414V6.85859C0 3.07076 3.01764 0 6.74033 0H83.2597C86.9822 0 90 3.07058 90 6.85859V53.1416C90 56.9294 86.9824 60 83.2597 60Z" fill="#73AF00"/>
<path d="M18.6222 20.391C18.7751 21.3885 19.3677 21.7016 19.8827 21.6606C20.4902 21.6127 21.023 21.0474 21.023 20.4504V17.0273C21.023 16.8559 21.1601 16.716 21.3289 16.716C21.4976 16.716 21.6347 16.8557 21.6347 17.0273V20.4651C21.6347 20.8784 21.8355 21.2639 22.1721 21.4953C22.3776 21.637 22.6168 21.7098 22.8578 21.7098C23.0113 21.7098 23.1654 21.6799 23.3124 21.6203L23.6181 21.496C23.6462 24.3695 23.4745 26.8949 23.4713 26.9412C23.4474 27.2841 23.7009 27.5819 24.0378 27.6063C24.0528 27.6075 24.0674 27.608 24.0821 27.608C24.4003 27.608 24.6687 27.3576 24.6917 27.0299C24.706 26.8277 24.8944 24.0619 24.8378 20.9995L25.0227 20.9244C25.1848 20.8587 25.3669 20.8666 25.5228 20.9457C26.1966 21.2873 27.0073 21.154 27.5398 20.6124L27.65 20.5005C28.1443 19.9966 28.3142 19.2647 28.0929 18.5895L27.5721 16.9995C27.8537 17.0858 28.1631 16.9589 28.2991 16.683C28.4503 16.3755 28.3278 16.0017 28.0256 15.8478L26.8024 15.2254C26.581 15.1123 26.3154 15.147 26.1279 15.3116C25.9409 15.477 25.8702 15.7402 25.9484 15.9789L26.9326 18.9835C27.0063 19.2083 26.9497 19.4527 26.785 19.6205L26.6749 19.7324C26.5155 19.8947 26.2726 19.9342 26.0695 19.8321C25.6731 19.6305 25.2217 19.5927 24.7983 19.7026C24.7123 17.7048 24.5009 15.7155 24.0505 14.3402C23.9438 14.0143 23.598 13.8376 23.2765 13.9468C22.9561 14.0551 22.7829 14.4074 22.8898 14.734C23.3305 16.0789 23.5225 18.1285 23.5907 20.1665L22.8584 20.4645V17.0267C22.8584 16.1685 22.1723 15.4706 21.3291 15.4706C20.4858 15.4706 19.7998 16.1685 19.7998 17.0267V20.0397L19.1757 16.9033C19.1093 16.566 18.7869 16.346 18.455 16.4164C18.1237 16.4851 17.9096 16.8133 17.9769 17.1501L18.6222 20.391Z" fill="#F5F5F5"/>
<path d="M19.7999 15.1601C20.1376 15.1601 20.4115 14.8816 20.4115 14.5376V13.9154C20.4115 13.5714 20.1376 13.2929 19.7999 13.2929C19.4621 13.2929 19.1882 13.5712 19.1882 13.9154V14.5376C19.1882 14.8816 19.4621 15.1601 19.7999 15.1601Z" fill="#F5F5F5"/>
<path d="M25.9166 14.5376H26.5283C26.8662 14.5376 27.14 14.2593 27.14 13.9154C27.14 13.5714 26.8662 13.2929 26.5283 13.2929H25.9166C25.5787 13.2929 25.3049 13.5712 25.3049 13.9154C25.3049 14.2593 25.5787 14.5376 25.9166 14.5376Z" fill="#F5F5F5"/>
<path d="M21.9318 22.7177L18.8734 24.585C18.5835 24.7619 18.4898 25.1442 18.6637 25.4391C18.7783 25.6337 18.9808 25.7412 19.1887 25.7412C19.296 25.7412 19.4044 25.7126 19.503 25.6523L22.5615 23.785C22.8513 23.6081 22.945 23.2258 22.7712 22.9309C22.5971 22.6361 22.2218 22.5408 21.9318 22.7177Z" fill="#F5F5F5"/>
<path d="M30.1782 23.8186L30.1926 23.8088C30.244 24.0191 30.332 24.2227 30.475 24.3937C30.7235 24.6915 31.0962 24.8412 31.5173 24.8058C32.1148 24.7614 32.5209 24.4836 32.7898 24.125C32.8308 24.1536 32.8738 24.1797 32.9188 24.2028C33.2495 24.3724 33.6318 24.3595 33.9959 24.1674C34.9203 23.683 35.1194 22.5623 35.0913 21.9763C35.0748 21.6347 34.7893 21.3935 34.4545 21.3867C34.1185 21.4014 33.857 21.6914 33.8691 22.033C33.8693 22.0409 33.883 22.7794 33.4393 23.0536C33.3669 22.9509 33.2811 22.7198 33.2488 22.529C33.1971 22.2086 32.9079 21.9856 32.5968 22.0112C32.2797 22.0366 32.0347 22.3077 32.0336 22.6317C32.0334 22.7222 32.0136 23.521 31.4076 23.5877C31.3372 23.4898 31.3359 23.0777 31.4054 22.7731C31.4639 22.5233 31.3655 22.2625 31.1579 22.1167C30.9497 21.9702 30.6753 21.9702 30.4663 22.1144L30.125 22.3507C29.9629 18.7412 29.5894 14.5351 29.5848 14.4813C29.5544 14.1397 29.2587 13.885 28.9203 13.9179C28.5839 13.9488 28.3359 14.2516 28.3665 14.5945C28.3717 14.6521 28.8038 19.5185 28.9369 23.2348C28.9056 23.265 28.8734 23.2981 28.8428 23.3271C28.601 22.7066 28.1214 22.3156 27.5039 22.2562C26.6324 22.1779 25.6881 22.7814 25.3495 23.6433C25.0577 24.3849 25.2414 25.1138 25.8171 25.4996C26.2311 25.7774 26.8558 25.8648 27.6414 25.5847C27.4496 26.2703 27.1003 26.9657 26.6464 27.5036C26.2399 27.9856 25.561 28.5417 24.6923 28.5169C24.1866 28.4966 23.7981 28.3283 23.5043 28.0015C22.7961 27.2144 22.8571 25.7897 22.8576 25.7745C22.8752 25.4316 22.6174 25.1393 22.2806 25.1204C21.9415 25.0839 21.6546 25.3642 21.636 25.7076C21.6318 25.7865 21.543 27.6588 22.5964 28.8361C23.115 29.4165 23.8039 29.7272 24.6441 29.7607C24.6851 29.7625 24.726 29.763 24.7672 29.763C25.7904 29.763 26.7832 29.2523 27.574 28.3146C28.3179 27.4331 28.8231 26.2358 28.9747 25.1243C28.9727 27.2535 27.7117 29.655 26.0398 30.713C25.3298 31.1616 24.2229 31.5663 22.9761 30.9408C21.4391 30.1689 21.6223 28.3813 21.6303 28.3083C21.6724 27.9672 21.4345 27.656 21.0993 27.6136C20.7657 27.5723 20.4581 27.8123 20.4166 28.1539C20.4029 28.2652 20.109 30.8891 22.4349 32.0568C23.0324 32.3569 23.6571 32.5059 24.2867 32.5059C25.0955 32.5059 25.9118 32.2598 26.6856 31.7699C28.7212 30.4824 30.1986 27.6853 30.1986 25.1191C30.1984 24.7178 30.1909 24.2795 30.1782 23.8186ZM26.49 24.4602C26.3807 24.3865 26.4661 24.1515 26.4845 24.1048C26.6134 23.7766 27.0163 23.4927 27.3381 23.4927C27.3547 23.4927 27.3714 23.4932 27.3874 23.495C27.4656 23.5024 27.6732 23.5224 27.7625 23.9923C27.772 24.0422 27.7801 24.0932 27.7864 24.1454C27.1047 24.5527 26.6477 24.5655 26.49 24.4602Z" fill="#F5F5F5"/>
<path d="M20.1088 30.1848C19.8189 30.0115 19.4447 30.1105 19.2724 30.4055C19.2443 30.4534 19.207 30.5058 19.1691 30.5531C19.1624 30.5373 19.1559 30.5203 19.1492 30.5019C18.8941 29.8095 19.0757 28.7429 19.1675 28.3902C19.2538 28.0582 19.0595 27.718 18.7336 27.6291C18.4081 27.544 18.0732 27.7374 17.9857 28.0693C17.9412 28.2376 17.5652 29.7487 18.0036 30.9389C18.2843 31.6999 18.7154 31.892 19.0277 31.918C19.0555 31.9203 19.0829 31.9216 19.1102 31.9216C19.7686 31.9216 20.2069 31.2463 20.3289 31.0322C20.4978 30.736 20.3988 30.3586 20.1088 30.1848Z" fill="#F5F5F5"/>
<path d="M31.3966 18.8944C31.5289 18.8944 31.6622 18.8512 31.774 18.7614L34.8577 16.2979C34.9002 16.2639 34.9275 16.2193 34.9586 16.1775C35.4026 15.9049 35.7032 15.4141 35.7032 14.849C35.7032 13.9909 35.0171 13.2929 34.1739 13.2929C33.3307 13.2929 32.6446 13.9907 32.6446 14.849C32.6446 15.3293 32.864 15.7537 33.2008 16.0394L31.0181 17.783C30.7525 17.9951 30.7063 18.3865 30.9148 18.6564C31.0357 18.8129 31.2153 18.8944 31.3966 18.8944ZM34.1743 14.5376C34.343 14.5376 34.4801 14.6773 34.4801 14.8489C34.4801 15.0204 34.343 15.1601 34.1743 15.1601C34.0055 15.1601 33.8684 15.0204 33.8684 14.8489C33.8684 14.6773 34.0055 14.5376 34.1743 14.5376Z" fill="#F5F5F5"/>
<path d="M33.4502 18.3044C33.128 18.1951 32.783 18.3718 32.6763 18.6977C32.6109 18.8969 32.315 19.9238 32.9146 20.5332C33.1472 20.7702 33.453 20.8888 33.8285 20.8883C34.0795 20.8883 34.3613 20.836 34.6735 20.7296C34.9939 20.6214 35.1671 20.269 35.0602 19.9424C34.9533 19.6165 34.6076 19.4391 34.2862 19.5491C33.9445 19.6646 33.8 19.6459 33.7868 19.6578C33.7508 19.5655 33.7745 19.2876 33.8373 19.0889C33.9431 18.7639 33.77 18.4126 33.4502 18.3044Z" fill="#F5F5F5"/>
<path d="M40.4509 15.7314C40.5084 15.7484 40.5658 15.7562 40.6226 15.7562C40.8875 15.7562 41.1315 15.5801 41.2096 15.3082L41.5664 14.0635C41.661 13.7335 41.4746 13.3877 41.1507 13.2915C40.8255 13.196 40.4867 13.3845 40.392 13.7145L40.0352 14.9592C39.9404 15.2896 40.1268 15.6353 40.4509 15.7314Z" fill="#F5F5F5"/>
<path d="M36.8855 15.6584C36.9827 15.7162 37.0891 15.7436 37.1937 15.7436C37.4039 15.7436 37.6085 15.6335 37.7222 15.4355C37.8927 15.139 37.7947 14.7571 37.503 14.5841C37.38 14.5112 37.3967 14.3051 37.4013 14.2643C37.4195 14.1009 37.5153 13.9014 37.682 13.8485C38.0045 13.7465 38.1847 13.3976 38.0844 13.0693C37.9835 12.7406 37.6412 12.5587 37.3181 12.6596C36.7083 12.8527 36.2638 13.4272 36.1856 14.1227C36.1131 14.7698 36.3814 15.3583 36.8855 15.6584Z" fill="#F5F5F5"/>
<path d="M32.0333 25.741C31.6954 25.741 31.4215 26.0195 31.4215 26.3635C31.4215 26.6674 31.6355 26.9203 31.9185 26.9749C31.9506 27.0228 32.0331 27.1877 32.0331 27.6082C32.0331 27.9522 32.3069 28.2307 32.6448 28.2307C32.9827 28.2307 33.2565 27.9524 33.2565 27.6082C33.2567 25.7623 32.0832 25.741 32.0333 25.741Z" fill="#F5F5F5"/>
<path d="M42.4107 23.1638C42.4875 23.1767 42.564 23.1827 42.6408 23.1827C43.1214 23.1827 43.6069 22.9361 44.0878 22.4467C44.3267 22.2036 44.3267 21.8098 44.0878 21.5667C43.8489 21.3236 43.4618 21.3236 43.223 21.5667C42.8572 21.9393 42.6603 21.9471 42.6098 21.9355C42.4931 21.9185 42.3873 21.7634 42.3637 21.721C42.2103 21.4182 41.8464 21.2975 41.5469 21.4499C41.2447 21.6037 41.122 21.9775 41.2734 22.285C41.311 22.3621 41.6643 23.0404 42.4107 23.1638Z" fill="#F5F5F5"/>
<path d="M52.808 18.7898C52.8041 18.7801 52.8004 18.7708 52.7974 18.7624C52.689 18.4392 52.3425 18.2634 52.0254 18.3734C51.7046 18.4816 51.5314 18.834 51.6383 19.1606C51.686 19.3064 51.9586 20.0383 52.6336 20.1306C52.6786 20.1367 52.7236 20.1397 52.7681 20.1397C53.1919 20.1397 53.5895 19.8607 53.9511 19.3087C54.1383 19.023 54.0623 18.6365 53.7813 18.4457C53.4998 18.2554 53.12 18.3319 52.9331 18.6185C52.8848 18.692 52.8429 18.748 52.808 18.7898Z" fill="#F5F5F5"/>
<path d="M51.607 30.0978C51.607 27.4437 51.4924 24.9537 51.3332 22.7719C52.2017 24.3046 52.983 25.8534 53.4809 27.2045C53.5731 27.4544 53.806 27.6082 54.0535 27.6082C54.1249 27.6082 54.1975 27.5953 54.2683 27.5687C54.5848 27.4478 54.7451 27.0892 54.6264 26.767C53.8521 24.6668 52.4606 22.1655 51.089 19.9451C50.7547 16.5923 50.3802 14.4641 50.3736 14.4262C50.3133 14.0878 49.9955 13.8592 49.6625 13.9252C49.3301 13.9866 49.1097 14.3105 49.17 14.6485C49.1749 14.6755 49.3676 15.7718 49.5978 17.6168C49.1278 16.9073 48.6915 16.2671 48.3248 15.7402L48.3547 15.7498C48.6769 15.8591 49.0216 15.6824 49.1287 15.3567C49.2356 15.0302 49.0624 14.6777 48.742 14.5695L46.9068 13.947C46.6523 13.8596 46.373 13.952 46.2172 14.1733C46.1756 14.2323 46.1471 14.2971 46.1277 14.3641C45.7616 14.0887 45.2919 13.8646 44.851 14.0526C44.5844 14.1651 44.2666 14.4482 44.2666 15.1599C44.2666 15.7063 44.4714 16.2971 44.6886 16.9232C45.0488 17.9613 45.2743 18.7247 44.8929 19.0889C44.6821 19.2899 44.4714 19.3659 44.266 19.3132C43.8888 19.2159 43.5155 18.7047 43.2667 17.9456C43.2558 17.9127 43.2333 17.8887 43.2179 17.8592C43.3465 16.8951 43.2905 15.7335 43.0312 14.4155C42.9653 14.0781 42.6438 13.8587 42.3114 13.9274C41.98 13.9948 41.7654 14.3225 41.8317 14.6598C42.231 16.6923 42.1111 18.3505 41.5112 19.0951C41.2792 19.3833 40.9884 19.5169 40.5964 19.5169C40.4725 19.5169 40.388 19.4768 40.3038 19.3783C39.8212 18.8123 39.8232 16.9865 39.9789 15.8698C40.0037 15.6919 39.9511 15.5107 39.835 15.3744C39.7188 15.2383 39.5504 15.1599 39.3732 15.1599C38.3208 15.1599 37.9216 16.3778 37.5695 17.4526C37.4151 17.925 37.1272 18.8032 36.9265 18.8944C36.5563 18.8944 36.3169 17.7882 36.3148 17.0266C36.3137 16.6831 36.0404 16.4054 35.703 16.4054H35.702C35.3645 16.4054 35.0911 16.6838 35.0911 17.0273C35.0911 18.4628 35.5717 20.1393 36.9263 20.1393C37.9349 20.1393 38.3434 19.0211 38.6855 17.9815C38.7449 18.8081 38.9284 19.6645 39.3793 20.1934C39.6963 20.5654 40.1169 20.7616 40.5964 20.7616C41.3516 20.7616 41.9948 20.4583 42.4571 19.8845C42.5409 19.7807 42.613 19.6614 42.6842 19.541C43.0393 20.0549 43.475 20.3937 43.966 20.5198C44.11 20.5568 44.2548 20.5756 44.3981 20.5756C44.8702 20.5756 45.3316 20.3774 45.7301 19.9963C45.8129 19.9172 45.8713 19.8304 45.9344 19.7451C46.084 19.7886 46.2357 19.8143 46.3863 19.8143C46.8818 19.8143 47.3589 19.6113 47.6549 19.418C47.9381 19.2332 48.02 18.8515 47.8402 18.5621C47.6602 18.2734 47.2832 18.187 46.998 18.3682C46.9928 18.3707 46.5842 18.6097 46.3056 18.5537C46.3063 17.8713 46.0638 17.1467 45.8423 16.5084C45.7162 16.1447 45.587 15.7723 45.5259 15.4679C45.5763 15.5112 45.6255 15.5561 45.6697 15.5997C45.908 15.8428 46.2954 15.8428 46.5343 15.5997C46.5739 15.5595 46.5967 15.5107 46.6231 15.4636C47.2571 16.3524 48.5613 18.2201 49.9026 20.3729C50.1588 23.0193 50.3834 26.395 50.3834 30.0975C50.3834 30.4415 50.6573 30.7199 50.9951 30.7199C51.3332 30.7201 51.607 30.442 51.607 30.0978Z" fill="#F5F5F5"/>
<path d="M52.2187 16.4048C52.2187 16.7488 52.4926 17.0273 52.8305 17.0273C53.1683 17.0273 53.4422 16.7488 53.4422 16.4048C53.4422 15.6724 52.879 14.489 52.7659 14.2591C52.6148 13.9522 52.2477 13.8283 51.9452 13.9808C51.6431 14.1347 51.5204 14.5085 51.6717 14.816C51.8923 15.2651 52.2187 16.0802 52.2187 16.4048Z" fill="#F5F5F5"/>
<path d="M49.4354 30.166C49.1355 30.0104 48.7671 30.1338 48.6143 30.4402C48.5486 30.5708 48.4468 30.7162 48.3609 30.8097C48.3338 30.5624 48.3985 30.0682 48.5219 29.6586C48.604 29.3851 48.4925 29.0898 48.2519 28.9426C48.0119 28.795 47.7029 28.8333 47.5045 29.0356L46.2812 30.2803C46.0423 30.5234 46.0423 30.9172 46.2812 31.1603C46.5201 31.4034 46.9072 31.4034 47.146 31.1603L47.1772 31.1286C47.2301 31.3785 47.3313 31.6064 47.5046 31.7828C47.7339 32.0162 48.0111 32.1396 48.2993 32.1396C48.3552 32.1396 48.4113 32.1346 48.4676 32.1256C49.1605 32.0113 49.5919 31.234 49.7075 30.9986C49.858 30.6915 49.7362 30.3204 49.4354 30.166Z" fill="#F5F5F5"/>
<path d="M49.1985 25.1574H44.8874C44.9256 25.0025 44.965 24.8546 45.0052 24.7144C46.7243 24.3507 47.7462 23.786 48.0466 23.0327C48.1505 22.7713 48.2589 22.2432 47.8165 21.6359C47.4176 21.0888 46.8548 20.8434 46.2701 20.9648C45.4009 21.144 44.6266 22.097 44.0708 23.6227C42.3439 23.9236 41.2387 24.5543 40.539 25.1769C40.2908 22.6263 39.3176 21.1111 39.2703 21.039C39.0828 20.7527 38.7027 20.6754 38.4222 20.8663C38.1411 21.0571 38.0654 21.4431 38.2524 21.7293C38.2635 21.7463 39.373 23.473 39.373 26.3633C39.373 29.2042 37.1467 31.3426 35.703 31.3426C35.0163 31.3426 34.7155 30.5119 34.5835 29.8093C35.9971 28.8013 37.2445 27.6347 37.5199 26.5139C37.8927 24.9973 37.4236 23.8796 37.1132 23.14C37.0986 23.106 37.0833 23.0695 37.0678 23.0318C37.081 23.0439 37.0935 23.0566 37.1059 23.0688C37.3443 23.3119 37.7317 23.3119 37.9706 23.0688C38.2095 22.8257 38.2095 22.4317 37.9706 22.1888C37.6131 21.8246 36.9187 21.2526 36.2875 21.5213C36.0209 21.6338 35.7029 21.9169 35.7029 22.6286C35.7029 22.9502 35.8349 23.2643 35.9878 23.629C36.2633 24.2849 36.6059 25.1012 36.3329 26.2122C36.1713 26.8697 35.3778 27.6672 34.3307 28.4593C34.2184 28.3226 34.0563 28.2309 33.8679 28.2309H33.8668C33.5293 28.2314 33.256 28.5093 33.256 28.8528C33.256 28.9647 33.2609 29.0844 33.2679 29.2073C31.9589 30.0699 30.4776 30.8684 29.3325 31.3982C29.0251 31.5406 28.8894 31.9094 29.0292 32.2224C29.1316 32.4515 29.3538 32.5871 29.5862 32.5871C29.6709 32.5871 29.7571 32.5696 29.839 32.5313C30.1828 32.3723 31.8153 31.5983 33.4922 30.5409C33.8011 31.6078 34.4555 32.5873 35.7027 32.5873C37.1701 32.5873 38.8348 31.3664 39.7956 29.5435C39.9116 29.7519 40.0448 29.9515 40.2037 30.1377C41.7434 31.9443 44.7507 31.9648 44.8779 31.9648C45.2074 31.9648 45.4774 31.6998 45.4893 31.3649C45.5009 31.0299 45.2501 30.7455 44.9217 30.7219C44.9168 30.7214 44.4293 30.6666 44.1583 30.3443C43.9946 30.1497 43.9292 29.8825 43.9581 29.5269C44.0207 28.7599 46.4522 28.1865 48.5952 28.1527C48.8504 28.1484 49.0766 27.9837 49.1623 27.7388L49.774 25.9884C49.8404 25.7981 49.8119 25.586 49.6972 25.4214C49.584 25.2558 49.3971 25.1574 49.1985 25.1574ZM46.5136 22.1852C46.5252 22.1829 46.5407 22.1791 46.5602 22.1791C46.6187 22.1791 46.711 22.2083 46.834 22.3773C46.8572 22.409 46.9318 22.517 46.913 22.5646C46.8428 22.7408 46.4204 23.032 45.5405 23.2958C45.9275 22.5274 46.306 22.2278 46.5136 22.1852ZM42.8195 30.367C42.1982 30.1615 41.5648 29.8358 41.1264 29.3198C40.6446 28.7528 40.4667 28.0355 40.5834 27.128C40.601 27.0802 40.6411 26.9863 40.711 26.8641C41.5724 26.7838 43.8735 27.1294 44.033 27.7998C43.3232 28.1684 42.8004 28.6868 42.7399 29.4237C42.7095 29.7934 42.7466 30.1064 42.8195 30.367Z" fill="#F5F5F5"/>
<path d="M55.8576 16.2079L55.2459 14.3405C55.1473 14.0404 54.841 13.861 54.5376 13.929C54.2327 13.9953 54.0258 14.2838 54.0569 14.5993C54.4789 18.8943 55.2773 27.27 55.2773 28.2305C55.2773 29.093 53.7697 30.7911 51.3337 32.0307C51.0315 32.1845 50.9088 32.5581 51.0602 32.8658C51.1674 33.084 51.3833 33.2097 51.6079 33.2097C51.6997 33.2097 51.7932 33.1885 51.8809 33.1441C54.1061 32.0119 56.5008 29.9914 56.5008 28.2305C56.5008 27.3108 55.8757 20.6942 55.5176 16.9774C55.8075 16.8514 55.959 16.518 55.8576 16.2079Z" fill="#F5F5F5"/>
<path d="M60.9614 21.8243C61.0792 21.9441 61.2356 22.0067 61.3942 22.0067C61.4975 22.0067 61.6018 21.98 61.6963 21.9251C61.9356 21.7865 62.0544 21.5021 61.9867 21.2304C61.8772 20.7929 61.8407 20.2458 61.8987 20.0222C62.2051 20.0318 62.4895 19.8101 62.5345 19.4885C62.5821 19.1481 62.3499 18.8326 62.0156 18.7841C61.6111 18.7283 61.256 18.849 61.008 19.1298C60.8473 19.3123 60.7517 19.5462 60.6998 19.7979L59.9914 19.0771C59.7525 18.834 59.3653 18.834 59.1266 19.0771C58.8877 19.3201 58.8877 19.714 59.1266 19.9571L60.9614 21.8243Z" fill="#F5F5F5"/>
<path d="M62.3374 22.4734L60.0436 24.1461C59.7693 24.3461 59.7058 24.7351 59.9027 25.0147C60.0222 25.1842 60.2099 25.2742 60.4007 25.2742C60.5241 25.2742 60.6485 25.2365 60.7564 25.1576L63.0502 23.4848C63.3246 23.2849 63.3879 22.8958 63.1912 22.6163C62.994 22.3365 62.6111 22.2714 62.3374 22.4734Z" fill="#F5F5F5"/>
<path d="M62.1342 24.814C61.9417 25.0662 61.9693 25.4211 62.1878 25.6395C62.214 25.6845 62.3334 25.9226 62.3117 26.5354C62.2998 26.8793 62.5638 27.1675 62.9013 27.1797C62.9087 27.1802 62.9163 27.1802 62.9235 27.1802C63.2515 27.1802 63.5227 26.9157 63.5347 26.5803C63.5791 25.31 63.1706 24.8456 62.9929 24.7051C62.7266 24.4931 62.3416 24.543 62.1342 24.814Z" fill="#F5F5F5"/>
<path d="M67.4723 29.3976C67.8102 29.3976 68.0841 29.1193 68.0841 28.7751C68.0841 27.8568 68.0376 26.8316 67.9619 25.765C68.5685 26.7763 69.0723 27.7087 69.3954 28.4755C69.4945 28.712 69.7202 28.8529 69.9579 28.8529C70.0382 28.8529 70.12 28.8372 70.1985 28.8025C70.509 28.6669 70.6527 28.301 70.5195 27.9856C69.9595 26.6558 68.9129 24.8943 67.7209 23.0758C67.4809 20.7913 67.1675 18.5528 66.9239 16.9471C67.0534 16.9606 67.1879 16.9284 67.3059 16.8504C67.4991 16.7245 67.5896 16.5057 67.5766 16.288C67.5922 16.3492 67.6091 16.4105 67.6442 16.4669C67.6483 16.473 68.0415 17.1335 67.8671 17.9908C67.7986 18.3269 68.0115 18.6564 68.3423 18.7261C68.3841 18.7345 68.4259 18.739 68.4667 18.739C68.7506 18.739 69.0051 18.5365 69.0653 18.2425C69.3414 16.8827 68.7035 15.8423 68.6764 15.7985C68.4949 15.5091 68.1166 15.4241 67.8316 15.6076C67.6377 15.7334 67.546 15.9523 67.5585 16.1705C67.5427 16.109 67.5251 16.0471 67.4896 15.9907L66.4572 14.357C66.2995 14.1077 65.9908 14.0068 65.7201 14.1139C65.4486 14.2221 65.2897 14.5096 65.3401 14.8013C65.3487 14.8503 65.8161 17.5816 66.2304 20.8736C65.7615 20.1998 65.2926 19.5407 64.8379 18.9121C64.7641 17.9704 64.6899 17.0999 64.6257 16.38C64.6595 16.3698 64.6927 16.3563 64.7252 16.3399C65.0274 16.1861 65.1501 15.8122 64.9989 15.5048L64.3872 14.26C64.2552 13.9914 63.9539 13.8576 63.6702 13.9402C63.3868 14.0241 63.2021 14.3012 63.2314 14.6002C63.3044 15.3431 63.3803 16.1653 63.4549 17.0291C63.068 16.51 62.7099 16.0351 62.4037 15.6328C62.4634 15.5806 62.5144 15.5157 62.552 15.4389C62.7032 15.1315 62.5807 14.7576 62.2785 14.6038L61.0553 13.9814C60.7986 13.8513 60.4871 13.9195 60.3059 14.1468C60.1256 14.3742 60.1245 14.6986 60.3041 14.9272C60.3372 14.9691 61.8433 16.8901 63.6449 19.3695C63.9574 23.4818 64.1655 27.7597 63.8716 28.6566C63.8178 28.8208 63.724 29.0139 63.6359 29.0207C63.2662 29.073 62.3838 28.2319 61.9407 27.3304C61.6853 26.8114 61.3179 26.7574 61.1214 26.7663C60.4639 26.8076 60.2075 27.5437 59.7413 28.8798C59.4071 29.8371 58.9919 31.0272 58.5258 31.5141C58.2732 31.2 57.9466 30.1465 57.7652 29.0637C57.8502 29.303 58.0707 29.4761 58.3352 29.4761C58.6731 29.4761 58.9469 29.1978 58.9469 28.8538C58.9469 27.9255 58.309 20.8566 57.9527 16.9826C58.2503 16.8609 58.4066 16.5225 58.3039 16.2088L57.6922 14.3414C57.594 14.0413 57.2921 13.8642 56.9852 13.9293C56.681 13.995 56.4733 14.2824 56.5029 14.5974C56.9186 19.0375 57.698 27.6138 57.7223 28.7975C57.7207 28.7868 57.7186 28.7764 57.7172 28.7657C57.6697 28.4253 57.3575 28.1919 57.0251 28.2375C56.6906 28.2867 56.4586 28.6016 56.5062 28.9418C56.6848 30.2141 57.1413 32.4015 58.1925 32.7578C58.2755 32.7864 58.3873 32.8118 58.5184 32.8118C58.7596 32.8118 59.066 32.7248 59.3792 32.4057C60.0454 31.728 60.4963 30.4357 60.8941 29.2962C60.9841 29.0384 61.0904 28.7333 61.1906 28.472C61.7517 29.3058 62.731 30.344 63.7229 30.2628C64.0717 30.2374 64.7061 30.0465 65.0323 29.0508C65.3575 28.0579 65.229 24.5952 65.0098 21.28C65.5252 22.0149 66.0409 22.7676 66.5333 23.5108C66.7242 25.3747 66.8608 27.2421 66.8608 28.7759C66.8608 29.1191 67.1347 29.3976 67.4723 29.3976Z" fill="#F5F5F5"/>
<path d="M72.1144 26.1238C71.6811 22.8391 71.0774 19.0341 70.6951 16.6989C70.8677 16.7422 71.0558 16.7067 71.2075 16.5882C71.4763 16.3798 71.5278 15.989 71.3226 15.716L70.214 14.2377C70.043 14.0103 69.7411 13.9302 69.4829 14.045C69.2245 14.1599 69.0769 14.4396 69.125 14.7222C69.1361 14.7859 70.2268 21.1753 70.9015 26.2891C71.1592 28.2432 70.783 29.9896 69.8944 30.9596C69.3233 31.5828 68.5666 31.8647 67.6508 31.8105C67.3145 31.7922 67.0229 32.0498 67.0018 32.3927C66.9807 32.7356 67.2364 33.0311 67.5738 33.0527C67.6771 33.0595 67.7789 33.0624 67.8798 33.0624C69.0333 33.0624 70.0343 32.6322 70.7892 31.8078C71.9421 30.55 72.4251 28.4779 72.1144 26.1238Z" fill="#F5F5F5"/>
<path d="M65.3853 30.2268C65.1605 30.4753 65.1777 30.8668 65.4155 31.1013C65.4487 31.134 65.4885 31.1986 65.4886 31.2302C65.4888 31.2478 65.4642 31.3002 65.3962 31.3694C65.1573 31.6125 65.1573 32.0063 65.3962 32.2494C65.5157 32.371 65.6722 32.4319 65.8288 32.4319C65.9852 32.4319 66.1419 32.371 66.2614 32.2494C66.6493 31.8548 66.7205 31.4544 66.7117 31.1875C66.6929 30.6132 66.3085 30.2424 66.2317 30.1737C65.9817 29.9526 65.6099 29.9793 65.3853 30.2268Z" fill="#F5F5F5"/>
<path d="M63.229 43.8764H58.9473V43.2539C58.9473 42.91 58.6734 42.6315 58.3356 42.6315C57.9977 42.6315 57.7239 42.91 57.7239 43.2539V43.8764H25.3049C26.5281 45.1211 28.9748 45.7437 30.81 45.7437C32.1261 45.7437 48.5426 45.7437 57.7239 45.7437V46.9885C57.7239 47.3324 57.9977 47.6109 58.3356 47.6109H63.229C64.241 47.6109 65.0641 46.7733 65.0641 45.7436C65.064 44.714 64.241 43.8764 63.229 43.8764ZM63.229 46.366H58.9471V45.7436C61.895 45.7436 63.8405 45.7436 63.8405 45.7436L63.7307 45.4085C63.7943 45.5066 63.8405 45.6173 63.8405 45.7436C63.8405 46.0872 63.5661 46.366 63.229 46.366Z" fill="#F5F5F5"/>
</g>
<defs>
<clipPath id="clip0_360_7381">
<rect width="90" height="60" fill="white"/>
</clipPath>
</defs>
</svg>
