<svg width="90" height="60" viewBox="0 0 90 60" fill="none" xmlns="http://www.w3.org/2000/svg">
<g clip-path="url(#clip0_360_7384)">
<path d="M83.2597 60H6.74033C3.01764 60 0 56.9294 0 53.1414V6.85859C0 3.07076 3.01764 0 6.74033 0H83.2597C86.9822 0 90 3.07058 90 6.85859V53.1416C90 56.9294 86.9824 60 83.2597 60Z" fill="#73AF00"/>
<path d="M38.7932 50.5266C49.9342 50.5266 58.9658 41.3365 58.9658 30C58.9658 18.6635 49.9342 9.47342 38.7932 9.47342C27.6521 9.47342 18.6205 18.6635 18.6205 30C18.6205 41.3365 27.6521 50.5266 38.7932 50.5266Z" fill="#FF4B55"/>
</g>
<defs>
<clipPath id="clip0_360_7384">
<rect width="90" height="60" fill="white"/>
</clipPath>
</defs>
</svg>
