<svg width="90" height="60" viewBox="0 0 90 60" fill="none" xmlns="http://www.w3.org/2000/svg">
<g clip-path="url(#clip0_358_5135)">
<path d="M83.2597 0H6.74033C3.01764 0 0 3.07056 0 6.85855V53.1415C0 56.9293 3.01764 60 6.74033 60H83.2597C86.9822 60 90 56.9294 90 53.1415V6.85855C90 3.07056 86.9824 0 83.2597 0Z" fill="#FF4B55"/>
<path d="M14.9426 9.3825L16.422 13.896L21.0978 13.9328C21.7032 13.9375 21.9542 14.7237 21.4671 15.0895L17.7057 17.9158L19.116 22.4521C19.2985 23.0395 18.6414 23.5251 18.1489 23.167L14.345 20.4002L10.5411 23.1668C10.0485 23.5251 9.39146 23.0391 9.57393 22.4519L10.9842 17.9156L7.22285 15.0895C6.73576 14.7236 6.98678 13.9375 7.59217 13.9328L12.2679 13.896L13.7473 9.3825C13.9389 8.79815 14.7512 8.79815 14.9426 9.3825Z" fill="#FFE15A"/>
<path d="M31.9217 10.4947L32.9825 11.9664L34.6945 11.4216C34.9161 11.3511 35.0984 11.6083 34.9627 11.7999L33.9147 13.281L34.9529 14.7694C35.0873 14.962 34.9033 15.2179 34.6822 15.1459L32.9738 14.5894L31.9034 16.0541C31.7649 16.2437 31.4687 16.1446 31.4678 15.9085L31.4599 14.0832L29.7601 13.5C29.54 13.4243 29.5411 13.1073 29.7617 13.0333L31.465 12.4616L31.4851 10.6365C31.4875 10.401 31.7844 10.3042 31.9217 10.4947Z" fill="#FFE15A"/>
<path d="M25.4631 6.10714L27.2463 6.30425L28.007 4.65136C28.1057 4.43744 28.4152 4.47411 28.4625 4.70538L28.8292 6.49188L30.6091 6.71725C30.8396 6.7464 30.9009 7.05727 30.6993 7.17478L29.1428 8.08162L29.4822 9.87384C29.5262 10.106 29.2546 10.2613 29.0825 10.1026L27.7537 8.87649L26.1837 9.75865C25.9805 9.87295 25.7511 9.65795 25.8463 9.44242L26.5816 7.77755L25.2717 6.53051C25.1024 6.36989 25.2323 6.08174 25.4631 6.10714Z" fill="#FFE15A"/>
<path d="M28.2823 23.7957L27.2217 25.2678L25.5097 24.723C25.2881 24.6525 25.1058 24.9095 25.2415 25.1013L26.2895 26.5824L25.2513 28.0708C25.1169 28.2634 25.3009 28.5194 25.522 28.4473L27.2303 27.8908L28.3006 29.3556C28.4391 29.5452 28.7353 29.4461 28.7362 29.21L28.7441 27.3847L30.4439 26.8014C30.664 26.7257 30.6629 26.4088 30.4423 26.3347L28.739 25.7631L28.719 23.9379C28.7162 23.702 28.4196 23.6051 28.2823 23.7957Z" fill="#FFE15A"/>
<path d="M34.7405 19.6726L32.9572 19.8697L32.1964 18.2168C32.0978 18.0029 31.7885 18.0395 31.741 18.2708L31.3741 20.0573L29.5942 20.2827C29.3637 20.3118 29.3024 20.6227 29.504 20.7402L31.0605 21.647L30.7211 23.4393C30.6772 23.6714 30.9488 23.8267 31.1208 23.668L32.4496 22.4419L34.0196 23.3241C34.2229 23.4384 34.4522 23.2234 34.357 23.0078L33.6217 21.343L34.9316 20.0959C35.1016 19.9353 34.9717 19.6472 34.7405 19.6726Z" fill="#FFE15A"/>
</g>
<defs>
<clipPath id="clip0_358_5135">
<rect width="90" height="60" fill="white"/>
</clipPath>
</defs>
</svg>
