<svg width="90" height="60" viewBox="0 0 90 60" fill="none" xmlns="http://www.w3.org/2000/svg">
<g clip-path="url(#clip0_347_2026)">
<path d="M2.4082 1.60532C0.936211 2.86363 0 4.74941 0 6.85859V53.1416C0 55.2506 0.936211 57.1365 2.4082 58.3947L45 30L2.4082 1.60532Z" fill="#41479B"/>
<path d="M2.4082 58.3947C3.57979 59.3961 5.09027 60 6.74016 60H83.2595C86.982 60 89.9998 56.9294 89.9998 53.1414V30L45 30L2.4082 58.3947Z" fill="#FF4B55"/>
<path d="M83.2597 0H6.74033C5.09045 0 3.57979 0.604207 2.40838 1.60532L45 30L90 30V6.85859C90 3.07058 86.9824 0 83.2597 0Z" fill="#F5F5F5"/>
</g>
<defs>
<clipPath id="clip0_347_2026">
<rect width="90" height="60" fill="white"/>
</clipPath>
</defs>
</svg>
