<svg width="90" height="60" viewBox="0 0 90 60" fill="none" xmlns="http://www.w3.org/2000/svg">
<g clip-path="url(#clip0_358_5115)">
<path d="M83.2597 0.000178166H6.74033C3.01764 0.000178166 0 3.07074 0 6.85873V53.1414C0 56.9293 3.01764 60 6.74033 60H83.2597C86.9822 60 90 56.9294 90 53.1414V6.85873C90 3.07074 86.9824 0.000178166 83.2597 0.000178166Z" fill="#41479B"/>
<path d="M89.9067 5.72491C89.3754 2.47691 86.6025 0 83.2597 0H81.5059L52.7586 19.1648V0.000178766H37.2414V19.1649L8.4941 0.000178766L6.74033 0.000178166C3.3975 0.000178166 0.624551 2.47691 0.0933398 5.72508L24.6637 22.1055H0V37.8949H24.6637L0.0933398 54.2749C0.624551 57.5229 3.3975 59.9998 6.74033 59.9998H8.4941L37.2414 40.8351V59.9998H52.7586V40.8351L81.5059 59.9998H83.2597C86.6025 59.9998 89.3754 57.5231 89.9067 54.2749L65.3363 37.8945H90V22.1051H65.3363L89.9067 5.72491Z" fill="#F5F5F5"/>
<path d="M49.6552 0.000178166H40.3448V25.2631H0V34.7369H40.3448V59.9998H49.6552V34.7369H90V25.2631H49.6552V0.000178166Z" fill="#FF4B55"/>
<path d="M4.35814 59.5577L37.1559 37.8947H31.4557L1.62141 57.6005C2.35143 58.4675 3.28957 59.1468 4.35814 59.5577Z" fill="#FF4B55"/>
<path d="M60.8885 37.8947H55.1883L86.9548 58.8764C87.8437 58.2824 88.5855 57.48 89.1146 56.5377L60.8885 37.8947Z" fill="#FF4B55"/>
<path d="M0.711738 3.79192L28.4377 22.1053H34.138L2.72021 1.35347C1.87664 1.99237 1.18635 2.82766 0.711738 3.79192Z" fill="#FF4B55"/>
<path d="M58.4589 22.1053L88.3478 2.36315C87.6097 1.49906 86.6642 0.82367 85.5882 0.420689L52.7586 22.1053H58.4589Z" fill="#FF4B55"/>
</g>
<defs>
<clipPath id="clip0_358_5115">
<rect width="90" height="60" fill="white"/>
</clipPath>
</defs>
</svg>
