<svg width="90" height="60" viewBox="0 0 90 60" fill="none" xmlns="http://www.w3.org/2000/svg">
<g clip-path="url(#clip0_360_7386)">
<path d="M2.4082 1.60532C0.936211 2.86363 0 4.74941 0 6.85859V53.1416C0 55.2506 0.936211 57.1365 2.4082 58.3947L45 30L2.4082 1.60532Z" fill="#F5F5F5"/>
<path d="M2.4082 58.3947C3.57978 59.3961 5.09027 60 6.74016 60H83.2595C86.982 60 89.9998 56.9294 89.9998 53.1414V30L45 30L2.4082 58.3947Z" fill="#FF4B55"/>
<path d="M83.2597 0H6.74033C5.09045 0 3.57978 0.604207 2.40838 1.60532L45 30L90 30V6.85859C90 3.07058 86.9824 0 83.2597 0Z" fill="#41479B"/>
<path d="M16.2932 35.1316C19.0784 35.1316 21.3363 32.8341 21.3363 30C21.3363 27.1659 19.0784 24.8684 16.2932 24.8684C13.5079 24.8684 11.25 27.1659 11.25 30C11.25 32.8341 13.5079 35.1316 16.2932 35.1316Z" fill="#FFE15A"/>
<path d="M16.4071 29.6642L14.4019 22.3027L16.2932 19.7369L18.1842 22.3027L16.4071 29.6642Z" fill="#FFE15A"/>
<path d="M16.4071 29.6642L18.1842 37.6973L16.2932 40.2631L14.4019 37.6973L16.4071 29.6642Z" fill="#FFE15A"/>
<path d="M16.4071 29.6642L8.72842 31.9244L6.20684 30L8.72842 28.0756L16.4071 29.6642Z" fill="#FFE15A"/>
<path d="M16.4071 29.6642L23.8577 28.0756L26.3793 30L23.8577 31.9244L16.4071 29.6642Z" fill="#FFE15A"/>
<path d="M16.4071 29.6642L20.3048 23.1965L23.4251 22.7427L22.9794 25.9178L16.4071 29.6642Z" fill="#FFE15A"/>
<path d="M16.4071 29.6642L12.2813 36.8035L9.16101 37.2573L9.6068 34.0822L16.4071 29.6642Z" fill="#FFE15A"/>
<path d="M16.4071 29.6642L9.6068 25.9178L9.16101 22.7427L12.2813 23.1965L16.4071 29.6642Z" fill="#FFE15A"/>
<path d="M16.4071 29.6642L23.0933 33.7464L23.539 36.9214L20.4187 36.4677L16.4071 29.6642Z" fill="#FFE15A"/>
<path d="M4.15863 7.76597L4.4216 9.76211L2.65043 10.6614C2.42121 10.7779 2.46937 11.1243 2.72162 11.1712L4.66857 11.5336L4.96178 13.5254C4.99975 13.7834 5.33848 13.8436 5.46029 13.614L6.40072 11.8418L8.35295 12.1734C8.60572 12.2165 8.76674 11.9071 8.5899 11.7185L7.22408 10.2608L8.13727 8.47392C8.25539 8.24265 8.01615 7.99116 7.78518 8.10403L6.00064 8.97546L4.61285 7.53935C4.43355 7.35369 4.12471 7.50769 4.15863 7.76597Z" fill="#FFE15A"/>
<path d="M4.9398 46.6177L4.60775 48.6032L2.65395 48.9261C2.401 48.9679 2.34598 49.3133 2.57291 49.4343L4.32598 50.3692L4.02416 52.3596C3.98514 52.6173 4.29082 52.7772 4.47416 52.595L5.8899 51.1873L7.65721 52.0947C7.88607 52.2122 8.13006 51.9655 8.0165 51.732L7.1383 49.927L8.53225 48.4974C8.71277 48.3122 8.55791 47.9997 8.30408 48.0377L6.34553 48.3298L5.4399 46.5388C5.32248 46.3071 4.98252 46.3605 4.9398 46.6177Z" fill="#FFE15A"/>
<path d="M35.6368 27.0586L34.4976 28.7056L32.5974 28.1421C32.3515 28.0692 32.1557 28.3569 32.3093 28.5655L33.4967 30.1769L32.3828 31.8418C32.2386 32.0573 32.4469 32.3356 32.6895 32.2514L34.5625 31.6003L35.7743 33.1927C35.9313 33.399 36.2558 33.2831 36.2519 33.0225L36.222 31.0088L38.0849 30.328C38.3261 30.24 38.3182 29.89 38.0733 29.8133L36.1818 29.2198L36.1213 27.2067C36.1139 26.9457 35.7843 26.8452 35.6368 27.0586Z" fill="#FFE15A"/>
</g>
<defs>
<clipPath id="clip0_360_7386">
<rect width="90" height="60" fill="white"/>
</clipPath>
</defs>
</svg>
