<svg width="90" height="60" viewBox="0 0 90 60" fill="none" xmlns="http://www.w3.org/2000/svg">
<g clip-path="url(#clip0_360_7383)">
<path d="M83.2597 0H6.74033C3.01764 0 0 3.07058 0 6.85859V20H90V6.85859C90 3.07058 86.9824 0 83.2597 0Z" fill="#FAB446"/>
<path d="M0 53.1414C0 56.9292 3.01764 60 6.74033 60H83.2597C86.9822 60 90 56.9294 90 53.1414V40H0V53.1414Z" fill="#73AF00"/>
<path d="M90 19.9996H0V39.9986H90V19.9996Z" fill="#F5F5F5"/>
<path d="M45 38.4868C40.4009 38.4868 36.6596 34.6798 36.6596 30C36.6596 25.3202 40.4009 21.5132 45 21.5132C49.5992 21.5132 53.3405 25.3202 53.3405 30C53.3405 34.6798 49.5992 38.4868 45 38.4868ZM45 23.092C41.2563 23.092 38.2112 26.1905 38.2112 30C38.2112 33.8095 41.2563 36.908 45 36.908C48.7438 36.908 51.7889 33.8095 51.7889 30C51.7889 26.1905 48.7438 23.092 45 23.092Z" fill="#41479B"/>
<path d="M45 30.9621C45.5222 30.9621 45.9456 30.5314 45.9456 30C45.9456 29.4686 45.5222 29.0379 45 29.0379C44.4778 29.0379 44.0545 29.4686 44.0545 30C44.0545 30.5314 44.4778 30.9621 45 30.9621Z" fill="#41479B"/>
<path d="M45 30.1443L42.5971 30.3912L37.4355 30.1443V29.8557L42.5971 29.6088L45 29.8557V30.1443Z" fill="#41479B"/>
<path d="M45 30.1443L47.403 30.3912L52.5646 30.1443V29.8557L47.403 29.6088L45 29.8557V30.1443Z" fill="#41479B"/>
<path d="M44.8582 30L44.6156 27.5549L44.8582 22.3027H45.1419L45.3845 27.5549L45.1419 30H44.8582Z" fill="#41479B"/>
<path d="M44.8582 30L44.6156 32.4451L44.8582 37.6973H45.1419L45.3845 32.4451L45.1419 30H44.8582Z" fill="#41479B"/>
<path d="M44.8998 30.102L43.0292 28.5478L39.5508 24.6593L39.7514 24.4552L43.5729 27.9946L45.1002 29.898L44.8998 30.102Z" fill="#41479B"/>
<path d="M44.8998 30.102L46.4272 32.0054L50.2487 35.5448L50.4493 35.3407L46.9709 31.4522L45.1002 29.898L44.8998 30.102Z" fill="#41479B"/>
<path d="M44.8998 29.898L46.4272 27.9946L50.2487 24.4552L50.4493 24.6593L46.9709 28.5478L45.1002 30.102L44.8998 29.898Z" fill="#41479B"/>
<path d="M44.8998 29.898L43.0292 31.4522L39.5508 35.3407L39.7514 35.5448L43.5729 32.0054L45.1002 30.102L44.8998 29.898Z" fill="#41479B"/>
<path d="M45.0544 30.1334L42.9271 31.2971L38.0656 33.079L37.957 32.8123L42.633 30.5743L44.9457 29.8666L45.0544 30.1334Z" fill="#41479B"/>
<path d="M45.0544 30.1334L47.3671 29.4257L52.0431 27.1877L51.9344 26.921L47.073 28.7029L44.9457 29.8666L45.0544 30.1334Z" fill="#41479B"/>
<path d="M44.8689 30.0553L43.7253 27.8906L41.9741 22.9439L42.2362 22.8334L44.4356 27.5914L45.1312 29.9447L44.8689 30.0553Z" fill="#41479B"/>
<path d="M44.8689 30.0553L45.5645 32.4086L47.7639 37.1666L48.0259 37.0561L46.2748 32.1094L45.1312 29.9447L44.8689 30.0553Z" fill="#41479B"/>
<path d="M44.9457 30.1334L42.633 29.4257L37.957 27.1877L38.0656 26.921L42.9271 28.7029L45.0544 29.8666L44.9457 30.1334Z" fill="#41479B"/>
<path d="M44.9457 30.1334L47.073 31.2971L51.9344 33.079L52.0431 32.8123L47.3671 30.5743L45.0544 29.8666L44.9457 30.1334Z" fill="#41479B"/>
<path d="M44.8689 29.9447L45.5645 27.5914L47.7639 22.8334L48.0259 22.9439L46.2748 27.8906L45.1312 30.0553L44.8689 29.9447Z" fill="#41479B"/>
<path d="M44.8689 29.9447L43.7253 32.1094L41.9741 37.0561L42.2362 37.1666L44.4356 32.4086L45.1312 30.0553L44.8689 29.9447Z" fill="#41479B"/>
<path d="M45 31.2978C45.7044 31.2978 46.2755 30.7168 46.2755 30C46.2755 29.2832 45.7044 28.7022 45 28.7022C44.2956 28.7022 43.7245 29.2832 43.7245 30C43.7245 30.7168 44.2956 31.2978 45 31.2978Z" fill="#F5F5F5"/>
<path d="M45 30.7782C45.4224 30.7782 45.7648 30.4298 45.7648 30C45.7648 29.5702 45.4224 29.2218 45 29.2218C44.5776 29.2218 44.2352 29.5702 44.2352 30C44.2352 30.4298 44.5776 30.7782 45 30.7782Z" fill="#41479B"/>
</g>
<defs>
<clipPath id="clip0_360_7383">
<rect width="90" height="60" fill="white"/>
</clipPath>
</defs>
</svg>
