<svg width="90" height="60" viewBox="0 0 90 60" fill="none" xmlns="http://www.w3.org/2000/svg">
<g clip-path="url(#clip0_347_2033)">
<path d="M83.2597 0H6.74033C3.01764 0 0 3.07056 0 6.85855V53.1415C0 56.9293 3.01764 60 6.74033 60H83.2597C86.9822 60 90 56.9294 90 53.1415V6.85855C90 3.07056 86.9824 0 83.2597 0Z" fill="#F5F5F5"/>
<path d="M45 47.3706C54.4266 47.3706 62.0684 39.5934 62.0684 29.9998C62.0684 20.4062 54.4266 12.6291 45 12.6291C35.5734 12.6291 27.9316 20.4062 27.9316 29.9998C27.9316 39.5934 35.5734 47.3706 45 47.3706Z" fill="#FF4B55"/>
</g>
<defs>
<clipPath id="clip0_347_2033">
<rect width="90" height="60" fill="white"/>
</clipPath>
</defs>
</svg>
