<svg width="90" height="60" viewBox="0 0 90 60" fill="none" xmlns="http://www.w3.org/2000/svg">
<g clip-path="url(#clip0_360_7380)">
<path d="M83.2597 0H6.74033C3.01764 0 0 3.07056 0 6.85855V53.1415C0 56.9293 3.01764 60 6.74033 60H83.2597C86.9822 60 90 56.9294 90 53.1415V6.85855C90 3.07056 86.9824 0 83.2597 0Z" fill="#F5F5F5"/>
<path d="M53.6149 16.859C46.4846 12.0222 36.8541 13.9997 32.1038 21.2423C29.7211 24.8573 30.6897 29.7694 34.2545 32.1879C37.8167 34.6063 42.6287 33.6241 45.0055 29.9964C47.3822 26.3689 52.1974 25.3989 55.7594 27.8046C59.3274 30.223 60.287 35.1352 57.9069 38.7502C62.6604 31.4957 60.7389 21.6961 53.6149 16.859Z" fill="#FF4B55"/>
<path d="M32.1036 21.2424C29.7209 24.8575 30.6895 29.7696 34.2543 32.188C37.8165 34.6065 42.6285 33.6243 45.0053 29.9966C47.382 26.3691 52.1972 25.3991 55.7592 27.8048C59.3272 30.2232 60.2868 35.1354 57.9067 38.7504C53.1596 46.018 43.5322 47.9707 36.402 43.1338C29.2783 38.2975 27.3503 28.4979 32.1036 21.2424Z" fill="#41479B"/>
<path d="M61.5094 10.8953L64.328 15.2063C64.5648 15.5685 64.469 16.0575 64.1137 16.2995L63.399 16.7866C63.0424 17.0295 62.5597 16.9318 62.3217 16.5684L59.4995 12.2585C59.262 11.8959 59.3583 11.406 59.7145 11.164L60.4327 10.676C60.7896 10.4337 61.2717 10.5321 61.5094 10.8953Z" fill="#464655"/>
<path d="M65.8582 17.5421L68.686 21.8504C68.9247 22.2142 68.8273 22.7065 68.4686 22.9476L67.7507 23.4303C67.3945 23.67 66.915 23.5714 66.6779 23.2103L63.8517 18.9065C63.6137 18.5441 63.7093 18.0538 64.0656 17.8115L64.7819 17.3243C65.138 17.0819 65.62 17.1794 65.8582 17.5421Z" fill="#464655"/>
<path d="M64.5274 8.84591L71.7043 19.8055C71.942 20.1682 71.8455 20.6583 71.489 20.9001L70.768 21.3891C70.4115 21.6309 69.9296 21.5329 69.692 21.1702L62.5126 10.2114C62.2747 9.84844 62.3714 9.358 62.7282 9.11617L63.4516 8.62627C63.8082 8.38534 64.2897 8.48317 64.5274 8.84591Z" fill="#464655"/>
<path d="M67.5371 6.7997L70.3619 11.1191C70.5999 11.4829 70.5022 11.9741 70.1438 12.215L69.4253 12.6979C69.0689 12.9376 68.5891 12.8391 68.3522 12.4772L65.5253 8.16354C65.2874 7.80081 65.3839 7.31054 65.7404 7.06854L66.461 6.57988C66.8174 6.33805 67.2994 6.43625 67.5371 6.7997Z" fill="#464655"/>
<path d="M71.8887 13.4606L74.7091 17.7711C74.9464 18.1334 74.8503 18.6228 74.4947 18.8648L73.7784 19.352C73.4217 19.5946 72.939 19.4967 72.7014 19.1333L69.881 14.8228C69.6438 14.4605 69.7398 13.9711 70.0954 13.7291L70.8117 13.2419C71.1686 12.9991 71.6509 13.0968 71.8887 13.4606Z" fill="#464655"/>
<path d="M23.3299 36.7936L30.506 47.7414C30.7436 48.1039 30.6476 48.594 30.2912 48.836L29.5726 49.3243C29.2161 49.5665 28.7343 49.4686 28.4963 49.1057L21.3202 38.158C21.0823 37.7954 21.1785 37.3053 21.535 37.0633L22.2537 36.5751C22.61 36.3329 23.092 36.4307 23.3299 36.7936Z" fill="#464655"/>
<path d="M20.3171 38.8413L23.1346 43.1413C23.372 43.5037 23.2763 43.9929 22.9206 44.2353L22.2059 44.7221C21.8496 44.9649 21.3673 44.8674 21.1291 44.5045L18.3083 40.2055C18.0703 39.8429 18.1663 39.3526 18.5228 39.1105L19.241 38.6225C19.5973 38.3805 20.0793 38.4783 20.3171 38.8413Z" fill="#464655"/>
<path d="M24.6711 45.4904L27.4917 49.8013C27.729 50.1637 27.6328 50.6533 27.2769 50.8951L26.56 51.3829C26.2034 51.6254 25.7212 51.5276 25.4832 51.1643L22.6608 46.8542C22.4234 46.4916 22.5195 46.0017 22.8756 45.7599L23.5942 45.2716C23.9511 45.0289 24.4332 45.1271 24.6711 45.4904Z" fill="#464655"/>
<path d="M17.3043 40.8884L24.4758 51.8366C24.7133 52.199 24.6171 52.6887 24.2615 52.9309L23.5448 53.4185C23.1884 53.661 22.7062 53.5632 22.4682 53.2003L15.2924 42.2534C15.0546 41.8907 15.1511 41.4004 15.5076 41.1584L16.2287 40.6694C16.5848 40.4276 17.0666 40.5256 17.3043 40.8884Z" fill="#464655"/>
<path d="M21.3212 21.8511L28.4963 10.8944C28.7341 10.5313 29.2161 10.4333 29.5727 10.6755L30.2912 11.1636C30.6475 11.4056 30.7434 11.8957 30.506 12.2583L23.3281 23.2089C23.0908 23.5707 22.6107 23.6691 22.2544 23.4291L21.5388 22.947C21.1806 22.7059 21.0832 22.2146 21.3212 21.8511Z" fill="#464655"/>
<path d="M18.3071 19.8062L25.4834 8.84734C25.7212 8.48425 26.2035 8.38623 26.5602 8.62877L27.2769 9.11635C27.6326 9.35836 27.7286 9.84791 27.4913 10.2103L20.317 21.1697C20.0791 21.5327 19.5971 21.6309 19.2405 21.3886L18.5219 20.9005C18.1658 20.6586 18.0696 20.1687 18.3071 19.8062Z" fill="#464655"/>
<path d="M15.2912 17.77L22.4682 6.80024C22.706 6.43697 23.1885 6.33877 23.5452 6.58131L24.2619 7.06889C24.6175 7.3109 24.7136 7.79991 24.4767 8.16247L17.3041 19.1338C17.0666 19.4969 16.5844 19.5955 16.2278 19.3535L15.5071 18.8645C15.1504 18.6226 15.0541 18.1327 15.2912 17.77Z" fill="#464655"/>
<path d="M59.5007 47.7412L62.3215 43.4422C62.5597 43.0793 63.042 42.9818 63.3983 43.2245L64.113 43.7114C64.4687 43.9535 64.5643 44.4429 64.3268 44.8053L61.5094 49.1052C61.2715 49.4681 60.7895 49.5661 60.4331 49.3239L59.7148 48.836C59.3587 48.594 59.2627 48.1039 59.5007 47.7412Z" fill="#464655"/>
<path d="M63.8513 41.1148L66.6766 36.7945C66.9141 36.4314 67.3963 36.333 67.7529 36.5751L68.4729 37.0633C68.8296 37.3054 68.9259 37.796 68.6879 38.1587L65.8566 42.4722C65.6191 42.8339 65.1391 42.9321 64.7828 42.6917L64.0687 42.2102C63.711 41.9687 63.6137 41.4781 63.8513 41.1148Z" fill="#464655"/>
<path d="M62.5124 49.7999L65.3349 45.4896C65.5726 45.1267 66.0544 45.0285 66.411 45.2705L67.1324 45.7601C67.4888 46.0019 67.5851 46.4916 67.3478 46.8545L64.527 51.1652C64.2895 51.5281 63.8081 51.6265 63.4512 51.3848L62.7279 50.8949C62.3714 50.6533 62.2747 50.1628 62.5124 49.7999Z" fill="#464655"/>
<path d="M66.8677 43.1399L69.6918 38.8396C69.9298 38.4774 70.4111 38.3798 70.7674 38.6214L71.4885 39.1105C71.8453 39.3525 71.9415 39.8431 71.7031 40.206L68.879 44.5064C68.6412 44.8686 68.1597 44.9663 67.8036 44.7246L67.0823 44.2356C66.7255 43.9934 66.6294 43.5028 66.8677 43.1399Z" fill="#464655"/>
<path d="M65.5262 51.8359L68.3518 47.5332C68.5891 47.172 69.0685 47.0737 69.4246 47.3132L70.1429 47.7961C70.5015 48.0372 70.599 48.5289 70.3607 48.8927L67.5371 53.2012C67.2994 53.5639 66.8176 53.6618 66.4611 53.4201L65.7408 52.9315C65.3839 52.6893 65.2878 52.1987 65.5262 51.8359Z" fill="#464655"/>
<path d="M69.8825 45.1979L72.7012 40.89C72.939 40.5267 73.4215 40.4285 73.7782 40.6712L74.494 41.1581C74.8499 41.4003 74.9457 41.8902 74.7081 42.2526L71.887 46.5548C71.6498 46.9168 71.1693 47.015 70.813 46.7746L70.0993 46.2935C69.7419 46.0522 69.6447 45.5612 69.8825 45.1979Z" fill="#464655"/>
</g>
<defs>
<clipPath id="clip0_360_7380">
<rect width="90" height="60" fill="white"/>
</clipPath>
</defs>
</svg>
