<svg width="90" height="60" viewBox="0 0 90 60" fill="none" xmlns="http://www.w3.org/2000/svg">
<g clip-path="url(#clip0_347_2020)">
<path d="M83.2597 0.000178166H6.74033C3.01764 0.000178166 0 3.07074 0 6.85873V53.1414C0 56.9293 3.01764 60 6.74033 60H83.2597C86.9822 60 90 56.9294 90 53.1414V6.85873C90 3.07074 86.9824 0.000178166 83.2597 0.000178166Z" fill="#FF4B55"/>
<path d="M38.5174 25.6783C38.8489 25.1644 39.2418 24.7001 39.6787 24.2792C39.6777 24.2799 39.6768 24.2808 39.6758 24.2815L17.0689 0.000178166H6.74033C5.09045 0.000178166 3.57979 0.604381 2.40838 1.60584L38.5174 25.6783Z" fill="#FFE15A"/>
<path d="M37.3215 30.8088C37.2941 30.5391 37.2414 30.2771 37.2414 30C37.2414 29.7229 37.2941 29.4609 37.3215 29.1912V29.1915L0 25.2631V34.7369L37.3215 30.8083V30.8088Z" fill="#FFE15A"/>
<path d="M45 22.1053C45.4131 22.1053 45.8103 22.1657 46.2059 22.2289L49.6552 0.000178166H40.3448L43.7941 22.2289C44.1896 22.1657 44.5869 22.1053 45 22.1053Z" fill="#FFE15A"/>
<path d="M50.3213 24.279C50.7582 24.7001 51.1513 25.1642 51.4826 25.6781L87.5918 1.60566C86.4202 0.604203 84.9097 0 83.2598 0H72.9311L50.3242 24.2815C50.3232 24.2806 50.322 24.2801 50.3213 24.279Z" fill="#FFE15A"/>
<path d="M51.4826 34.3217C51.1511 34.8356 50.7582 35.2999 50.3213 35.7208C50.3221 35.7201 50.3232 35.7192 50.3242 35.7185L72.9311 59.9998H83.2598C84.9097 59.9998 86.4204 59.3956 87.5918 58.3942L51.4826 34.3217Z" fill="#FFE15A"/>
<path d="M52.6785 29.1912C52.7059 29.4607 52.7586 29.7229 52.7586 30C52.7586 30.2771 52.7059 30.5391 52.6785 30.8088V30.8085L90 34.7369V25.2631L52.6785 29.1917V29.1912Z" fill="#FFE15A"/>
<path d="M45 37.8947C44.5869 37.8947 44.1896 37.8342 43.7941 37.7711L40.3448 59.9998H49.6552L46.2059 37.7711C45.8103 37.8342 45.4131 37.8947 45 37.8947Z" fill="#FFE15A"/>
<path d="M39.6787 35.721C39.2418 35.2999 38.8487 34.8358 38.5174 34.3219L2.4082 58.3943C3.57979 59.3958 5.09027 60 6.74016 60H17.0689L39.6758 35.7186C39.6768 35.7194 39.678 35.7199 39.6787 35.721Z" fill="#FFE15A"/>
<path d="M45 36.3157C48.4279 36.3157 51.2068 33.4881 51.2068 30C51.2068 26.5119 48.4279 23.6843 45 23.6843C41.5721 23.6843 38.7932 26.5119 38.7932 30C38.7932 33.4881 41.5721 36.3157 45 36.3157Z" fill="#FFE15A"/>
</g>
<defs>
<clipPath id="clip0_347_2020">
<rect width="90" height="60" fill="white"/>
</clipPath>
</defs>
</svg>
