<svg width="90" height="60" viewBox="0 0 90 60" fill="none" xmlns="http://www.w3.org/2000/svg">
<g clip-path="url(#clip0_360_7382)">
<path d="M83.2595 0H6.74032C3.01763 0 0 3.07075 0 6.85857V19.9999H89.9998V6.85857C89.9998 3.07075 86.9822 0 83.2595 0Z" fill="#73AF00"/>
<path d="M0 53.1414C0 56.9293 3.01763 60 6.74032 60H83.2595C86.982 60 89.9998 56.9294 89.9998 53.1414V40.0001H0V53.1414Z" fill="#FF4B55"/>
<path d="M89.9998 19.9994H0V39.9983H89.9998V19.9994Z" fill="#F5F5F5"/>
<path d="M0.243984 18.9418H0.257695C0.392519 18.9418 0.501855 18.8307 0.501855 18.6935V18.1555C0.501855 18.0183 0.611014 17.9072 0.746014 17.9072H1.77029C1.90511 17.9072 2.01445 18.0183 2.01445 18.1555V18.6935C2.01445 18.8307 2.12361 18.9418 2.25861 18.9418H4.28044C4.41527 18.9418 4.52443 18.8307 4.52443 18.6935V17.6312C4.52443 17.494 4.41527 17.383 4.28044 17.383H3.26267C3.12785 17.383 3.01869 17.494 3.01869 17.6312V17.6586C3.01869 17.7958 3.12785 17.9069 3.26267 17.9069H3.77859C3.91341 17.9069 4.02275 18.0179 4.02275 18.1551V18.1821C4.02275 18.3193 3.91359 18.4304 3.77859 18.4304H2.76046C2.62564 18.4304 2.5163 18.3193 2.5163 18.1821V17.6311C2.5163 17.4939 2.40697 17.3828 2.27214 17.3828H0.243984C0.10916 17.3828 0 17.4939 0 17.6311V18.6933C0 18.8303 0.10916 18.9418 0.243984 18.9418ZM1.25455 18.9418H1.26844C1.40326 18.9418 1.51242 18.8307 1.51242 18.6935V18.6794C1.51242 18.5422 1.40326 18.4311 1.26844 18.4311H1.25455C1.11972 18.4311 1.01039 18.5424 1.01039 18.6794V18.6935C1.01039 18.8303 1.11972 18.9418 1.25455 18.9418ZM0.243984 16.8589H6.29489C6.42971 16.8589 6.53905 16.7478 6.53905 16.6106V16.5834C6.53905 16.4463 6.42989 16.3352 6.29489 16.3352H0.243984C0.10916 16.3352 0 16.4463 0 16.5834V16.6106C0 16.7478 0.10916 16.8589 0.243984 16.8589ZM6.29489 18.9418H5.27712C5.14229 18.9418 5.03296 18.8307 5.03296 18.6935V17.6312C5.03296 17.494 5.14212 17.383 5.27712 17.383H6.7971C6.93192 17.383 7.04126 17.2717 7.04126 17.1347V16.5836C7.04126 16.4464 7.15042 16.3354 7.28524 16.3354H7.29878C7.4336 16.3354 7.54293 16.4464 7.54293 16.5836V18.1827C7.54293 18.3199 7.65209 18.4309 7.78692 18.4309H7.80081C7.93563 18.4309 8.04479 18.3199 8.04479 18.1827V16.5836C8.04479 16.4464 8.15395 16.3354 8.28877 16.3354H8.30231C8.43713 16.3354 8.54647 16.4464 8.54647 16.5836V18.1827C8.54647 18.3199 8.65563 18.4309 8.79045 18.4309H8.81067C8.94549 18.4309 9.05483 18.3199 9.05483 18.1827V16.5836C9.05483 16.4464 9.16399 16.3354 9.29881 16.3354H9.30619C9.44102 16.3354 9.55018 16.4464 9.55018 16.5836V18.6937C9.55018 18.8309 9.44102 18.942 9.30619 18.942H7.28559C7.15077 18.942 7.04161 18.8309 7.04161 18.6937V18.1557C7.04161 18.0185 6.93245 17.9074 6.79745 17.9074H5.77968C5.64485 17.9074 5.53552 18.0185 5.53552 18.1557V18.1827C5.53552 18.3199 5.64468 18.4309 5.77968 18.4309H6.29524C6.43007 18.4309 6.5394 18.5422 6.5394 18.6792V18.6933C6.53923 18.8303 6.42971 18.9418 6.29489 18.9418Z" fill="#F5F5F5"/>
<path d="M10.3039 18.9418H10.3241C10.459 18.9418 10.5683 18.8307 10.5683 18.6935V18.1555C10.5683 18.0183 10.6775 17.9072 10.8123 17.9072H11.8237C11.9586 17.9072 12.0679 18.0183 12.0679 18.1555V18.6935C12.0679 18.8307 12.177 18.9418 12.3119 18.9418H14.3337C14.4685 18.9418 14.5777 18.8307 14.5777 18.6935V17.6312C14.5777 17.494 14.4685 17.383 14.3337 17.383H13.3159C13.1811 17.383 13.0718 17.494 13.0718 17.6312V17.6586C13.0718 17.7958 13.1809 17.9069 13.3159 17.9069H13.8319C13.9667 17.9069 14.0758 18.0179 14.0758 18.1551V18.1821C14.0758 18.3193 13.9667 18.4304 13.8319 18.4304H12.8137C12.6789 18.4304 12.5697 18.3193 12.5697 18.1821V17.6311C12.5697 17.4939 12.4606 17.3828 12.3258 17.3828H10.3039C10.1691 17.3828 10.0599 17.4939 10.0599 17.6311V18.6933C10.0599 18.8303 10.1693 18.9418 10.3039 18.9418ZM11.3082 18.9418H11.3219C11.4567 18.9418 11.5659 18.8307 11.5659 18.6935V18.6794C11.5659 18.5422 11.4567 18.4311 11.3219 18.4311H11.3082C11.1733 18.4311 11.0642 18.5424 11.0642 18.6794V18.6935C11.0642 18.8303 11.1733 18.9418 11.3082 18.9418ZM10.3039 16.8589H16.3485C16.4833 16.8589 16.5927 16.7478 16.5927 16.6106V16.5834C16.5927 16.4463 16.4835 16.3352 16.3485 16.3352H10.3039C10.1691 16.3352 10.0599 16.4463 10.0599 16.5834V16.6106C10.0599 16.7478 10.1693 16.8589 10.3039 16.8589ZM16.3487 18.9418H15.3244C15.1896 18.9418 15.0802 18.8307 15.0802 18.6935V17.6312C15.0802 17.494 15.1894 17.383 15.3244 17.383H16.8446C16.9794 17.383 17.0885 17.2717 17.0885 17.1347V16.5836C17.0885 16.4464 17.1977 16.3354 17.3327 16.3354H17.3529C17.4877 16.3354 17.5969 16.4464 17.5969 16.5836V18.1827C17.5969 18.3199 17.7061 18.4309 17.8411 18.4309H17.8613C17.9961 18.4309 18.1054 18.3199 18.1054 18.1827V16.5836C18.1054 16.4464 18.2146 16.3354 18.3496 16.3354H18.357C18.4918 16.3354 18.601 16.4464 18.601 16.5836V18.1827C18.601 18.3199 18.7101 18.4309 18.8451 18.4309H18.8653C19.0002 18.4309 19.1095 18.3199 19.1095 18.1827V16.5836C19.1095 16.4464 19.2187 16.3354 19.3535 16.3354H19.3672C19.502 16.3354 19.6112 16.4464 19.6112 16.5836V18.6937C19.6112 18.8309 19.502 18.942 19.3672 18.942H17.3327C17.1979 18.942 17.0885 18.8309 17.0885 18.6937V18.1557C17.0885 18.0185 16.9794 17.9074 16.8446 17.9074H15.8331C15.6983 17.9074 15.5891 18.0185 15.5891 18.1557V18.1827C15.5891 18.3199 15.6983 18.4309 15.8331 18.4309H16.349C16.4839 18.4309 16.5932 18.5422 16.5932 18.6792V18.6933C16.5927 18.8303 16.4835 18.9418 16.3487 18.9418Z" fill="#F5F5F5"/>
<path d="M20.3579 18.9418H20.3714C20.5063 18.9418 20.6154 18.8307 20.6154 18.6935V18.1555C20.6154 18.0183 20.7246 17.9072 20.8594 17.9072H21.8775C22.0123 17.9072 22.1215 18.0183 22.1215 18.1555V18.6935C22.1215 18.8307 22.2308 18.9418 22.3657 18.9418H24.3938C24.5286 18.9418 24.638 18.8307 24.638 18.6935V17.6312C24.638 17.494 24.5288 17.383 24.3938 17.383H23.376C23.2412 17.383 23.1319 17.494 23.1319 17.6312V17.6586C23.1319 17.7958 23.241 17.9069 23.376 17.9069H23.892C24.0268 17.9069 24.1361 18.0179 24.1361 18.1551V18.1821C24.1361 18.3193 24.027 18.4304 23.892 18.4304H22.8677C22.7329 18.4304 22.6237 18.3193 22.6237 18.1821V17.6311C22.6237 17.4939 22.5145 17.3828 22.3797 17.3828H20.3579C20.2231 17.3828 20.1139 17.4939 20.1139 17.6311V18.6933C20.1136 18.8303 20.2231 18.9418 20.3579 18.9418ZM21.362 18.9418H21.3757C21.5105 18.9418 21.6196 18.8307 21.6196 18.6935V18.6794C21.6196 18.5422 21.5105 18.4311 21.3757 18.4311H21.362C21.2271 18.4311 21.118 18.5424 21.118 18.6794V18.6935C21.1178 18.8303 21.2271 18.9418 21.362 18.9418ZM20.3579 16.8589H26.409C26.5438 16.8589 26.6531 16.7478 26.6531 16.6106V16.5834C26.6531 16.4463 26.544 16.3352 26.409 16.3352H20.3579C20.2231 16.3352 20.1139 16.4463 20.1139 16.5834V16.6106C20.1136 16.7478 20.2231 16.8589 20.3579 16.8589ZM26.409 18.9418H25.3847C25.2499 18.9418 25.1405 18.8307 25.1405 18.6935V17.6312C25.1405 17.494 25.2497 17.383 25.3847 17.383H26.9045C27.0393 17.383 27.1485 17.2717 27.1485 17.1347V16.5836C27.1485 16.4464 27.2578 16.3354 27.3926 16.3354H27.4065C27.5414 16.3354 27.6505 16.4464 27.6505 16.5836V18.1827C27.6505 18.3199 27.7599 18.4309 27.8947 18.4309H27.9149C28.0497 18.4309 28.159 18.3199 28.159 18.1827V16.5836C28.159 16.4464 28.2682 16.3354 28.403 16.3354H28.4234C28.5582 16.3354 28.6674 16.4464 28.6674 16.5836V18.1827C28.6674 18.3199 28.7767 18.4309 28.9114 18.4309H28.9188C29.0536 18.4309 29.1629 18.3199 29.1629 18.1827V16.5836C29.1629 16.4464 29.2721 16.3354 29.4069 16.3354H29.4206C29.5555 16.3354 29.6646 16.4464 29.6646 16.5836V18.6937C29.6646 18.8309 29.5553 18.942 29.4206 18.942H27.3921C27.2573 18.942 27.148 18.8309 27.148 18.6937V18.1557C27.148 18.0185 27.0388 17.9074 26.904 17.9074H25.8862C25.7514 17.9074 25.642 18.0185 25.642 18.1557V18.1827C25.642 18.3199 25.7512 18.4309 25.8862 18.4309H26.4088C26.5436 18.4309 26.653 18.5422 26.653 18.6792V18.6933C26.6531 18.8303 26.5438 18.9418 26.409 18.9418Z" fill="#F5F5F5"/>
<path d="M30.4113 18.9418H30.4249C30.5597 18.9418 30.6688 18.8307 30.6688 18.6935V18.1555C30.6688 18.0183 30.7782 17.9072 30.9128 17.9072H31.9306C32.0654 17.9072 32.1748 18.0183 32.1748 18.1555V18.6935C32.1748 18.8307 32.2839 18.9418 32.4189 18.9418H34.4474C34.5823 18.9418 34.6914 18.8307 34.6914 18.6935V17.6312C34.6914 17.494 34.5823 17.383 34.4474 17.383H33.4232C33.2883 17.383 33.179 17.494 33.179 17.6312V17.6586C33.179 17.7958 33.2883 17.9069 33.4232 17.9069H33.9391C34.0739 17.9069 34.1831 18.0179 34.1831 18.1551V18.1821C34.1831 18.3193 34.0739 18.4304 33.9391 18.4304H32.9213C32.7865 18.4304 32.6773 18.3193 32.6773 18.1821V17.6311C32.6773 17.4939 32.568 17.3828 32.4332 17.3828H30.4113C30.2765 17.3828 30.1672 17.4939 30.1672 17.6311V18.6933C30.1673 18.8303 30.2767 18.9418 30.4113 18.9418ZM31.4156 18.9418H31.4291C31.5639 18.9418 31.6731 18.8307 31.6731 18.6935V18.6794C31.6731 18.5422 31.5639 18.4311 31.4291 18.4311H31.4156C31.2807 18.4311 31.1714 18.5424 31.1714 18.6794V18.6935C31.1714 18.8303 31.2807 18.9418 31.4156 18.9418ZM30.4113 16.8589H36.4559C36.5907 16.8589 36.6999 16.7478 36.6999 16.6106V16.5834C36.6999 16.4463 36.5907 16.3352 36.4559 16.3352H30.4113C30.2765 16.3352 30.1672 16.4463 30.1672 16.5834V16.6106C30.1673 16.7478 30.2767 16.8589 30.4113 16.8589ZM36.4561 18.9418H35.4318C35.297 18.9418 35.1878 18.8307 35.1878 18.6935V17.6312C35.1878 17.494 35.297 17.383 35.4318 17.383H36.9648C37.0996 17.383 37.209 17.2717 37.209 17.1347V16.5836C37.209 16.4464 37.3181 16.3354 37.4529 16.3354H37.4666C37.6015 16.3354 37.7106 16.4464 37.7106 16.5836V18.1827C37.7106 18.3199 37.8198 18.4309 37.9546 18.4309H37.962C38.0968 18.4309 38.2062 18.3199 38.2062 18.1827V16.5836C38.2062 16.4464 38.3153 16.3354 38.4501 16.3354H38.4705C38.6054 16.3354 38.7145 16.4464 38.7145 16.5836V18.1827C38.7145 18.3199 38.8237 18.4309 38.9585 18.4309H38.9724C39.1072 18.4309 39.2164 18.3199 39.2164 18.1827V16.5836C39.2164 16.4464 39.3257 16.3354 39.4605 16.3354H39.4741C39.6089 16.3354 39.7181 16.4464 39.7181 16.5836V18.6937C39.7181 18.8309 39.6089 18.942 39.4741 18.942H37.4524C37.3176 18.942 37.2084 18.8309 37.2084 18.6937V18.1557C37.2084 18.0185 37.0993 17.9074 36.9643 17.9074H35.94C35.8052 17.9074 35.6958 18.0185 35.6958 18.1557V18.1827C35.6958 18.3199 35.8052 18.4309 35.94 18.4309H36.4559C36.5907 18.4309 36.6999 18.5422 36.6999 18.6792V18.6933C36.7001 18.8303 36.5909 18.9418 36.4561 18.9418Z" fill="#F5F5F5"/>
<path d="M40.4648 18.9418H40.4787C40.6135 18.9418 40.7226 18.8307 40.7226 18.6935V18.1555C40.7226 18.0183 40.8318 17.9072 40.9666 17.9072H41.9844C42.1192 17.9072 42.2284 18.0183 42.2284 18.1555V18.6935C42.2284 18.8307 42.3377 18.9418 42.4725 18.9418H44.501C44.6359 18.9418 44.745 18.8307 44.745 18.6935V17.6312C44.745 17.494 44.6359 17.383 44.501 17.383H43.4768C43.342 17.383 43.2326 17.494 43.2326 17.6312V17.6586C43.2326 17.7958 43.342 17.9069 43.4768 17.9069H43.9988C44.1337 17.9069 44.2428 18.0179 44.2428 18.1551V18.1821C44.2428 18.3193 44.1335 18.4304 43.9988 18.4304H42.9811C42.8462 18.4304 42.7371 18.3193 42.7371 18.1821V17.6311C42.7371 17.4939 42.6279 17.3828 42.4929 17.3828H40.4644C40.3296 17.3828 40.2203 17.4939 40.2203 17.6311V18.6933C40.2208 18.8303 40.3299 18.9418 40.4648 18.9418ZM41.4755 18.9418H41.4829C41.6177 18.9418 41.7271 18.8307 41.7271 18.6935V18.6794C41.7271 18.5422 41.6177 18.4311 41.4829 18.4311H41.4755C41.3407 18.4311 41.2315 18.5424 41.2315 18.6794V18.6935C41.2313 18.8303 41.3407 18.9418 41.4755 18.9418ZM40.4648 16.8589H46.516C46.6509 16.8589 46.76 16.7478 46.76 16.6106V16.5834C46.76 16.4463 46.6507 16.3352 46.516 16.3352H40.4648C40.3299 16.3352 40.2206 16.4463 40.2206 16.5834V16.6106C40.2208 16.7478 40.3299 16.8589 40.4648 16.8589ZM46.5162 18.9418H45.4919C45.3571 18.9418 45.2479 18.8307 45.2479 18.6935V17.6312C45.2479 17.494 45.3571 17.383 45.4919 17.383H47.0184C47.1532 17.383 47.2624 17.2717 47.2624 17.1347V16.5836C47.2624 16.4464 47.3717 16.3354 47.5066 16.3354H47.5201C47.6549 16.3354 47.7641 16.4464 47.7641 16.5836V18.1827C47.7641 18.3199 47.8734 18.4309 48.0081 18.4309H48.0219C48.1568 18.4309 48.2659 18.3199 48.2659 18.1827V16.5836C48.2659 16.4464 48.3753 16.3354 48.5101 16.3354H48.5236C48.6584 16.3354 48.7676 16.4464 48.7676 16.5836V18.1827C48.7676 18.3199 48.8769 18.4309 49.0116 18.4309H49.0251C49.1599 18.4309 49.2691 18.3199 49.2691 18.1827V16.5836C49.2691 16.4464 49.3784 16.3354 49.5133 16.3354H49.5272C49.662 16.3354 49.7713 16.4464 49.7713 16.5836V18.6937C49.7713 18.8309 49.662 18.942 49.5272 18.942H47.5053C47.3705 18.942 47.2612 18.8309 47.2612 18.6937V18.1557C47.2612 18.0185 47.152 17.9074 47.0172 17.9074H45.9929C45.8581 17.9074 45.7487 18.0185 45.7487 18.1557V18.1827C45.7487 18.3199 45.8581 18.4309 45.9929 18.4309H46.515C46.6498 18.4309 46.759 18.5422 46.759 18.6792V18.6933C46.7602 18.8303 46.651 18.9418 46.5162 18.9418Z" fill="#F5F5F5"/>
<path d="M50.5186 18.9418H50.5324C50.6673 18.9418 50.7766 18.8307 50.7766 18.6935V18.1555C50.7766 18.0183 50.8858 17.9072 51.0208 17.9072H52.0385C52.1734 17.9072 52.2827 18.0183 52.2827 18.1555V18.6935C52.2827 18.8307 52.392 18.9418 52.5267 18.9418H54.5552C54.69 18.9418 54.7993 18.8307 54.7993 18.6935V17.6312C54.7993 17.494 54.6902 17.383 54.5552 17.383H53.5371C53.4022 17.383 53.2931 17.494 53.2931 17.6312V17.6586C53.2931 17.7958 53.4022 17.9069 53.5371 17.9069H54.0468C54.1817 17.9069 54.291 18.0179 54.291 18.1551V18.1821C54.291 18.3193 54.1817 18.4304 54.0468 18.4304H53.0354C52.9006 18.4304 52.7912 18.3193 52.7912 18.1821V17.6311C52.7912 17.4939 52.6821 17.3828 52.5472 17.3828H50.5187C50.3839 17.3828 50.2746 17.4939 50.2746 17.6311V18.6933C50.2744 18.8303 50.3837 18.9418 50.5186 18.9418ZM51.5291 18.9418H51.5365C51.6713 18.9418 51.7807 18.8307 51.7807 18.6935V18.6794C51.7807 18.5422 51.6713 18.4311 51.5365 18.4311H51.5291C51.3943 18.4311 51.2851 18.5424 51.2851 18.6794V18.6935C51.2851 18.8303 51.3943 18.9418 51.5291 18.9418ZM50.5186 16.8589H56.5698C56.7046 16.8589 56.8138 16.7478 56.8138 16.6106V16.5834C56.8138 16.4463 56.7045 16.3352 56.5698 16.3352H50.5186C50.3837 16.3352 50.2744 16.4463 50.2744 16.5834V16.6106C50.2744 16.7478 50.3837 16.8589 50.5186 16.8589ZM56.5698 18.9418H55.552C55.4172 18.9418 55.3081 18.8307 55.3081 18.6935V17.6312C55.3081 17.494 55.4172 17.383 55.552 17.383H57.0718C57.2067 17.383 57.3158 17.2717 57.3158 17.1347V16.5836C57.3158 16.4464 57.4252 16.3354 57.56 16.3354H57.5739C57.7087 16.3354 57.8179 16.4464 57.8179 16.5836V18.1827C57.8179 18.3199 57.927 18.4309 58.062 18.4309H58.0756C58.2104 18.4309 58.3197 18.3199 58.3197 18.1827V16.5836C58.3197 16.4464 58.4289 16.3354 58.5639 16.3354H58.5778C58.7126 16.3354 58.8219 16.4464 58.8219 16.5836V18.1827C58.8219 18.3199 58.9311 18.4309 59.0659 18.4309H59.0796C59.2144 18.4309 59.3236 18.3199 59.3236 18.1827V16.5836C59.3236 16.4464 59.4329 16.3354 59.5678 16.3354H59.5816C59.7165 16.3354 59.8258 16.4464 59.8258 16.5836V18.6937C59.8258 18.8309 59.7165 18.942 59.5816 18.942H57.5593C57.4245 18.942 57.3151 18.8309 57.3151 18.6937V18.1557C57.3151 18.0185 57.206 17.9074 57.0711 17.9074H56.047C55.9122 17.9074 55.8029 18.0185 55.8029 18.1557V18.1827C55.8029 18.3199 55.9122 18.4309 56.047 18.4309H56.5691C56.7039 18.4309 56.8131 18.5422 56.8131 18.6792V18.6933C56.814 18.8303 56.7045 18.9418 56.5698 18.9418Z" fill="#F5F5F5"/>
<path d="M60.5722 18.9418H60.5861C60.7209 18.9418 60.8302 18.8307 60.8302 18.6935V18.1555C60.8302 18.0183 60.9394 17.9072 61.0742 17.9072H62.0983C62.2331 17.9072 62.3425 18.0183 62.3425 18.1555V18.6935C62.3425 18.8307 62.4516 18.9418 62.5864 18.9418H64.6088C64.7436 18.9418 64.8528 18.8307 64.8528 18.6935V17.6312C64.8528 17.494 64.7436 17.383 64.6088 17.383H63.5907C63.4559 17.383 63.3465 17.494 63.3465 17.6312V17.6586C63.3465 17.7958 63.4557 17.9069 63.5907 17.9069H64.1133C64.2481 17.9069 64.3573 18.0179 64.3573 18.1551V18.1821C64.3573 18.3193 64.2481 18.4304 64.1133 18.4304H63.0823C62.9475 18.4304 62.8383 18.3193 62.8383 18.1821V17.6311C62.8383 17.4939 62.729 17.3828 62.5942 17.3828H60.5723C60.4375 17.3828 60.3282 17.4939 60.3282 17.6311V18.6933C60.328 18.8303 60.4373 18.9418 60.5722 18.9418ZM61.5764 18.9418H61.5968C61.7316 18.9418 61.8408 18.8307 61.8408 18.6935V18.6794C61.8408 18.5422 61.7316 18.4311 61.5968 18.4311H61.5764C61.4416 18.4311 61.3324 18.5424 61.3324 18.6794V18.6935C61.3322 18.8303 61.4416 18.9418 61.5764 18.9418ZM60.5722 16.8589H66.6233C66.7581 16.8589 66.8674 16.7478 66.8674 16.6106V16.5834C66.8674 16.4463 66.7583 16.3352 66.6233 16.3352H60.5722C60.4373 16.3352 60.328 16.4463 60.328 16.5834V16.6106C60.328 16.7478 60.4373 16.8589 60.5722 16.8589ZM66.6236 18.9418H65.6058C65.471 18.9418 65.3617 18.8307 65.3617 18.6935V17.6312C65.3617 17.494 65.4708 17.383 65.6058 17.383H67.1256C67.2605 17.383 67.3698 17.2717 67.3698 17.1347V16.5836C67.3698 16.4464 67.479 16.3354 67.614 16.3354H67.6278C67.7627 16.3354 67.872 16.4464 67.872 16.5836V18.1827C67.872 18.3199 67.9812 18.4309 68.116 18.4309H68.1295C68.2643 18.4309 68.3737 18.3199 68.3737 18.1827V16.5836C68.3737 16.4464 68.483 16.3354 68.6178 16.3354H68.6317C68.7665 16.3354 68.8759 16.4464 68.8759 16.5836V18.1827C68.8759 18.3199 68.985 18.4309 69.12 18.4309H69.1403C69.2751 18.4309 69.3842 18.3199 69.3842 18.1827V16.5836C69.3842 16.4464 69.4936 16.3354 69.6284 16.3354H69.6354C69.7703 16.3354 69.8796 16.4464 69.8796 16.5836V18.6937C69.8796 18.8309 69.7703 18.942 69.6354 18.942H67.6136C67.4788 18.942 67.3694 18.8309 67.3694 18.6937V18.1557C67.3694 18.0185 67.2603 17.9074 67.1253 17.9074H66.1138C65.979 17.9074 65.8697 18.0185 65.8697 18.1557V18.1827C65.8697 18.3199 65.9788 18.4309 66.1138 18.4309H66.6234C66.7583 18.4309 66.8676 18.5422 66.8676 18.6792V18.6933C66.8676 18.8303 66.7584 18.9418 66.6236 18.9418Z" fill="#F5F5F5"/>
<path d="M70.6323 18.9418H70.6397C70.7745 18.9418 70.8838 18.8307 70.8838 18.6935V18.1555C70.8838 18.0183 70.993 17.9072 71.128 17.9072H72.1461C72.2809 17.9072 72.3903 18.0183 72.3903 18.1555V18.6935C72.3903 18.8307 72.4994 18.9418 72.6343 18.9418H74.6624C74.7972 18.9418 74.9066 18.8307 74.9066 18.6935V17.6312C74.9066 17.494 74.7972 17.383 74.6624 17.383H73.6513C73.5165 17.383 73.4072 17.494 73.4072 17.6312V17.6586C73.4072 17.7958 73.5165 17.9069 73.6513 17.9069H74.1669C74.3017 17.9069 74.411 18.0179 74.411 18.1551V18.1821C74.411 18.3193 74.3019 18.4304 74.1669 18.4304H73.143C73.0081 18.4304 72.8988 18.3193 72.8988 18.1821V17.6311C72.8988 17.4939 72.7896 17.3828 72.6547 17.3828H70.6323C70.4975 17.3828 70.3881 17.4939 70.3881 17.6311V18.6933C70.388 18.8303 70.4975 18.9418 70.6323 18.9418ZM71.6364 18.9418H71.6502C71.7851 18.9418 71.8942 18.8307 71.8942 18.6935V18.6794C71.8942 18.5422 71.7851 18.4311 71.6502 18.4311H71.6364C71.5015 18.4311 71.3924 18.5424 71.3924 18.6794V18.6935C71.3922 18.8303 71.5014 18.9418 71.6364 18.9418ZM70.6323 16.8589H76.6901C76.8249 16.8589 76.9342 16.7478 76.9342 16.6106V16.5834C76.9342 16.4463 76.8251 16.3352 76.6901 16.3352H70.6323C70.4975 16.3352 70.3881 16.4463 70.3881 16.5834V16.6106C70.388 16.7478 70.4975 16.8589 70.6323 16.8589ZM76.6899 18.9418H75.6589C75.5241 18.9418 75.4148 18.8307 75.4148 18.6935V17.6312C75.4148 17.494 75.5241 17.383 75.6589 17.383H77.1789C77.3137 17.383 77.4231 17.2717 77.4231 17.1347V16.5836C77.4231 16.4464 77.5324 16.3354 77.6672 16.3354H77.6874C77.8223 16.3354 77.9314 16.4464 77.9314 16.5836V18.1827C77.9314 18.3199 78.0408 18.4309 78.1756 18.4309H78.1891C78.3239 18.4309 78.4333 18.3199 78.4333 18.1827V16.5836C78.4333 16.4464 78.5424 16.3354 78.6773 16.3354H78.6846C78.8195 16.3354 78.9288 16.4464 78.9288 16.5836V18.1827C78.9288 18.3199 79.038 18.4309 79.173 18.4309H79.1932C79.328 18.4309 79.4372 18.3199 79.4372 18.1827V16.5836C79.4372 16.4464 79.5463 16.3354 79.6813 16.3354H79.6952C79.83 16.3354 79.9394 16.4464 79.9394 16.5836V18.6937C79.9394 18.8309 79.8302 18.942 79.6952 18.942H77.6667C77.5319 18.942 77.4225 18.8309 77.4225 18.6937V18.1557C77.4225 18.0185 77.3134 17.9074 77.1784 17.9074H76.1606C76.0258 17.9074 75.9164 18.0185 75.9164 18.1557V18.1827C75.9164 18.3199 76.0256 18.4309 76.1606 18.4309H76.6894C76.8242 18.4309 76.9335 18.5422 76.9335 18.6792V18.6933C76.9342 18.8303 76.8247 18.9418 76.6899 18.9418Z" fill="#F5F5F5"/>
<path d="M80.6857 18.9418H80.6996C80.8344 18.9418 80.9438 18.8307 80.9438 18.6935V18.1555C80.9438 18.0183 81.0529 17.9072 81.1879 17.9072H82.2057C82.3405 17.9072 82.4499 18.0183 82.4499 18.1555V18.6935C82.4499 18.8307 82.559 18.9418 82.694 18.9418H84.7225C84.8574 18.9418 84.9667 18.8307 84.9667 18.6935V17.6312C84.9667 17.494 84.8575 17.383 84.7225 17.383H83.7111C83.5763 17.383 83.4671 17.494 83.4671 17.6312V17.6586C83.4671 17.7958 83.5764 17.9069 83.7111 17.9069H84.227C84.3618 17.9069 84.471 18.0179 84.471 18.1551V18.1821C84.471 18.3193 84.3617 18.4304 84.227 18.4304H83.1961C83.0612 18.4304 82.9519 18.3193 82.9519 18.1821V17.6311C82.9519 17.4939 82.8427 17.3828 82.7079 17.3828H80.6861C80.5513 17.3828 80.4419 17.4939 80.4419 17.6311V18.6933C80.4417 18.8303 80.5511 18.9418 80.6857 18.9418ZM81.69 18.9418H81.7038C81.8387 18.9418 81.948 18.8307 81.948 18.6935V18.6794C81.948 18.5422 81.8389 18.4311 81.7038 18.4311H81.69C81.5551 18.4311 81.446 18.5424 81.446 18.6794V18.6935C81.446 18.8303 81.5551 18.9418 81.69 18.9418ZM80.6857 16.8589H86.7305C86.8653 16.8589 86.9746 16.7478 86.9746 16.6106V16.5834C86.9746 16.4463 86.8655 16.3352 86.7305 16.3352H80.6857C80.5509 16.3352 80.4416 16.4463 80.4416 16.5834V16.6106C80.4417 16.7478 80.5511 16.8589 80.6857 16.8589ZM86.7305 18.9418H85.7127C85.5779 18.9418 85.4686 18.8307 85.4686 18.6935V17.6312C85.4686 17.494 85.5777 17.383 85.7127 17.383H87.2457C87.3805 17.383 87.4899 17.2717 87.4899 17.1347V16.5836C87.4899 16.4464 87.599 16.3354 87.7338 16.3354H87.7345C87.8694 16.3354 87.9787 16.4464 87.9787 16.5836V18.1827C87.9787 18.3199 88.0879 18.4309 88.2227 18.4309H88.2494C88.3842 18.4309 88.4936 18.3199 88.4936 18.1827V16.5836C88.4936 16.4464 88.6027 16.3354 88.7377 16.3354H88.7384C88.8733 16.3354 88.9826 16.4464 88.9826 16.5836V18.1827C88.9826 18.3199 89.0919 18.4309 89.2267 18.4309H89.2406C89.3755 18.4309 89.4848 18.3199 89.4848 18.1827V16.5836C89.4848 16.4464 89.5941 16.3354 89.729 16.3354H89.7555C89.8903 16.3354 89.9997 16.4464 89.9997 16.5836V18.6937C89.9997 18.8309 89.8903 18.942 89.7555 18.942H87.7337C87.5988 18.942 87.4897 18.8309 87.4897 18.6937V18.1557C87.4897 18.0185 87.3803 17.9074 87.2455 17.9074H86.2147C86.0799 17.9074 85.9708 18.0185 85.9708 18.1557V18.1827C85.9708 18.3199 86.0799 18.4309 86.2147 18.4309H86.7303C86.8651 18.4309 86.9745 18.5422 86.9745 18.6792V18.6933C86.9746 18.8303 86.8653 18.9418 86.7305 18.9418Z" fill="#F5F5F5"/>
<path d="M0.243984 20.5263H4.28044C4.41527 20.5263 4.52443 20.4153 4.52443 20.2781V19.727C4.52443 19.5898 4.41527 19.4787 4.28044 19.4787H0.243984C0.10916 19.4787 0 19.59 0 19.727V20.2781C0 20.4153 0.10916 20.5263 0.243984 20.5263ZM5.27729 20.5263H9.30742C9.44225 20.5263 9.55141 20.4153 9.55141 20.2781V19.727C9.55141 19.5898 9.44225 19.4787 9.30742 19.4787H5.27729C5.14247 19.4787 5.03313 19.59 5.03313 19.727V20.2781C5.03296 20.4153 5.14247 20.5263 5.27729 20.5263Z" fill="#F5F5F5"/>
<path d="M10.3039 20.5263H14.3341C14.4689 20.5263 14.578 20.4153 14.578 20.2781V19.727C14.578 19.5898 14.4689 19.4787 14.3341 19.4787H10.3039C10.1691 19.4787 10.0599 19.59 10.0599 19.727V20.2781C10.0599 20.4153 10.1693 20.5263 10.3039 20.5263ZM15.3244 20.5263H19.3674C19.5022 20.5263 19.6114 20.4153 19.6114 20.2781V19.727C19.6114 19.5898 19.5022 19.4787 19.3674 19.4787H15.3244C15.1896 19.4787 15.0802 19.59 15.0802 19.727V20.2781C15.0802 20.4153 15.1896 20.5263 15.3244 20.5263Z" fill="#F5F5F5"/>
<path d="M20.3579 20.5263H24.3943C24.5292 20.5263 24.6385 20.4153 24.6385 20.2781V19.727C24.6385 19.5898 24.5293 19.4787 24.3943 19.4787H20.3579C20.2231 19.4787 20.1139 19.59 20.1139 19.727V20.2781C20.1136 20.4153 20.2231 20.5263 20.3579 20.5263ZM25.3845 20.5263H29.421C29.5558 20.5263 29.665 20.4153 29.665 20.2781V19.727C29.665 19.5898 29.5556 19.4787 29.421 19.4787H25.3845C25.2497 19.4787 25.1404 19.59 25.1404 19.727V20.2781C25.1404 20.4153 25.2499 20.5263 25.3845 20.5263Z" fill="#F5F5F5"/>
<path d="M30.4113 20.5263H34.4478C34.5826 20.5263 34.6918 20.4153 34.6918 20.2781V19.727C34.6918 19.5898 34.5826 19.4787 34.4478 19.4787H30.4113C30.2765 19.4787 30.1672 19.59 30.1672 19.727V20.2781C30.1673 20.4153 30.2767 20.5263 30.4113 20.5263ZM35.4318 20.5263H39.4748C39.6096 20.5263 39.7188 20.4153 39.7188 20.2781V19.727C39.7188 19.5898 39.6096 19.4787 39.4748 19.4787H35.4318C35.297 19.4787 35.1878 19.59 35.1878 19.727V20.2781C35.1876 20.4153 35.2968 20.5263 35.4318 20.5263Z" fill="#F5F5F5"/>
<path d="M40.4648 20.5263H44.5016C44.6364 20.5263 44.7456 20.4153 44.7456 20.2781V19.727C44.7456 19.5898 44.6364 19.4787 44.5016 19.4787H40.4648C40.3299 19.4787 40.2206 19.59 40.2206 19.727V20.2781C40.2208 20.4153 40.3299 20.5263 40.4648 20.5263ZM45.4916 20.5263H49.5284C49.6632 20.5263 49.7725 20.4153 49.7725 20.2781V19.727C49.7725 19.5898 49.6632 19.4787 49.5284 19.4787H45.4916C45.3568 19.4787 45.2476 19.59 45.2476 19.727V20.2781C45.2476 20.4153 45.3568 20.5263 45.4916 20.5263Z" fill="#F5F5F5"/>
<path d="M50.5186 20.5263H54.5554C54.6902 20.5263 54.7995 20.4153 54.7995 20.2781V19.727C54.7995 19.5898 54.6904 19.4787 54.5554 19.4787H50.5186C50.3837 19.4787 50.2744 19.59 50.2744 19.727V20.2781C50.2744 20.4153 50.3837 20.5263 50.5186 20.5263ZM55.552 20.5263H59.5822C59.717 20.5263 59.8263 20.4153 59.8263 20.2781V19.727C59.8263 19.5898 59.717 19.4787 59.5822 19.4787H55.552C55.4172 19.4787 55.3081 19.59 55.3081 19.727V20.2781C55.3079 20.4153 55.4172 20.5263 55.552 20.5263Z" fill="#F5F5F5"/>
<path d="M60.5722 20.5263H64.609C64.7438 20.5263 64.853 20.4153 64.853 20.2781V19.727C64.853 19.5898 64.7438 19.4787 64.609 19.4787H60.5722C60.4373 19.4787 60.328 19.59 60.328 19.727V20.2781C60.328 20.4153 60.4373 20.5263 60.5722 20.5263ZM65.6057 20.5263H69.6354C69.7703 20.5263 69.8796 20.4153 69.8796 20.2781V19.727C69.8796 19.5898 69.7703 19.4787 69.6354 19.4787H65.6057C65.4708 19.4787 65.3615 19.59 65.3615 19.727V20.2781C65.3617 20.4153 65.4708 20.5263 65.6057 20.5263Z" fill="#F5F5F5"/>
<path d="M70.6323 20.5263H74.6624C74.7972 20.5263 74.9066 20.4153 74.9066 20.2781V19.727C74.9066 19.5898 74.7972 19.4787 74.6624 19.4787H70.6323C70.4975 19.4787 70.3881 19.59 70.3881 19.727V20.2781C70.388 20.4153 70.4975 20.5263 70.6323 20.5263ZM75.6591 20.5263H79.6959C79.8307 20.5263 79.9401 20.4153 79.9401 20.2781V19.727C79.9401 19.5898 79.8309 19.4787 79.6959 19.4787H75.6591C75.5243 19.4787 75.4149 19.59 75.4149 19.727V20.2781C75.4148 20.4153 75.5243 20.5263 75.6591 20.5263Z" fill="#F5F5F5"/>
<path d="M80.6857 20.5263H84.7225C84.8574 20.5263 84.9667 20.4153 84.9667 20.2781V19.727C84.9667 19.5898 84.8575 19.4787 84.7225 19.4787H80.6857C80.5509 19.4787 80.4416 19.59 80.4416 19.727V20.2781C80.4417 20.4153 80.5511 20.5263 80.6857 20.5263ZM85.7129 20.5263H89.7559C89.8907 20.5263 90 20.4153 90 20.2781V19.727C90 19.5898 89.8907 19.4787 89.7559 19.4787H85.7129C85.5781 19.4787 85.4687 19.59 85.4687 19.727V20.2781C85.4686 20.4153 85.5779 20.5263 85.7129 20.5263Z" fill="#F5F5F5"/>
<path d="M89.7557 41.0584H89.7421C89.6073 41.0584 89.4982 41.1695 89.4982 41.3067V41.8447C89.4982 41.9819 89.3888 42.0931 89.254 42.0931H88.2297C88.0949 42.0931 87.9856 41.9819 87.9856 41.8447V41.3067C87.9856 41.1695 87.8764 41.0584 87.7414 41.0584H85.7196C85.5847 41.0584 85.4756 41.1695 85.4756 41.3067V42.3689C85.4756 42.5061 85.5847 42.6174 85.7196 42.6174H86.7373C86.8722 42.6174 86.9813 42.5061 86.9813 42.3689V42.3418C86.9813 42.2046 86.8722 42.0935 86.7373 42.0935H86.2214C86.0866 42.0935 85.9773 41.9822 85.9773 41.8451V41.818C85.9773 41.6809 86.0866 41.5698 86.2214 41.5698H87.2395C87.3744 41.5698 87.4835 41.6809 87.4835 41.818V42.3691C87.4835 42.5063 87.5929 42.6176 87.7277 42.6176H89.7559C89.8907 42.6176 90 42.5063 90 42.3691V41.3068C89.9998 41.1697 89.8905 41.0584 89.7557 41.0584ZM88.7453 41.0584H88.7314C88.5966 41.0584 88.4872 41.1695 88.4872 41.3067V41.3208C88.4872 41.458 88.5964 41.5692 88.7314 41.5692H88.7453C88.8801 41.5692 88.9894 41.458 88.9894 41.3208V41.3067C88.9894 41.1697 88.8801 41.0584 88.7453 41.0584ZM89.7557 43.1411H83.7048C83.5699 43.1411 83.4606 43.2522 83.4606 43.3894V43.4167C83.4606 43.5539 83.5699 43.665 83.7048 43.665H89.7557C89.8905 43.665 89.9998 43.5537 89.9998 43.4167V43.3894C89.9998 43.2524 89.8905 43.1411 89.7557 43.1411ZM83.7049 41.0584H84.7227C84.8575 41.0584 84.9669 41.1695 84.9669 41.3067V42.3689C84.9669 42.5061 84.8577 42.6174 84.7227 42.6174H83.2027C83.0679 42.6174 82.9587 42.7285 82.9587 42.8657V43.4167C82.9587 43.5539 82.8494 43.665 82.7146 43.665H82.7011C82.5662 43.665 82.4569 43.5537 82.4569 43.4167V41.8177C82.4569 41.6805 82.3477 41.5694 82.2129 41.5694H82.199C82.0642 41.5694 81.9549 41.6805 81.9549 41.8177V43.4167C81.9549 43.5539 81.8455 43.665 81.7109 43.665H81.6972C81.5623 43.665 81.453 43.5537 81.453 43.4167V41.8177C81.453 41.6805 81.3439 41.5694 81.2089 41.5694H81.1886C81.0538 41.5694 80.9445 41.6805 80.9445 41.8177V43.4167C80.9445 43.5539 80.8353 43.665 80.7003 43.665H80.6929C80.5581 43.665 80.449 43.5537 80.449 43.4167V41.3067C80.449 41.1695 80.5581 41.0584 80.6929 41.0584H82.7148C82.8496 41.0584 82.9589 41.1695 82.9589 41.3067V41.8447C82.9589 41.9819 83.0681 42.0931 83.2029 42.0931H84.2207C84.3555 42.0931 84.4647 41.9819 84.4647 41.8447V41.8177C84.4647 41.6805 84.3555 41.5694 84.2207 41.5694H83.7051C83.5703 41.5694 83.461 41.4582 83.461 41.321V41.3068C83.4606 41.1697 83.5701 41.0584 83.7049 41.0584Z" fill="#F5F5F5"/>
<path d="M79.6959 41.0584H79.6757C79.5409 41.0584 79.4317 41.1695 79.4317 41.3067V41.8447C79.4317 41.9819 79.3224 42.0931 79.1875 42.0931H78.1761C78.0413 42.0931 77.9319 41.9819 77.9319 41.8447V41.3067C77.9319 41.1695 77.8228 41.0584 77.688 41.0584H75.6661C75.5313 41.0584 75.422 41.1695 75.422 41.3067V42.3689C75.422 42.5061 75.5313 42.6174 75.6661 42.6174H76.6839C76.8187 42.6174 76.9281 42.5061 76.9281 42.3689V42.3418C76.9281 42.2046 76.8187 42.0935 76.6839 42.0935H76.168C76.0332 42.0935 75.924 41.9822 75.924 41.8451V41.818C75.924 41.6809 76.0332 41.5698 76.168 41.5698H77.1861C77.3209 41.5698 77.4301 41.6809 77.4301 41.818V42.3691C77.4301 42.5063 77.5394 42.6176 77.6743 42.6176H79.6961C79.8309 42.6176 79.9402 42.5063 79.9402 42.3691V41.3068C79.9399 41.1697 79.8306 41.0584 79.6959 41.0584ZM78.6917 41.0584H78.6781C78.5433 41.0584 78.434 41.1695 78.434 41.3067V41.3208C78.434 41.458 78.5433 41.5692 78.6781 41.5692H78.6917C78.8265 41.5692 78.9358 41.458 78.9358 41.3208V41.3067C78.9357 41.1697 78.8265 41.0584 78.6917 41.0584ZM79.6959 43.1411H73.6513C73.5165 43.1411 73.4072 43.2522 73.4072 43.3894V43.4167C73.4072 43.5539 73.5165 43.665 73.6513 43.665H79.6959C79.8307 43.665 79.9401 43.5537 79.9401 43.4167V43.3894C79.9399 43.2524 79.8306 43.1411 79.6959 43.1411ZM73.6511 41.0584H74.6754C74.8103 41.0584 74.9196 41.1695 74.9196 41.3067V42.3689C74.9196 42.5061 74.8103 42.6174 74.6754 42.6174H73.1554C73.0206 42.6174 72.9113 42.7285 72.9113 42.8657V43.4167C72.9113 43.5539 72.8021 43.665 72.6671 43.665H72.6469C72.5121 43.665 72.4028 43.5537 72.4028 43.4167V41.8177C72.4028 41.6805 72.2934 41.5694 72.1586 41.5694H72.1384C72.0036 41.5694 71.8942 41.6805 71.8942 41.8177V43.4167C71.8942 43.5539 71.7851 43.665 71.6502 43.665H71.6429C71.508 43.665 71.3989 43.5537 71.3989 43.4167V41.8177C71.3989 41.6805 71.2895 41.5694 71.1547 41.5694H71.1345C70.9997 41.5694 70.8903 41.6805 70.8903 41.8177V43.4167C70.8903 43.5539 70.7812 43.665 70.6464 43.665H70.6326C70.4978 43.665 70.3887 43.5537 70.3887 43.4167V41.3067C70.3887 41.1695 70.498 41.0584 70.6326 41.0584H72.6673C72.8021 41.0584 72.9115 41.1695 72.9115 41.3067V41.8447C72.9115 41.9819 73.0206 42.0931 73.1556 42.0931H74.1671C74.3019 42.0931 74.4112 41.9819 74.4112 41.8447V41.8177C74.4112 41.6805 74.3021 41.5694 74.1671 41.5694H73.6511C73.5163 41.5694 73.407 41.4582 73.407 41.321V41.3068C73.407 41.1697 73.5163 41.0584 73.6511 41.0584Z" fill="#F5F5F5"/>
<path d="M69.6419 41.0584H69.6284C69.4936 41.0584 69.3842 41.1695 69.3842 41.3067V41.8447C69.3842 41.9819 69.2751 42.0931 69.1403 42.0931H68.1221C67.9873 42.0931 67.878 41.9819 67.878 41.8447V41.3067C67.878 41.1695 67.7686 41.0584 67.6338 41.0584H65.6057C65.4708 41.0584 65.3615 41.1695 65.3615 41.3067V42.3689C65.3615 42.5061 65.4707 42.6174 65.6057 42.6174H66.6234C66.7583 42.6174 66.8676 42.5061 66.8676 42.3689V42.3418C66.8676 42.2046 66.7584 42.0935 66.6234 42.0935H66.1075C65.9727 42.0935 65.8634 41.9822 65.8634 41.8451V41.818C65.8634 41.6809 65.9727 41.5698 66.1075 41.5698H67.1318C67.2666 41.5698 67.376 41.6809 67.376 41.818V42.3691C67.376 42.5063 67.4851 42.6176 67.6199 42.6176H69.6418C69.7766 42.6176 69.8859 42.5063 69.8859 42.3691V41.3068C69.8863 41.1697 69.7768 41.0584 69.6419 41.0584ZM68.6379 41.0584H68.6243C68.4895 41.0584 68.3802 41.1695 68.3802 41.3067V41.3208C68.3802 41.458 68.4895 41.5692 68.6243 41.5692H68.6379C68.7727 41.5692 68.8819 41.458 68.8819 41.3208V41.3067C68.882 41.1697 68.7729 41.0584 68.6379 41.0584ZM69.6419 43.1411H63.5909C63.456 43.1411 63.3467 43.2522 63.3467 43.3894V43.4167C63.3467 43.5539 63.4559 43.665 63.5909 43.665H69.6419C69.7768 43.665 69.8861 43.5537 69.8861 43.4167V43.3894C69.8863 43.2524 69.7768 43.1411 69.6419 43.1411ZM63.5909 41.0584H64.6151C64.75 41.0584 64.8593 41.1695 64.8593 41.3067V42.3689C64.8593 42.5061 64.75 42.6174 64.6151 42.6174H63.0953C62.9605 42.6174 62.8513 42.7285 62.8513 42.8657V43.4167C62.8513 43.5539 62.742 43.665 62.6072 43.665H62.5933C62.4585 43.665 62.3493 43.5537 62.3493 43.4167V41.8177C62.3493 41.6805 62.24 41.5694 62.1052 41.5694H62.0849C61.9501 41.5694 61.8408 41.6805 61.8408 41.8177V43.4167C61.8408 43.5539 61.7316 43.665 61.5968 43.665H61.5764C61.4416 43.665 61.3324 43.5537 61.3324 43.4167V41.8177C61.3324 41.6805 61.2231 41.5694 61.0883 41.5694H61.0809C60.9461 41.5694 60.8367 41.6805 60.8367 41.8177V43.4167C60.8367 43.5539 60.7276 43.665 60.5926 43.665H60.579C60.4442 43.665 60.335 43.5537 60.335 43.4167V41.3067C60.335 41.1695 60.4442 41.0584 60.579 41.0584H62.6075C62.7424 41.0584 62.8517 41.1695 62.8517 41.3067V41.8447C62.8517 41.9819 62.9609 42.0931 63.0957 42.0931H64.1134C64.2483 42.0931 64.3574 41.9819 64.3574 41.8447V41.8177C64.3574 41.6805 64.2483 41.5694 64.1134 41.5694H63.5909C63.456 41.5694 63.3467 41.4582 63.3467 41.321V41.3068C63.3467 41.1697 63.456 41.0584 63.5909 41.0584Z" fill="#F5F5F5"/>
<path d="M59.5885 41.0584H59.575C59.4401 41.0584 59.3308 41.1695 59.3308 41.3067V41.8447C59.3308 41.9819 59.2215 42.0931 59.0868 42.0931H58.069C57.9342 42.0931 57.8251 41.9819 57.8251 41.8447V41.3067C57.8251 41.1695 57.7157 41.0584 57.5809 41.0584H55.5524C55.4176 41.0584 55.3084 41.1695 55.3084 41.3067V42.3689C55.3084 42.5061 55.4176 42.6174 55.5524 42.6174H56.5767C56.7115 42.6174 56.8208 42.5061 56.8208 42.3689V42.3418C56.8208 42.2046 56.7115 42.0935 56.5767 42.0935H56.0608C55.9259 42.0935 55.8168 41.9822 55.8168 41.8451V41.818C55.8168 41.6809 55.9259 41.5698 56.0608 41.5698H57.0785C57.2133 41.5698 57.3225 41.6809 57.3225 41.818V42.3691C57.3225 42.5063 57.4318 42.6176 57.5667 42.6176H59.5885C59.7233 42.6176 59.8327 42.5063 59.8327 42.3691V41.3068C59.8325 41.1697 59.7232 41.0584 59.5885 41.0584ZM58.5843 41.0584H58.5707C58.4359 41.0584 58.3267 41.1695 58.3267 41.3067V41.3208C58.3267 41.458 58.4361 41.5692 58.5707 41.5692H58.5843C58.7191 41.5692 58.8284 41.458 58.8284 41.3208V41.3067C58.8283 41.1697 58.7191 41.0584 58.5843 41.0584ZM59.5885 43.1411H53.5438C53.4089 43.1411 53.2998 43.2522 53.2998 43.3894V43.4167C53.2998 43.5539 53.4089 43.665 53.5438 43.665H59.5885C59.7233 43.665 59.8327 43.5537 59.8327 43.4167V43.3894C59.8325 43.2524 59.7232 43.1411 59.5885 43.1411ZM53.5438 41.0584H54.568C54.7028 41.0584 54.8122 41.1695 54.8122 41.3067V42.3689C54.8122 42.5061 54.7028 42.6174 54.568 42.6174H53.035C52.9002 42.6174 52.7909 42.7285 52.7909 42.8657V43.4167C52.7909 43.5539 52.6817 43.665 52.5469 43.665H52.5334C52.3985 43.665 52.2892 43.5537 52.2892 43.4167V41.8177C52.2892 41.6805 52.1799 41.5694 52.045 41.5694H52.0377C51.9028 41.5694 51.7935 41.6805 51.7935 41.8177V43.4167C51.7935 43.5539 51.6843 43.665 51.5493 43.665H51.5291C51.3943 43.665 51.2851 43.5537 51.2851 43.4167V41.8177C51.2851 41.6805 51.1758 41.5694 51.041 41.5694H51.0271C50.8923 41.5694 50.7831 41.6805 50.7831 41.8177V43.4167C50.7831 43.5539 50.6738 43.665 50.5389 43.665H50.5254C50.3906 43.665 50.2813 43.5537 50.2813 43.4167V41.3067C50.2813 41.1695 50.3906 41.0584 50.5254 41.0584H52.5472C52.6821 41.0584 52.7912 41.1695 52.7912 41.3067V41.8447C52.7912 41.9819 52.9006 42.0931 53.0354 42.0931H54.0597C54.1945 42.0931 54.3038 41.9819 54.3038 41.8447V41.8177C54.3038 41.6805 54.1947 41.5694 54.0597 41.5694H53.5438C53.4089 41.5694 53.2998 41.4582 53.2998 41.321V41.3068C53.2998 41.1697 53.4089 41.0584 53.5438 41.0584Z" fill="#F5F5F5"/>
<path d="M49.5351 41.0584H49.5212C49.3864 41.0584 49.2772 41.1695 49.2772 41.3067V41.8447C49.2772 41.9819 49.168 42.0931 49.0332 42.0931H48.0154C47.8806 42.0931 47.7715 41.9819 47.7715 41.8447V41.3067C47.7715 41.1695 47.6621 41.0584 47.5273 41.0584H45.4988C45.364 41.0584 45.2548 41.1695 45.2548 41.3067V42.3689C45.2548 42.5061 45.364 42.6174 45.4988 42.6174H46.5231C46.6579 42.6174 46.7672 42.5061 46.7672 42.3689V42.3418C46.7672 42.2046 46.6579 42.0935 46.5231 42.0935H46.001C45.8662 42.0935 45.757 41.9822 45.757 41.8451V41.818C45.757 41.6809 45.8663 41.5698 46.001 41.5698H47.0188C47.1536 41.5698 47.2627 41.6809 47.2627 41.818V42.3691C47.2627 42.5063 47.3721 42.6176 47.5069 42.6176H49.5354C49.6702 42.6176 49.7796 42.5063 49.7796 42.3691V41.3068C49.779 41.1697 49.6699 41.0584 49.5351 41.0584ZM48.5243 41.0584H48.5169C48.3821 41.0584 48.2728 41.1695 48.2728 41.3067V41.3208C48.2728 41.458 48.3819 41.5692 48.5169 41.5692H48.5243C48.6591 41.5692 48.7683 41.458 48.7683 41.3208V41.3067C48.7685 41.1697 48.6591 41.0584 48.5243 41.0584ZM49.5351 43.1411H43.484C43.3492 43.1411 43.24 43.2522 43.24 43.3894V43.4167C43.24 43.5539 43.3493 43.665 43.484 43.665H49.5351C49.6699 43.665 49.7792 43.5537 49.7792 43.4167V43.3894C49.779 43.2524 49.6699 43.1411 49.5351 43.1411ZM43.4836 41.0584H44.5079C44.6427 41.0584 44.7519 41.1695 44.7519 41.3067V42.3689C44.7519 42.5061 44.6427 42.6174 44.5079 42.6174H42.9814C42.8466 42.6174 42.7374 42.7285 42.7374 42.8657V43.4167C42.7374 43.5539 42.6283 43.665 42.4933 43.665H42.4797C42.3449 43.665 42.2356 43.5537 42.2356 43.4167V41.8177C42.2356 41.6805 42.1264 41.5694 41.9916 41.5694H41.9777C41.8429 41.5694 41.7337 41.6805 41.7337 41.8177V43.4167C41.7337 43.5539 41.6244 43.665 41.4896 43.665H41.476C41.3412 43.665 41.2321 43.5537 41.2321 43.4167V41.8177C41.2321 41.6805 41.1227 41.5694 40.9881 41.5694H40.9744C40.8395 41.5694 40.7304 41.6805 40.7304 41.8177V43.4167C40.7304 43.5539 40.6212 43.665 40.4862 43.665H40.4723C40.3375 43.665 40.2282 43.5537 40.2282 43.4167V41.3067C40.2282 41.1695 40.3373 41.0584 40.4723 41.0584H42.4942C42.629 41.0584 42.7383 41.1695 42.7383 41.3067V41.8447C42.7383 41.9819 42.8475 42.0931 42.9823 42.0931H44.0066C44.1414 42.0931 44.2507 41.9819 44.2507 41.8447V41.8177C44.2507 41.6805 44.1414 41.5694 44.0066 41.5694H43.4845C43.3497 41.5694 43.2405 41.4582 43.2405 41.321V41.3068C43.2396 41.1697 43.3488 41.0584 43.4836 41.0584Z" fill="#F5F5F5"/>
<path d="M39.4813 41.0584H39.4674C39.3326 41.0584 39.2232 41.1695 39.2232 41.3067V41.8447C39.2232 41.9819 39.1141 42.0931 38.9792 42.0931H37.9615C37.8266 42.0931 37.7175 41.9819 37.7175 41.8447V41.3067C37.7175 41.1695 37.6082 41.0584 37.4735 41.0584H35.445C35.3102 41.0584 35.201 41.1695 35.201 41.3067V42.3689C35.201 42.5061 35.3102 42.6174 35.445 42.6174H36.4631C36.5979 42.6174 36.7071 42.5061 36.7071 42.3689V42.3418C36.7071 42.2046 36.5979 42.0935 36.4631 42.0935H35.9535C35.8187 42.0935 35.7094 41.9822 35.7094 41.8451V41.818C35.7094 41.6809 35.8187 41.5698 35.9535 41.5698H36.965C37.0998 41.5698 37.2091 41.6809 37.2091 41.818V42.3691C37.2091 42.5063 37.3183 42.6176 37.4531 42.6176H39.4816C39.6164 42.6176 39.7258 42.5063 39.7258 42.3691V41.3068C39.7254 41.1697 39.6161 41.0584 39.4813 41.0584ZM38.4707 41.0584H38.4633C38.3285 41.0584 38.2192 41.1695 38.2192 41.3067V41.3208C38.2192 41.458 38.3285 41.5692 38.4633 41.5692H38.4707C38.6055 41.5692 38.7147 41.458 38.7147 41.3208V41.3067C38.7147 41.1697 38.6055 41.0584 38.4707 41.0584ZM39.4813 43.1411H33.43C33.2952 43.1411 33.186 43.2522 33.186 43.3894V43.4167C33.186 43.5539 33.2952 43.665 33.43 43.665H39.4811C39.6159 43.665 39.7253 43.5537 39.7253 43.4167V43.3894C39.7254 43.2524 39.6161 43.1411 39.4813 43.1411ZM33.43 41.0584H34.4478C34.5826 41.0584 34.6918 41.1695 34.6918 41.3067V42.3689C34.6918 42.5061 34.5826 42.6174 34.4478 42.6174H32.928C32.7932 42.6174 32.684 42.7285 32.684 42.8657V43.4167C32.684 43.5539 32.5748 43.665 32.4398 43.665H32.426C32.2911 43.665 32.182 43.5537 32.182 43.4167V41.8177C32.182 41.6805 32.0728 41.5694 31.938 41.5694H31.9243C31.7895 41.5694 31.6803 41.6805 31.6803 41.8177V43.4167C31.6803 43.5539 31.5711 43.665 31.4361 43.665H31.4222C31.2874 43.665 31.1781 43.5537 31.1781 43.4167V41.8177C31.1781 41.6805 31.0689 41.5694 30.9341 41.5694H30.9206C30.7857 41.5694 30.6766 41.6805 30.6766 41.8177V43.4167C30.6766 43.5539 30.5672 43.665 30.4324 43.665H30.4185C30.2837 43.665 30.1744 43.5537 30.1744 43.4167V41.3067C30.1744 41.1695 30.2837 41.0584 30.4185 41.0584H32.4409C32.5757 41.0584 32.6851 41.1695 32.6851 41.3067V41.8447C32.6851 41.9819 32.7942 42.0931 32.929 42.0931H33.953C34.0878 42.0931 34.1971 41.9819 34.1971 41.8447V41.8177C34.1971 41.6805 34.088 41.5694 33.953 41.5694H33.4309C33.2961 41.5694 33.1869 41.4582 33.1869 41.321V41.3068C33.1859 41.1697 33.2954 41.0584 33.43 41.0584Z" fill="#F5F5F5"/>
<path d="M29.4277 41.0584H29.4138C29.2789 41.0584 29.1696 41.1695 29.1696 41.3067V41.8447C29.1696 41.9819 29.0605 42.0931 28.9256 42.0931H27.9015C27.7667 42.0931 27.6574 41.9819 27.6574 41.8447V41.3067C27.6574 41.1695 27.5482 41.0584 27.4134 41.0584H25.391C25.2562 41.0584 25.1469 41.1695 25.1469 41.3067V42.3689C25.1469 42.5061 25.256 42.6174 25.391 42.6174H26.4091C26.544 42.6174 26.6533 42.5061 26.6533 42.3689V42.3418C26.6533 42.2046 26.5441 42.0935 26.4091 42.0935H25.8866C25.7517 42.0935 25.6424 41.9822 25.6424 41.8451V41.818C25.6424 41.6809 25.7516 41.5698 25.8866 41.5698H26.9175C27.0523 41.5698 27.1615 41.6809 27.1615 41.818V42.3691C27.1615 42.5063 27.2708 42.6176 27.4057 42.6176H29.4275C29.5623 42.6176 29.6716 42.5063 29.6716 42.3691V41.3068C29.6718 41.1697 29.5625 41.0584 29.4277 41.0584ZM28.4234 41.0584H28.403C28.2682 41.0584 28.159 41.1695 28.159 41.3067V41.3208C28.159 41.458 28.2682 41.5692 28.403 41.5692H28.4234C28.5582 41.5692 28.6674 41.458 28.6674 41.3208V41.3067C28.6676 41.1697 28.5582 41.0584 28.4234 41.0584ZM29.4277 43.1411H23.3766C23.2418 43.1411 23.1324 43.2522 23.1324 43.3894V43.4167C23.1324 43.5539 23.2416 43.665 23.3766 43.665H29.4277C29.5625 43.665 29.6718 43.5537 29.6718 43.4167V43.3894C29.6718 43.2524 29.5625 43.1411 29.4277 43.1411ZM23.3762 41.0584H24.394C24.5288 41.0584 24.6382 41.1695 24.6382 41.3067V42.3689C24.6382 42.5061 24.529 42.6174 24.394 42.6174H22.8742C22.7394 42.6174 22.6302 42.7285 22.6302 42.8657V43.4167C22.6302 43.5539 22.5211 43.665 22.3861 43.665H22.3722C22.2373 43.665 22.128 43.5537 22.128 43.4167V41.8177C22.128 41.6805 22.0188 41.5694 21.884 41.5694H21.8703C21.7355 41.5694 21.6263 41.6805 21.6263 41.8177V43.4167C21.6263 43.5539 21.5172 43.665 21.3822 43.665H21.3683C21.2335 43.665 21.1241 43.5537 21.1241 43.4167V41.8177C21.1241 41.6805 21.015 41.5694 20.88 41.5694H20.8597C20.7249 41.5694 20.6158 41.6805 20.6158 41.8177V43.4167C20.6158 43.5539 20.5066 43.665 20.3718 43.665H20.3647C20.2299 43.665 20.1206 43.5537 20.1206 43.4167V41.3067C20.1206 41.1695 20.2297 41.0584 20.3647 41.0584H22.3866C22.5214 41.0584 22.6307 41.1695 22.6307 41.3067V41.8447C22.6307 41.9819 22.7399 42.0931 22.8747 42.0931H23.8862C24.021 42.0931 24.1303 41.9819 24.1303 41.8447V41.8177C24.1303 41.6805 24.0212 41.5694 23.8862 41.5694H23.3766C23.2418 41.5694 23.1324 41.4582 23.1324 41.321V41.3068C23.1322 41.1697 23.2414 41.0584 23.3762 41.0584Z" fill="#F5F5F5"/>
<path d="M19.3675 41.0584H19.3602C19.2253 41.0584 19.116 41.1695 19.116 41.3067V41.8447C19.116 41.9819 19.0068 42.0931 18.872 42.0931H17.8539C17.7191 42.0931 17.6099 41.9819 17.6099 41.8447V41.3067C17.6099 41.1695 17.5007 41.0584 17.3659 41.0584H15.3376C15.2028 41.0584 15.0936 41.1695 15.0936 41.3067V42.3689C15.0936 42.5061 15.2028 42.6174 15.3376 42.6174H16.3487C16.4835 42.6174 16.5928 42.5061 16.5928 42.3689V42.3418C16.5928 42.2046 16.4837 42.0935 16.3487 42.0935H15.8331C15.6983 42.0935 15.5891 41.9822 15.5891 41.8451V41.818C15.5891 41.6809 15.6983 41.5698 15.8331 41.5698H16.8574C16.9922 41.5698 17.1016 41.6809 17.1016 41.818V42.3691C17.1016 42.5063 17.2107 42.6176 17.3455 42.6176H19.3679C19.5027 42.6176 19.6121 42.5063 19.6121 42.3691V41.3068C19.6119 41.1697 19.5024 41.0584 19.3675 41.0584ZM18.3635 41.0584H18.3496C18.2148 41.0584 18.1054 41.1695 18.1054 41.3067V41.3208C18.1054 41.458 18.2146 41.5692 18.3496 41.5692H18.3635C18.4983 41.5692 18.6075 41.458 18.6075 41.3208V41.3067C18.6076 41.1697 18.4983 41.0584 18.3635 41.0584ZM19.3675 43.1411H13.31C13.1751 43.1411 13.066 43.2522 13.066 43.3894V43.4167C13.066 43.5539 13.1751 43.665 13.31 43.665H19.3677C19.5025 43.665 19.6119 43.5537 19.6119 43.4167V43.3894C19.6119 43.2524 19.5024 43.1411 19.3675 43.1411ZM13.31 41.0584H14.3409C14.4757 41.0584 14.5851 41.1695 14.5851 41.3067V42.3689C14.5851 42.5061 14.4759 42.6174 14.3409 42.6174H12.8208C12.6859 42.6174 12.5768 42.7285 12.5768 42.8657V43.4167C12.5768 43.5539 12.4676 43.665 12.3326 43.665H12.3124C12.1776 43.665 12.0684 43.5537 12.0684 43.4167V41.8177C12.0684 41.6805 11.9593 41.5694 11.8243 41.5694H11.8107C11.6759 41.5694 11.5666 41.6805 11.5666 41.8177V43.4167C11.5666 43.5539 11.4574 43.665 11.3226 43.665H11.315C11.1802 43.665 11.0709 43.5537 11.0709 43.4167V41.8177C11.0709 41.6805 10.9617 41.5694 10.8269 41.5694H10.8067C10.6718 41.5694 10.5625 41.6805 10.5625 41.8177V43.4167C10.5625 43.5539 10.4533 43.665 10.3185 43.665H10.3046C10.1698 43.665 10.0606 43.5537 10.0606 43.4167V41.3067C10.0606 41.1695 10.1698 41.0584 10.3046 41.0584H12.3331C12.468 41.0584 12.5773 41.1695 12.5773 41.3067V41.8447C12.5773 41.9819 12.6865 42.0931 12.8213 42.0931H13.8391C13.9739 42.0931 14.083 41.9819 14.083 41.8447V41.8177C14.083 41.6805 13.9739 41.5694 13.8391 41.5694H13.3101C13.1753 41.5694 13.0661 41.4582 13.0661 41.321V41.3068C13.0656 41.1697 13.1751 41.0584 13.31 41.0584Z" fill="#F5F5F5"/>
<path d="M9.31393 41.0584H9.30004C9.16522 41.0584 9.05606 41.1695 9.05606 41.3067V41.8447C9.05606 41.9819 8.9469 42.0931 8.8119 42.0931H7.79413C7.6593 42.0931 7.54997 41.9819 7.54997 41.8447V41.3067C7.54997 41.1695 7.44081 41.0584 7.30598 41.0584H5.27729C5.14247 41.0584 5.03313 41.1695 5.03313 41.3067V42.3689C5.03313 42.5061 5.14229 42.6174 5.27729 42.6174H6.28874C6.42356 42.6174 6.53272 42.5061 6.53272 42.3689V42.3418C6.53272 42.2046 6.42356 42.0935 6.28874 42.0935H5.77282C5.638 42.0935 5.52866 41.9822 5.52866 41.8451V41.818C5.52866 41.6809 5.638 41.5698 5.77282 41.5698H6.80378C6.9386 41.5698 7.04794 41.6809 7.04794 41.818V42.3691C7.04794 42.5063 7.1571 42.6176 7.29192 42.6176H9.31375C9.44858 42.6176 9.55774 42.5063 9.55774 42.3691V41.3068C9.55809 41.1697 9.44875 41.0584 9.31393 41.0584ZM8.30987 41.0584H8.29598C8.16116 41.0584 8.052 41.1695 8.052 41.3067V41.3208C8.052 41.458 8.16116 41.5692 8.29598 41.5692H8.30987C8.44469 41.5692 8.55385 41.458 8.55385 41.3208V41.3067C8.55385 41.1697 8.44469 41.0584 8.30987 41.0584ZM9.31393 43.1411H3.26935C3.13453 43.1411 3.02519 43.2522 3.02519 43.3894V43.4167C3.02519 43.5539 3.13453 43.665 3.26935 43.665H9.31393C9.44875 43.665 9.55791 43.5537 9.55791 43.4167V43.3894C9.55809 43.2524 9.44875 43.1411 9.31393 43.1411ZM3.26935 41.0584H4.28712C4.42195 41.0584 4.53128 41.1695 4.53128 41.3067V42.3689C4.53128 42.5061 4.42212 42.6174 4.28712 42.6174H2.75449C2.61966 42.6174 2.51033 42.7285 2.51033 42.8657V43.4167C2.51033 43.5539 2.40117 43.665 2.26617 43.665H2.26546C2.13064 43.665 2.0213 43.5537 2.0213 43.4167V41.8177C2.0213 41.6805 1.91214 41.5694 1.77715 41.5694H1.75007C1.61525 41.5694 1.50592 41.6805 1.50592 41.8177V43.4167C1.50592 43.5539 1.39676 43.665 1.26176 43.665H1.26123C1.1264 43.665 1.01724 43.5537 1.01724 43.4167V41.8177C1.01724 41.6805 0.907908 41.5694 0.773084 41.5694H0.758846C0.624022 41.5694 0.514687 41.6805 0.514687 41.8177V43.4167C0.514687 43.5539 0.405527 43.665 0.270703 43.665H0.243984C0.10916 43.665 0 43.5537 0 43.4167V41.3067C0 41.1695 0.10916 41.0584 0.243984 41.0584H2.26582C2.40064 41.0584 2.50998 41.1695 2.50998 41.3067V41.8447C2.50998 41.9819 2.61914 42.0931 2.75414 42.0931H3.78491C3.91974 42.0931 4.0289 41.9819 4.0289 41.8447V41.8177C4.0289 41.6805 3.91974 41.5694 3.78491 41.5694H3.26953C3.1347 41.5694 3.02537 41.4582 3.02537 41.321V41.3068C3.02519 41.1697 3.13453 41.0584 3.26935 41.0584Z" fill="#F5F5F5"/>
<path d="M89.7557 39.4737H85.7192C85.5844 39.4737 85.4752 39.5849 85.4752 39.7221V40.2732C85.4752 40.4104 85.5844 40.5215 85.7192 40.5215H89.7557C89.8905 40.5215 89.9998 40.4104 89.9998 40.2732V39.7221C89.9998 39.5849 89.8905 39.4737 89.7557 39.4737ZM84.7225 39.4737H80.6924C80.5576 39.4737 80.4484 39.5849 80.4484 39.7221V40.2732C80.4484 40.4104 80.5576 40.5215 80.6924 40.5215H84.7225C84.8574 40.5215 84.9667 40.4104 84.9667 40.2732V39.7221C84.9667 39.5849 84.8574 39.4737 84.7225 39.4737Z" fill="#F5F5F5"/>
<path d="M79.6959 39.4737H75.6658C75.531 39.4737 75.4216 39.5849 75.4216 39.7221V40.2732C75.4216 40.4104 75.531 40.5215 75.6658 40.5215H79.6959C79.8307 40.5215 79.9401 40.4104 79.9401 40.2732V39.7221C79.9399 39.5849 79.8306 39.4737 79.6959 39.4737ZM74.6754 39.4737H70.6325C70.4976 39.4737 70.3885 39.5849 70.3885 39.7221V40.2732C70.3885 40.4104 70.4978 40.5215 70.6325 40.5215H74.6754C74.8103 40.5215 74.9196 40.4104 74.9196 40.2732V39.7221C74.9196 39.5849 74.8103 39.4737 74.6754 39.4737Z" fill="#F5F5F5"/>
<path d="M69.6419 39.4737H65.6055C65.4707 39.4737 65.3613 39.5849 65.3613 39.7221V40.2732C65.3613 40.4104 65.4705 40.5215 65.6055 40.5215H69.6419C69.7768 40.5215 69.8861 40.4104 69.8861 40.2732V39.7221C69.8863 39.5849 69.7768 39.4737 69.6419 39.4737ZM64.6153 39.4737H60.5789C60.444 39.4737 60.3349 39.5849 60.3349 39.7221V40.2732C60.3349 40.4104 60.444 40.5215 60.5789 40.5215H64.6153C64.7501 40.5215 64.8595 40.4104 64.8595 40.2732V39.7221C64.8595 39.5849 64.75 39.4737 64.6153 39.4737Z" fill="#F5F5F5"/>
<path d="M59.5885 39.4737H55.552C55.4172 39.4737 55.3081 39.5849 55.3081 39.7221V40.2732C55.3081 40.4104 55.4172 40.5215 55.552 40.5215H59.5885C59.7233 40.5215 59.8327 40.4104 59.8327 40.2732V39.7221C59.8325 39.5849 59.7232 39.4737 59.5885 39.4737ZM54.568 39.4737H50.5251C50.3902 39.4737 50.2809 39.5849 50.2809 39.7221V40.2732C50.2809 40.4104 50.3902 40.5215 50.5251 40.5215H54.568C54.7028 40.5215 54.8122 40.4104 54.8122 40.2732V39.7221C54.8122 39.5849 54.703 39.4737 54.568 39.4737Z" fill="#F5F5F5"/>
<path d="M49.5351 39.4737H45.4983C45.3634 39.4737 45.2543 39.5849 45.2543 39.7221V40.2732C45.2543 40.4104 45.3634 40.5215 45.4983 40.5215H49.5351C49.6699 40.5215 49.7792 40.4104 49.7792 40.2732V39.7221C49.779 39.5849 49.6699 39.4737 49.5351 39.4737ZM44.5083 39.4737H40.4715C40.3366 39.4737 40.2273 39.5849 40.2273 39.7221V40.2732C40.2273 40.4104 40.3364 40.5215 40.4715 40.5215H44.5083C44.6431 40.5215 44.7522 40.4104 44.7522 40.2732V39.7221C44.7522 39.5849 44.6431 39.4737 44.5083 39.4737Z" fill="#F5F5F5"/>
<path d="M39.4813 39.4737H35.4445C35.3096 39.4737 35.2005 39.5849 35.2005 39.7221V40.2732C35.2005 40.4104 35.3096 40.5215 35.4445 40.5215H39.4813C39.6161 40.5215 39.7254 40.4104 39.7254 40.2732V39.7221C39.7254 39.5849 39.6161 39.4737 39.4813 39.4737ZM34.4478 39.4737H30.4177C30.2828 39.4737 30.1735 39.5849 30.1735 39.7221V40.2732C30.1735 40.4104 30.2828 40.5215 30.4177 40.5215H34.4478C34.5826 40.5215 34.6918 40.4104 34.6918 40.2732V39.7221C34.6919 39.5849 34.5826 39.4737 34.4478 39.4737Z" fill="#F5F5F5"/>
<path d="M29.4277 39.4737H25.3909C25.256 39.4737 25.1467 39.5849 25.1467 39.7221V40.2732C25.1467 40.4104 25.2559 40.5215 25.3909 40.5215H29.4277C29.5625 40.5215 29.6718 40.4104 29.6718 40.2732V39.7221C29.6718 39.5849 29.5625 39.4737 29.4277 39.4737ZM24.3942 39.4737H20.3644C20.2296 39.4737 20.1202 39.5849 20.1202 39.7221V40.2732C20.1202 40.4104 20.2294 40.5215 20.3644 40.5215H24.3942C24.529 40.5215 24.6383 40.4104 24.6383 40.2732V39.7221C24.6382 39.5849 24.529 39.4737 24.3942 39.4737Z" fill="#F5F5F5"/>
<path d="M19.3675 39.4737H15.3376C15.2028 39.4737 15.0936 39.5849 15.0936 39.7221V40.2732C15.0936 40.4104 15.2028 40.5215 15.3376 40.5215H19.3677C19.5025 40.5215 19.6119 40.4104 19.6119 40.2732V39.7221C19.6119 39.5849 19.5024 39.4737 19.3675 39.4737ZM14.3407 39.4737H10.3039C10.1691 39.4737 10.0599 39.5849 10.0599 39.7221V40.2732C10.0599 40.4104 10.1691 40.5215 10.3039 40.5215H14.3407C14.4756 40.5215 14.5849 40.4104 14.5849 40.2732V39.7221C14.5849 39.5849 14.4756 39.4737 14.3407 39.4737Z" fill="#F5F5F5"/>
<path d="M9.31393 39.4737H5.27729C5.14247 39.4737 5.03313 39.5849 5.03313 39.7221V40.2732C5.03313 40.4104 5.14229 40.5215 5.27729 40.5215H9.3141C9.44893 40.5215 9.55809 40.4104 9.55809 40.2732V39.7221C9.55809 39.5849 9.44875 39.4737 9.31393 39.4737ZM4.28695 39.4737H0.243984C0.10916 39.4737 0 39.5849 0 39.7221V40.2732C0 40.4104 0.10916 40.5215 0.243984 40.5215H4.28695C4.42177 40.5215 4.53111 40.4104 4.53111 40.2732V39.7221C4.53128 39.5849 4.42195 39.4737 4.28695 39.4737Z" fill="#F5F5F5"/>
<path d="M43.7164 22.5368C44.1769 22.6616 44.668 22.5241 45.0055 22.1744C45.515 22.6992 46.3497 22.7117 46.8774 22.1996C47.2213 21.8623 47.3624 21.35 47.2395 20.8878C46.7916 21.6249 45.8465 21.8623 45.1221 21.3999C45.0852 21.3747 45.0361 21.3498 45.0055 21.325C44.3244 21.8371 43.3608 21.6997 42.845 21.0129C42.8264 20.9751 42.7898 20.9252 42.7652 20.888C42.581 21.6124 43.0106 22.3617 43.7164 22.5368Z" fill="#FF4B55"/>
<path d="M46.576 37.1286C48.2258 36.2069 49.6027 34.7547 50.3577 32.8419C51.6434 29.5633 50.8337 25.8626 48.3744 23.4622C48.2898 23.3798 48.1613 23.4901 48.2227 23.5917C50.6483 27.6167 49.6927 32.9059 45.9393 35.8042L46.1188 24.1124C46.1212 23.9537 46.0516 23.8026 45.9305 23.7026L45.32 23.2005C45.133 23.0467 44.8658 23.0476 44.6798 23.2023L44.0783 23.7026C43.9582 23.8024 43.8897 23.9527 43.8921 24.1104L44.0665 35.8107C40.3125 32.914 39.3549 27.6198 41.7768 23.5921C41.838 23.4905 41.7095 23.3801 41.6251 23.4628C39.1705 25.8631 38.3558 29.5637 39.6412 32.8421C40.3962 34.7545 41.7729 36.2069 43.4233 37.1286C42.373 37.4947 41.2691 37.6891 40.1529 37.6566C40.035 37.6532 40.0113 37.822 40.1243 37.8567C41.5425 38.2948 43.0011 38.3248 44.3726 38.012L44.911 39.075C44.9482 39.1483 45.0514 39.1487 45.0889 39.0751L45.631 38.0125C47.0024 38.3248 48.4616 38.2942 49.8808 37.8562C49.9937 37.8215 49.9701 37.6526 49.8522 37.656C48.7346 37.6889 47.628 37.4947 46.576 37.1286Z" fill="#FF4B55"/>
<path d="M53.2917 26.2591C52.4472 24.6538 51.0448 23.437 49.3753 22.8409C49.2707 22.8035 49.1891 22.9441 49.2746 23.0158C52.96 26.105 53.6988 31.607 50.8485 35.5903C50.701 35.7903 50.5414 36.0026 50.388 36.1772C53.8872 34.2662 55.1824 29.8193 53.2917 26.2591Z" fill="#FF4B55"/>
<path d="M39.1561 35.5903C36.3061 31.607 37.039 26.1051 40.7237 23.016C40.8093 22.9442 40.7276 22.8038 40.623 22.841C38.9557 23.4374 37.563 24.6538 36.7131 26.2591C34.8104 29.8193 36.1179 34.266 39.6226 36.177C39.457 36.0024 39.2974 35.7903 39.1561 35.5903Z" fill="#FF4B55"/>
</g>
<defs>
<clipPath id="clip0_360_7382">
<rect width="90" height="60" fill="white"/>
</clipPath>
</defs>
</svg>
