<svg width="90" height="60" viewBox="0 0 90 60" fill="none" xmlns="http://www.w3.org/2000/svg">
<g clip-path="url(#clip0_360_7377)">
<path d="M90 50.7692C90 53.2174 88.9464 55.5653 87.0711 57.2964C85.1957 59.0275 82.6522 60 80 60H10C7.34783 60 4.8043 59.0275 2.92893 57.2964C1.05357 55.5653 0 53.2174 0 50.7692V9.23077C0 6.78262 1.05357 4.43473 2.92893 2.70363C4.8043 0.972524 7.34783 0 10 0H80C82.6522 0 85.1957 0.972524 87.0711 2.70363C88.9464 4.43473 90 6.78262 90 9.23077V50.7692Z" fill="#006600"/>
<path d="M80 0H37.5V60H80C82.6522 60 85.1957 59.0275 87.0711 57.2964C88.9464 55.5653 90 53.2174 90 50.7692V9.23077C90 6.78262 88.9464 4.43473 87.0711 2.70363C85.1957 0.972524 82.6522 0 80 0Z" fill="#D52B1E"/>
<path d="M37.5 11.5385C32.1957 11.5385 27.1086 13.4835 23.3579 16.9457C19.6071 20.4079 17.5 25.1037 17.5 30C17.5 34.8963 19.6071 39.5921 23.3579 43.0543C27.1086 46.5165 32.1957 48.4615 37.5 48.4615C42.8043 48.4615 47.8914 46.5165 51.6421 43.0543C55.3929 39.5921 57.5 34.8963 57.5 30C57.5 25.1037 55.3929 20.4079 51.6421 16.9457C47.8914 13.4835 42.8043 11.5385 37.5 11.5385ZM22.2175 22.14L26.2225 25.8369L20.0725 28.6754C20.271 26.38 21.0026 24.1511 22.2175 22.14ZM20.0725 31.3223L31.0725 36.4154L24.3075 40.5785L24.3425 40.6269C21.8722 38.03 20.3748 34.767 20.0725 31.3223ZM35 45.9692C32.7083 45.6674 30.5051 44.9455 28.52 43.8462H35V45.9692ZM35 41.5385H27.2525L35 36.7708V41.5385ZM35 33.9969L33.4825 34.9315L22.795 30L28.085 27.5585L35 33.9392V33.9969ZM35 30.6762L26.1425 22.5L35 23.8615V30.6762ZM35 21.4638L23.92 19.8185C26.6924 16.6706 30.6491 14.6038 35 14.0308V21.4638ZM52.7825 22.14C53.9978 24.1518 54.7294 26.3816 54.9275 28.6777L48.7775 25.8392L52.7825 22.14ZM40 14.0308C44.3506 14.6047 48.3069 16.6713 51.08 19.8185L40 21.4638V14.0308ZM40 23.8615L48.8575 22.4977L40 30.6762V23.8615ZM40 33.9392L46.9125 27.5585L52.205 30L41.52 34.9315L40 33.9969V33.9392ZM40 45.9692V43.8462H46.48C44.4949 44.9455 42.2917 45.6674 40 45.9692ZM40 41.5385V36.7708L47.7475 41.5385H40ZM50.66 40.6269L50.695 40.5785L43.93 36.4154L54.93 31.3223C54.6254 34.7665 53.1283 38.0288 50.66 40.6269Z" fill="#FFCC4D"/>
<path d="M27.5 18.4615V34.6154C27.5 37.0635 28.5536 39.4114 30.4289 41.1425C32.3043 42.8736 34.8478 43.8462 37.5 43.8462C40.1522 43.8462 42.6957 42.8736 44.5711 41.1425C46.4464 39.4114 47.5 37.0635 47.5 34.6154V18.4615H27.5Z" fill="#D52B1E"/>
<path d="M30 20.7692V34.6154C30 36.4515 30.7902 38.2124 32.1967 39.5107C33.6032 40.8091 35.5109 41.5385 37.5 41.5385C39.4891 41.5385 41.3968 40.8091 42.8033 39.5107C44.2098 38.2124 45 36.4515 45 34.6154V20.7692H30Z" fill="white"/>
<path d="M32.5 27.6923H42.5V32.3077H32.5V27.6923Z" fill="#829ACD"/>
<path d="M35 25.3846H40V34.6154H35V25.3846Z" fill="#829ACD"/>
<path d="M30 27.6923H32.5V32.3077H30V27.6923ZM35 27.6923H40V32.3077H35V27.6923ZM42.5 27.6923H45V32.3077H42.5V27.6923ZM35 34.6154H40V39.2308H35L35 34.6154ZM35 20.7692H40V25.3846H35L35 20.7692Z" fill="#003399"/>
</g>
<defs>
<clipPath id="clip0_360_7377">
<rect width="90" height="60" fill="white"/>
</clipPath>
</defs>
</svg>
