<svg width="90" height="60" viewBox="0 0 90 60" fill="none" xmlns="http://www.w3.org/2000/svg">
<g clip-path="url(#clip0_347_2025)">
<path d="M83.2597 0H6.74033C3.01764 0 0 3.07058 0 6.85859V20H90V6.85859C90 3.07058 86.9824 0 83.2597 0Z" fill="#F5F5F5"/>
<path d="M0 53.1414C0 56.9292 3.01764 60 6.74033 60H83.2597C86.9822 60 90 56.9294 90 53.1414V40H0V53.1414Z" fill="#FF4B55"/>
<path d="M90 19.9996H0V39.9986H90V19.9996Z" fill="#41479B"/>
<path d="M22.8911 44.8968C22.4318 44.6283 11.6379 38.2401 11.6379 28.421V15H34.9138V28.421C34.9138 38.2401 24.12 44.6283 23.6607 44.8968L23.2759 45.1202L22.8911 44.8968Z" fill="#FF4B55"/>
<path d="M29.372 26.0526L25.7142 26.5429H24.4951V24.3217H25.2265L28.1528 24.812L27.7564 23.0811L28.1528 21.3503L25.2265 21.8403H24.4951V21.0902L24.9769 17.3684L23.2759 17.8726L21.5749 17.3684L22.0567 21.0902V21.8403H21.3249L18.399 21.3503L18.7952 23.0811L18.399 24.812L21.3249 24.3217H22.0567V26.5429H20.8375L17.1798 26.0526L17.6752 27.7835L17.1798 29.5142L20.8375 29.0239H22.0567V34.7369H24.4951V29.0239H25.7142L29.372 29.5142L28.8766 27.7835L29.372 26.0526Z" fill="#F5F5F5"/>
<path d="M23.2759 32.3684C21.6731 32.3684 20.2985 33.3578 19.7072 34.7686C19.6028 34.7598 19.5029 34.7367 19.3966 34.7367C17.331 34.7367 15.6584 36.3841 15.5399 38.4555C18.682 42.3913 22.6176 44.7365 22.8911 44.8966L23.2759 45.1202L23.6607 44.8966C23.9342 44.7367 27.8698 42.3914 31.0119 38.4555C30.8936 36.3841 29.2208 34.7367 27.1552 34.7367C27.0489 34.7367 26.9488 34.7598 26.8446 34.7686C26.2533 33.3578 24.8787 32.3684 23.2759 32.3684Z" fill="#41479B"/>
<path d="M34.138 15.7895C34.138 15.7895 34.138 25.2633 34.138 28.4212C34.138 37.8949 23.2759 44.2107 23.2759 44.2107C23.2759 44.2107 12.4138 37.8949 12.4138 28.4212C12.4138 25.2633 12.4138 15.7895 12.4138 15.7895H34.138ZM10.8621 14.2105V28.4212C10.8621 38.693 22.0307 45.305 22.506 45.5815L23.2759 46.0292L24.0458 45.5815C24.5213 45.305 35.6897 38.6929 35.6897 28.4212V14.2105H10.8621Z" fill="#F5F5F5"/>
</g>
<defs>
<clipPath id="clip0_347_2025">
<rect width="90" height="60" fill="white"/>
</clipPath>
</defs>
</svg>
