<svg width="90" height="60" viewBox="0 0 90 60" fill="none" xmlns="http://www.w3.org/2000/svg">
<g clip-path="url(#clip0_358_5064)">
<path d="M83.2597 0H6.74033C3.01764 0 0 3.07058 0 6.85859V20H90V6.85859C90 3.07058 86.9824 0 83.2597 0Z" fill="#F5F5F5"/>
<path d="M0 53.1414C0 56.9292 3.01764 60 6.74033 60H83.2597C86.9822 60 90 56.9294 90 53.1414V40H0V53.1414Z" fill="#FF4B55"/>
<path d="M90 19.9996H0V39.9986H90V19.9996Z" fill="#41479B"/>
<path d="M30.2368 12.3585C30.2368 12.3585 29.9243 22.4873 28.5275 25.3316C26.7986 28.8275 25.0603 29.8474 22.474 30.7897C19.8881 29.8476 18.1498 28.8284 16.4204 25.3316C15.0238 22.4871 14.711 12.3596 14.7111 12.3585C19.6465 10.091 25.3014 10.091 30.2368 12.3585Z" fill="#41479B"/>
<path d="M24.7219 26.4043C24.5327 26.2809 24.3963 26.1925 24.0859 26.1925C23.7763 26.1925 23.6399 26.2807 23.4517 26.4043C23.236 26.544 22.9678 26.7189 22.4691 26.7189C21.97 26.7189 21.7018 26.544 21.4861 26.4036C21.2978 26.281 21.1618 26.1929 20.8522 26.1929C20.5427 26.1929 20.4066 26.281 20.2184 26.4036C20.0146 26.5365 19.7571 26.6947 19.3094 26.7125C20.2518 27.8819 21.24 28.4367 22.4731 28.9184C23.7057 28.4365 24.6936 27.8822 25.6361 26.7128C25.1852 26.6962 24.9263 26.5368 24.7219 26.4043Z" fill="#F5F5F5"/>
<path d="M18.6033 24.5333C18.7915 24.6559 18.9272 24.744 19.2357 24.744C19.5453 24.744 19.6813 24.6559 19.8696 24.5333C20.0853 24.3928 20.3535 24.218 20.8522 24.218C21.3509 24.218 21.6192 24.3929 21.8348 24.5326C22.0231 24.656 22.1595 24.7444 22.4691 24.7444C22.7786 24.7444 22.9147 24.6562 23.1029 24.5337C23.3186 24.3931 23.5869 24.2184 24.0859 24.2184C24.5853 24.2184 24.8542 24.3933 25.0697 24.533C25.2589 24.6564 25.3948 24.7448 25.7054 24.7448C26.0158 24.7448 26.1522 24.6566 26.3413 24.533C26.5215 24.4162 26.7478 24.281 27.106 24.2377C27.1999 23.9891 27.2911 23.7056 27.376 23.3612L25.061 19.4351L24.1984 21.1905L22.4733 17.6799L20.7482 21.1905L19.8856 19.4351L17.5721 23.3587C17.6567 23.7029 17.7478 23.9876 17.8418 24.2379C18.1985 24.2808 18.4236 24.416 18.6033 24.5333Z" fill="#F5F5F5"/>
<path d="M26.689 25.0878C26.4734 25.2275 26.2048 25.4024 25.7052 25.4024C25.2062 25.4024 24.9376 25.2275 24.7219 25.0878C24.5327 24.9644 24.3963 24.876 24.0859 24.876C23.7763 24.876 23.6399 24.9642 23.4517 25.0878C23.236 25.2275 22.9678 25.4024 22.4691 25.4024C21.97 25.4024 21.7018 25.2275 21.4861 25.0871C21.2978 24.9646 21.1618 24.8764 20.8522 24.8764C20.5427 24.8764 20.4066 24.9646 20.2184 25.0871C20.0027 25.2277 19.7344 25.4024 19.2357 25.4024C18.7374 25.4024 18.4695 25.2275 18.2545 25.0871C18.2533 25.0866 18.2526 25.0859 18.2515 25.0851C18.4206 25.3974 18.5896 25.6842 18.758 25.9442C18.8838 26.0145 19.0155 26.0607 19.2357 26.0607C19.5453 26.0607 19.6813 25.9725 19.8696 25.85C20.0853 25.7094 20.3535 25.5346 20.8522 25.5346C21.3509 25.5346 21.6192 25.7096 21.8348 25.8493C22.0231 25.9727 22.1595 26.061 22.4691 26.061C22.7786 26.061 22.9147 25.9728 23.1029 25.8503C23.3186 25.7097 23.5869 25.535 24.0859 25.535C24.5853 25.535 24.8542 25.7099 25.0697 25.8496C25.2589 25.973 25.3948 26.0614 25.7054 26.0614C25.929 26.0614 26.0617 26.0145 26.1895 25.9428C26.3577 25.6831 26.5266 25.3964 26.6955 25.0846C26.6933 25.0853 26.6913 25.0866 26.689 25.0878Z" fill="#F5F5F5"/>
<path d="M22.5081 14.6573L22.6594 15.1606L23.1634 15.0424C23.1975 15.0343 23.2214 15.0764 23.1975 15.1023L22.8449 15.4874L23.1975 15.8725C23.2214 15.8986 23.1977 15.9407 23.1634 15.9324L22.6594 15.8142L22.5081 16.3175C22.4979 16.3517 22.4503 16.3517 22.4401 16.3175L22.2887 15.8142L21.7847 15.9324C21.7506 15.9405 21.7267 15.8984 21.7506 15.8725L22.1033 15.4874L21.7506 15.1023C21.7267 15.076 21.7505 15.0342 21.7847 15.0424L22.2887 15.1606L22.4401 14.6573C22.4504 14.6231 22.4979 14.6231 22.5081 14.6573Z" fill="#FFE15A"/>
<path d="M20.0283 12.239L20.1797 12.7424L20.6837 12.6241C20.7179 12.6161 20.7417 12.6581 20.7178 12.6841L20.3651 13.0691L20.7178 13.4542C20.7417 13.4805 20.7179 13.5224 20.6837 13.5142L20.1797 13.3959L20.0283 13.8993C20.0181 13.9334 19.9705 13.9334 19.9603 13.8993L19.809 13.3959L19.305 13.5142C19.2709 13.5222 19.247 13.4802 19.2709 13.4542L19.6235 13.0691L19.2709 12.6841C19.247 12.6579 19.2707 12.6159 19.305 12.6241L19.809 12.7424L19.9603 12.239C19.9705 12.2049 20.018 12.2049 20.0283 12.239Z" fill="#FFE15A"/>
<path d="M25.0058 12.239L25.1571 12.7424L25.6611 12.6241C25.6952 12.6161 25.7191 12.6581 25.6952 12.6841L25.3426 13.0691L25.6952 13.4542C25.7191 13.4805 25.6954 13.5224 25.6611 13.5142L25.1571 13.3959L25.0058 13.8993C24.9956 13.9334 24.9479 13.9334 24.9377 13.8993L24.7864 13.3959L24.2824 13.5142C24.2483 13.5222 24.2244 13.4802 24.2483 13.4542L24.6009 13.0691L24.2483 12.6841C24.2242 12.6579 24.2481 12.6159 24.2824 12.6241L24.7864 12.7424L24.9377 12.239C24.9481 12.2049 24.9956 12.2049 25.0058 12.239Z" fill="#FFE15A"/>
<path d="M29.3439 11.9772C29.3491 12.2571 29.3535 12.5395 29.3535 12.8445C29.2291 16.0111 28.7661 22.9071 27.7571 24.9841C26.2695 28.0241 24.8959 29.0289 22.474 29.9549C20.0521 29.0291 18.6787 28.0244 17.1921 24.9864C16.1794 22.9016 15.7131 15.8882 15.5941 12.8447C15.5941 12.5394 15.599 12.2601 15.6032 11.9779C15.3047 12.0967 15.008 12.2226 14.7141 12.3576C14.7349 12.9726 14.8853 17.0067 15.3373 20.5538C15.5921 22.534 15.943 24.3589 16.4206 25.3318C18.1498 28.8286 19.8881 29.8478 22.4742 30.7899C25.0604 29.8474 26.7987 28.8279 28.5279 25.3318C29.0057 24.3589 29.3563 22.534 29.6114 20.5538C30.0632 17.0067 30.2135 12.9726 30.2344 12.3576C29.9399 12.2222 29.643 12.0961 29.3439 11.9772Z" fill="#FF1722"/>
</g>
<defs>
<clipPath id="clip0_358_5064">
<rect width="90" height="60" fill="white"/>
</clipPath>
</defs>
</svg>
