<svg width="90" height="60" viewBox="0 0 90 60" fill="none" xmlns="http://www.w3.org/2000/svg">
<g clip-path="url(#clip0_360_7385)">
<path d="M80 0H10C7.34783 0 4.8043 0.972524 2.92893 2.70363C1.05357 4.43473 0 6.78262 0 9.23077V50.7692C0 53.2174 1.05357 55.5653 2.92893 57.2964C4.8043 59.0275 7.34783 60 10 60H80C82.6522 60 85.1957 59.0275 87.0711 57.2964C88.9464 55.5653 90 53.2174 90 50.7692V9.23077C90 6.78262 88.9464 4.43473 87.0711 2.70363C85.1957 0.972524 82.6522 0 80 0Z" fill="#DA251D"/>
<path d="M49.3825 25.47L45 13.02L40.6175 25.47H26.4375L37.91 33.1615L33.5275 45.6115L45 37.9177L56.4725 45.6115L52.09 33.1615L63.5625 25.47H49.3825Z" fill="#FFFF00"/>
</g>
<defs>
<clipPath id="clip0_360_7385">
<rect width="90" height="60" fill="white"/>
</clipPath>
</defs>
</svg>
