<svg width="350" height="400" viewBox="0 0 350 400" fill="none" xmlns="http://www.w3.org/2000/svg">
<path d="M197.658 187.733H152.342V322.973H197.658V187.733Z" fill="#ACACAC"/>
<path d="M120.459 322.973H228.358C229.137 322.973 229.909 323.157 230.629 323.515C231.349 323.873 232.003 324.398 232.554 325.059C233.105 325.72 233.542 326.506 233.841 327.37C234.139 328.234 234.292 329.16 234.292 330.095V358.305C234.292 360.193 233.667 362.003 232.555 363.338C231.443 364.673 229.934 365.423 228.361 365.423H120.466C119.687 365.423 118.915 365.239 118.195 364.881C117.475 364.523 116.821 363.998 116.27 363.337C115.719 362.675 115.281 361.89 114.983 361.026C114.685 360.162 114.531 359.236 114.531 358.3V330.087C114.531 328.2 115.156 326.391 116.268 325.056C117.379 323.722 118.887 322.973 120.459 322.973Z" fill="#ACACAC"/>
<path d="M147.713 66.9576V38.8594H2.00955V39.2517C0.869768 48.5465 0.199249 57.9155 0.00167718 67.3074C-0.172786 109.276 13.2698 149.679 37.4829 179.961C56.4492 203.24 72.2314 216.393 87.6226 223.486L73.8946 174.775C50.44 161.903 22.8203 118.296 23.2539 67.3842V66.9576H147.713Z" fill="#ACACAC"/>
<path d="M202.277 66.9576V38.8594H347.98V39.2517C349.123 48.5462 349.797 57.9152 349.998 67.3074C350.17 109.278 336.724 149.682 312.507 179.961C293.544 203.24 277.758 216.393 262.367 223.486L276.113 174.775C299.567 161.903 327.18 118.296 326.743 67.3842V66.9576H202.277Z" fill="#ACACAC"/>
<path d="M65.4296 162.542H65.5149C65.7461 169.946 66.5526 177.309 67.9242 184.533C71.7353 204.416 79.638 222.835 90.9099 238.107C101.389 252.238 114.258 263.526 128.659 271.219C143.059 278.911 158.66 282.832 174.423 282.719C178.48 282.722 182.535 282.467 186.569 281.956C204.75 279.821 222.191 272.235 237.29 259.895C252.389 247.556 264.662 230.859 272.979 211.339C279.284 196.141 282.822 179.507 283.359 162.542H283.433V0H65.4296V162.542Z" fill="#ACACAC"/>
<path d="M252.111 390.058C252.105 392.692 251.392 395.216 250.127 397.079C248.862 398.942 247.148 399.992 245.359 400H103.483C101.694 399.992 99.9797 398.942 98.7147 397.079C97.4496 395.216 96.7365 392.692 96.7309 390.058V357.877C96.7309 355.24 97.4423 352.711 98.7086 350.846C99.9749 348.982 101.692 347.934 103.483 347.934H245.352C247.142 347.934 248.86 348.982 250.126 350.846C251.392 352.711 252.104 355.24 252.104 357.877L252.111 390.058Z" fill="#ACACAC"/>
</svg>
