<svg width="245" height="45" viewBox="0 0 245 45" fill="none" xmlns="http://www.w3.org/2000/svg">
<path fill-rule="evenodd" clip-rule="evenodd" d="M57.6314 5.31938C57.4197 5.65088 57.5966 5.84924 58.3956 6.17662C61.3507 7.38732 63.9817 9.45694 66.2468 12.3523C66.9573 13.2606 67.1092 13.417 67.2814 13.417C67.5213 13.417 67.7242 13.212 67.7242 12.9694C67.7242 12.4476 65.2205 9.60763 63.5391 8.22208C62.2162 7.13203 60.2113 5.91932 58.8564 5.38969C58.0291 5.06626 57.8012 5.05319 57.6314 5.31938ZM44.2446 12.2102C42.9364 12.8669 41.2382 14.1773 40.375 15.196C39.9035 15.7524 39.8594 15.9014 40.0945 16.1427C40.1953 16.2462 40.3334 16.3308 40.4015 16.3308C40.4695 16.3308 40.8234 16.0197 41.1879 15.6397C42.3663 14.4104 43.2946 13.7046 44.6493 13.0071C45.3875 12.6272 45.5248 12.5089 45.5248 12.2528C45.5248 12.102 45.2582 11.8481 45.0998 11.8481C45.0262 11.8481 44.6415 12.011 44.2446 12.2102ZM55.3799 11.9052C55.3359 11.9354 55.262 12.0339 55.2158 12.1239C55.0733 12.4017 55.2382 12.6326 55.7378 12.8551C56.9701 13.4036 58.4018 14.4394 59.4995 15.5765C60.4076 16.5171 61.0509 17.4304 61.6486 18.6275C62.0544 19.4401 62.1041 19.5077 62.3127 19.5287C62.5872 19.5564 62.7751 19.3853 62.7742 19.1085C62.7735 18.8663 62.1678 17.6208 61.698 16.8951C60.3975 14.8866 58.287 13.0389 56.1896 12.073C55.6908 11.8432 55.5215 11.8081 55.3799 11.9052ZM37.1545 25.8939C37.0745 25.976 37.009 26.0724 37.009 26.1082C37.009 26.3023 37.2525 27.5748 37.3787 28.0399C37.6742 29.1296 37.9072 29.4714 38.2874 29.3733C38.6249 29.2864 38.6372 29.0987 38.3601 28.2661C38.22 27.8448 38.0519 27.164 37.9867 26.753C37.899 26.2005 37.83 25.9719 37.7216 25.8752C37.5291 25.7033 37.3339 25.7097 37.1545 25.8939ZM29.6326 25.9557C29.4752 26.1343 29.4805 26.4514 29.6617 27.7186C29.9956 30.0537 30.5775 31.9207 31.6316 34.0399C32.3322 35.4485 32.5574 35.7873 32.8126 35.8174C33.0616 35.8468 33.297 35.6508 33.297 35.4141C33.297 35.3212 33.1484 34.9872 32.9669 34.672C31.5656 32.2391 30.7208 29.6629 30.4345 26.9491C30.3826 26.4573 30.2972 26.0019 30.2447 25.9371C30.1159 25.7776 29.7806 25.7879 29.6326 25.9557ZM62.8712 27.6484C62.7126 27.7626 62.4109 28.6321 62.4109 28.9757C62.4109 29.3335 62.8544 29.5371 63.0952 29.2898C63.2308 29.1507 63.5027 28.2781 63.5027 27.9821C63.5027 27.8477 63.4435 27.7275 63.3409 27.6538C63.1399 27.5093 63.0661 27.5084 62.8712 27.6484ZM52.403 36.559C51.7099 36.7135 49.1476 36.7291 48.2728 36.5843C47.6773 36.4857 47.6271 36.4876 47.4904 36.6146C47.3429 36.7515 47.3017 36.9942 47.4001 37.1454C47.5074 37.3103 47.7718 37.3928 48.587 37.5161C50.056 37.7383 52.895 37.5402 53.3856 37.1813C53.6118 37.0159 53.6553 36.7598 53.4893 36.5715C53.3404 36.4026 53.117 36.4001 52.403 36.559Z" fill="#F1EEFF"/>
<path fill-rule="evenodd" clip-rule="evenodd" d="M67.7833 32.9837C67.8052 32.973 67.8266 32.9572 67.8497 32.9347L67.7833 32.9837Z" fill="#F1EEFF"/>
<path fill-rule="evenodd" clip-rule="evenodd" d="M67.8497 32.9347C67.9091 32.8769 67.9795 32.7753 68.0994 32.606C68.4573 32.1006 69.2513 31.0207 69.6416 30.2351C70.9183 27.6651 71.7408 24.5821 71.6279 21.5284C71.6566 20.7886 71.3308 20.1693 71.0211 20.1319C70.6524 20.0873 70.7812 20.3524 70.7812 21.2544C70.7812 23.9998 70.4413 26.5065 69.3417 28.6915C68.9893 29.5362 68.0369 31.0235 67.5677 31.7439C67.016 32.5908 67.0012 32.89 67.5064 32.9769C67.6452 33.0008 67.7169 33.016 67.7833 32.9837L67.8497 32.9347Z" fill="#F1EEFF"/>
<path fill-rule="evenodd" clip-rule="evenodd" d="M42.7285 5.06788C42.7052 5.06398 42.6795 5.06468 42.6488 5.06981L42.7285 5.06788Z" fill="#F1EEFF"/>
<path fill-rule="evenodd" clip-rule="evenodd" d="M42.6488 5.06981C42.5697 5.08303 42.4575 5.12571 42.2688 5.19543C41.7054 5.40359 40.6282 5.92029 39.884 6.33934C37.4493 7.71031 35.1241 9.80701 33.3399 12.2404C32.9076 12.8299 32.8414 13.0846 33.0661 13.2934C33.3337 13.5419 33.5609 13.4535 33.9339 12.9557C35.539 10.8134 37.4291 8.99788 39.3946 7.71067C40.1415 7.22147 41.4424 6.5277 42.2131 6.20747C43.1192 5.83101 43.2966 5.59439 42.9442 5.23271C42.8474 5.13328 42.799 5.07964 42.7285 5.06788L42.6488 5.06981Z" fill="#F1EEFF"/>
<path fill-rule="evenodd" clip-rule="evenodd" d="M58.4539 42.1119C58.462 42.1111 58.5522 42.1513 58.6542 42.2012C58.8596 42.3017 58.9622 42.5999 58.8543 42.7825C58.7314 42.9904 57.3091 43.6342 56.1629 44.0009C52.8583 45.0577 49.6067 45.2763 46.4199 44.6558C44.1938 44.2224 40.7905 42.9969 40.5349 42.5367C40.4615 42.4043 40.498 42.2152 40.6008 42.0844L40.8929 41.9334C41.0399 41.9355 41.274 42.0255 41.8581 42.2781C43.6167 43.0384 44.5543 43.3395 46.3995 43.7364C47.2683 43.9233 47.6645 43.9643 49.1457 44.0209C51.1121 44.096 51.9908 44.0406 53.5922 43.7401C54.8831 43.4979 56.7895 42.9036 57.7472 42.4448C58.1277 42.2626 58.4457 42.1128 58.4539 42.1119Z" fill="#F1EEFF"/>
<path fill-rule="evenodd" clip-rule="evenodd" d="M40.7517 41.9636C40.7957 41.9439 40.8383 41.9326 40.8929 41.9334L40.6008 42.0844C40.6416 42.0326 40.6928 41.9899 40.7517 41.9636Z" fill="#F1EEFF"/>
<path fill-rule="evenodd" clip-rule="evenodd" d="M58.4785 19.3756C58.4785 19.6639 58.3023 19.7804 57.5695 19.9774C56.9429 20.1457 56.9148 20.1471 56.7725 20.0155C56.6074 19.8626 56.5763 19.5073 56.7178 19.3891C56.7687 19.3466 57.044 19.244 57.3294 19.1613C57.9423 18.9837 58.2597 18.955 58.3953 19.0963L58.4215 19.1289C58.4612 19.1885 58.4785 19.2704 58.4785 19.3756Z" fill="#F1EEFF"/>
<path fill-rule="evenodd" clip-rule="evenodd" d="M58.4215 19.1289C58.4136 19.1172 58.4049 19.1063 58.3953 19.0963L58.4215 19.1289Z" fill="#F1EEFF"/>
<path fill-rule="evenodd" clip-rule="evenodd" d="M55.3683 14.9085C55.3016 14.9294 55.199 14.995 55.1166 15.0721C54.65 15.5083 54.1787 16.1266 54.1787 16.3025C54.1787 16.5449 54.4933 16.7693 54.6995 16.6737C54.9179 16.5726 55.8096 15.5048 55.8096 15.3445C55.8096 15.1782 55.5575 14.9016 55.406 14.9016C55.4009 14.9016 55.3953 14.9021 55.3893 14.9032L55.3683 14.9085Z" fill="#F1EEFF"/>
<path fill-rule="evenodd" clip-rule="evenodd" d="M55.3893 14.9032C55.3828 14.9044 55.3758 14.9062 55.3683 14.9085L55.3893 14.9032Z" fill="#F1EEFF"/>
<path fill-rule="evenodd" clip-rule="evenodd" d="M50.4719 12.78C50.815 12.78 50.8487 12.8987 50.8262 14.0315C50.8074 14.9774 50.7918 15.0821 50.6566 15.1738C50.5363 15.2551 50.4718 15.2565 50.3229 15.1807C50.1411 15.0882 50.138 15.0707 50.1176 14.0385C50.1045 13.3719 50.1222 13.0014 50.1724 12.9008L50.1772 12.8921C50.1789 12.8895 50.1805 12.8871 50.1822 12.885C50.2293 12.8272 50.3595 12.78 50.4719 12.78Z" fill="#F1EEFF"/>
<path fill-rule="evenodd" clip-rule="evenodd" d="M50.1772 12.8921C50.1756 12.8947 50.174 12.8976 50.1724 12.9008L50.1772 12.8921Z" fill="#F1EEFF"/>
<path fill-rule="evenodd" clip-rule="evenodd" d="M45.5933 14.9104C45.7512 14.8834 46.7652 16.0679 46.7652 16.2793C46.7652 16.4964 46.559 16.7202 46.3591 16.7202C46.2042 16.7202 45.5574 16.0483 45.2562 15.5748C45.1262 15.3704 45.1722 15.0918 45.3338 14.9875L45.3466 14.9797C45.3656 14.9689 45.3861 14.9604 45.4079 14.9546C45.4816 14.9351 45.565 14.9152 45.5933 14.9104Z" fill="#F1EEFF"/>
<path fill-rule="evenodd" clip-rule="evenodd" d="M45.3466 14.9797C45.3422 14.9822 45.338 14.9848 45.3338 14.9875L45.3466 14.9797Z" fill="#F1EEFF"/>
<path fill-rule="evenodd" clip-rule="evenodd" d="M42.7574 18.9971C42.7159 19.0118 42.6457 19.0668 42.588 19.1319C42.4289 19.3116 42.4317 19.5456 42.5951 19.6936C42.7224 19.809 43.7307 20.1299 43.966 20.1299C44.2654 20.1299 44.433 19.6515 44.2125 19.4261C44.1239 19.3355 42.9881 18.9933 42.776 18.9933C42.7726 18.9933 42.7689 18.9938 42.7647 18.9949L42.7574 18.9971Z" fill="#F1EEFF"/>
<path fill-rule="evenodd" clip-rule="evenodd" d="M42.7647 18.9949C42.7624 18.9955 42.76 18.9962 42.7574 18.9971L42.7647 18.9949Z" fill="#F1EEFF"/>
<path fill-rule="evenodd" clip-rule="evenodd" d="M47.9564 29.7531H52.8957L53.0252 30.0463C53.1446 30.317 53.1455 30.3573 53.0363 30.5733C52.95 30.7437 52.8477 30.8205 52.6587 30.8568C52.4283 30.9009 52.3993 30.933 52.3978 31.1443C52.3941 31.6739 51.8912 32.3578 51.3299 32.5968C50.1538 33.0974 48.6662 32.3863 48.5616 31.2736C48.5277 30.913 48.5216 30.9053 48.2375 30.8589C48.0051 30.8209 47.9252 30.763 47.8339 30.5664C47.7312 30.3454 47.7315 30.2935 47.8367 30.0372L47.9516 29.7572L47.9564 29.7531Z" fill="#F1EEFF"/>
<path fill-rule="evenodd" clip-rule="evenodd" d="M47.9533 29.7531H47.9564L47.9516 29.7572L47.9533 29.7531Z" fill="#F1EEFF"/>
<path fill-rule="evenodd" clip-rule="evenodd" d="M51.5959 16.2965C54.7613 16.9176 56.7796 19.9618 56.1365 23.1445C55.9171 24.2301 55.5717 24.9121 54.7139 25.9532C54.1037 26.6937 53.833 27.2725 53.7221 28.0734C53.647 28.6171 53.6071 28.724 53.4195 28.8853L53.2035 29.0711H47.7174L47.5076 28.8567C47.3433 28.6887 47.2871 28.5451 47.2481 28.1936C47.1446 27.2596 46.8557 26.6538 46.0825 25.7485C45.5424 25.1161 45.1758 24.4733 44.9309 23.7291C44.7483 23.1746 44.7313 23.0228 44.7313 21.9484C44.7313 20.8741 44.7483 20.7223 44.9309 20.1678C45.5085 18.4127 46.9357 17.0128 48.6397 16.4551L48.8035 16.4043C49.0461 16.3334 49.2939 16.2794 49.5452 16.2439C50.0617 16.1708 51.0903 16.1972 51.5959 16.2965ZM49.3969 17.1356C47.4293 17.579 46.0025 19.0021 45.5733 20.9494C45.4591 21.467 45.4768 22.5216 45.6096 23.1061C45.773 23.8268 46.1519 24.5396 46.7584 25.2677C47.5597 26.2296 47.9076 26.926 48.0113 27.7759L48.063 28.1997L50.1012 28.2418V24.8679L49.1652 23.9091C48.4319 23.1578 48.2293 22.9063 48.2293 22.7468C48.2293 22.4891 48.3319 22.3842 48.5839 22.3842C48.7386 22.3842 48.9708 22.5757 49.626 23.2435L50.4691 24.1026L51.3485 23.215C51.8321 22.7268 52.2589 22.3274 52.2971 22.3274C52.4709 22.3274 52.6959 22.5762 52.6959 22.7685C52.6959 22.9302 52.4996 23.1737 51.7693 23.9186L50.8425 24.8634V28.2376H52.8976L52.9378 27.8398C53.0239 26.9885 53.39 26.2564 54.2539 25.2081C56.6766 22.2686 55.1979 17.9299 51.5028 17.1354C50.8716 16.9996 49.9995 16.9997 49.3969 17.1356Z" fill="#F1EEFF"/>
<path fill-rule="evenodd" clip-rule="evenodd" d="M48.8035 16.4043C48.7486 16.4204 48.694 16.4373 48.6397 16.4551L48.8035 16.4043Z" fill="#F1EEFF"/>
<path fill-rule="evenodd" clip-rule="evenodd" d="M62.0937 30.5381C62.156 30.6008 62.2738 30.9363 62.3552 31.2837L62.5035 31.9151L63.4643 32.2073L63.978 31.9049C64.2605 31.7385 64.5448 31.6024 64.6098 31.6024C64.7714 31.6024 65.762 32.6185 65.762 32.7842C65.762 32.8575 65.6096 33.1713 65.4234 33.4814L65.0849 34.0453L65.2489 34.4178C65.3916 34.7419 65.4601 34.8024 65.7759 34.8834C65.9755 34.9347 66.2897 35.0222 66.474 35.0779L66.8091 35.1793L66.8329 35.9872C66.85 36.5689 66.8265 36.8203 66.7486 36.8852C66.6891 36.9347 66.3768 37.0286 66.0547 37.0935C65.4772 37.2101 65.4661 37.2175 65.2833 37.6004L65.0978 37.9891L65.4793 38.6164C65.9231 39.346 65.9244 39.3394 65.221 40.0077C64.6778 40.5239 64.6342 40.5256 63.8526 40.0577L63.3558 39.7604L62.5367 40.0653L62.3603 40.7592C62.2633 41.1408 62.157 41.4802 62.1242 41.5132C62.0104 41.6274 60.5678 41.5843 60.4938 41.4645C60.456 41.4034 60.3582 41.0587 60.2763 40.6985L60.1276 40.0438L59.2737 39.7695L58.7125 40.1045C58.4038 40.2887 58.1023 40.4394 58.0426 40.4394C57.8704 40.4394 56.8821 39.4098 56.8821 39.2306C56.8821 39.1417 57.0323 38.83 57.216 38.5378L57.5497 38.0068L57.3884 37.6286C57.247 37.2974 57.1823 37.2389 56.8661 37.1579C56.6676 37.107 56.3544 37.0197 56.17 36.9639L55.835 36.8625L55.8136 36.1051C55.8019 35.6885 55.8243 35.2983 55.8632 35.2381C55.9021 35.1777 56.2132 35.0633 56.5544 34.9835C57.17 34.8399 57.1761 34.8357 57.3662 34.4334L57.5578 34.028L57.22 33.4906C57.0342 33.195 56.8821 32.8689 56.8821 32.7658C56.8821 32.5465 57.8054 31.6024 58.0199 31.6024C58.0962 31.6024 58.385 31.7406 58.6619 31.9095L59.165 32.2166L60.1074 31.8802L60.2587 31.2602C60.3386 30.933 60.4416 30.6181 60.4931 30.5407L60.4991 30.5325C60.6255 30.3794 61.9403 30.3841 62.0937 30.5381ZM60.4742 34.3624C59.412 34.92 59.1588 36.3606 59.9652 37.2592C60.3484 37.6862 60.8218 37.9103 61.3457 37.9127C62.9889 37.9203 63.7933 35.8505 62.6096 34.6596C62.028 34.0742 61.2338 33.9637 60.4742 34.3624Z" fill="#F1EEFF"/>
<path fill-rule="evenodd" clip-rule="evenodd" d="M60.4991 30.5325C60.4971 30.5349 60.4951 30.5376 60.4931 30.5407L60.4991 30.5325Z" fill="#F1EEFF"/>
<path fill-rule="evenodd" clip-rule="evenodd" d="M40.831 30.4273C45.509 30.4467 45.596 30.4498 45.7973 30.6034C45.91 30.6893 46.071 30.8537 46.1551 30.9688C46.3023 31.1701 46.3094 31.2961 46.3451 34.2993L46.3822 37.4207L46.8227 38.2165C47.3457 39.1616 47.3956 39.486 47.0627 39.7785L46.8562 39.9599H34.7054L34.4989 39.7785C34.1661 39.486 34.216 39.1617 34.739 38.2165L35.1794 37.4207L35.2165 34.2614C35.2522 31.2167 35.2591 31.0944 35.4072 30.8883C35.4917 30.7707 35.6753 30.6144 35.8153 30.5411C35.8245 30.5362 35.8338 30.5316 35.8436 30.5271L35.8998 30.5052C36.1741 30.4157 36.8811 30.411 40.831 30.4273ZM39.386 38.6107C39.2627 38.7366 39.2748 38.9409 39.4135 39.0828C39.51 39.1813 39.7388 39.202 40.7375 39.202C41.8515 39.202 41.9552 39.1902 42.0794 39.05C42.1906 38.9246 42.1994 38.8652 42.1297 38.709L42.0452 38.5197H40.7601C39.8596 38.5197 39.4484 38.547 39.386 38.6107ZM36.1068 37.1553H45.4548V31.3187H36.1068V37.1553Z" fill="#F1EEFF"/>
<path fill-rule="evenodd" clip-rule="evenodd" d="M35.8998 30.5052C35.879 30.512 35.8607 30.5193 35.8436 30.5271L35.8998 30.5052Z" fill="#F1EEFF"/>
<path fill-rule="evenodd" clip-rule="evenodd" d="M32.9461 15.9231L33.2788 16.1814L33.5287 15.9725C34.4816 15.1761 35.9592 14.8072 37.1527 15.0676C37.7152 15.1904 38.0084 15.4212 38.0365 15.7634L38.0597 16.0443H38.4596C39.1264 16.0443 39.0908 15.8185 39.0908 20.0429C39.0908 23.6993 39.0905 23.7058 38.9293 23.8804L38.7677 24.0553H36.4775C34.5554 24.0553 34.1873 24.0725 34.1873 24.1619C34.1873 24.2206 34.0844 24.3567 33.9587 24.4642C33.775 24.6215 33.6519 24.66 33.332 24.66C32.8132 24.66 32.5755 24.5618 32.4197 24.2832L32.2927 24.0563L30.0181 24.0558C27.8299 24.0553 27.7361 24.0494 27.5478 23.8987L27.352 23.7421V20.0527C27.352 16.5383 27.3587 16.355 27.4935 16.1857C27.6082 16.0416 27.7062 16.008 28.0133 16.0073C28.3708 16.0067 28.3917 15.9958 28.3919 15.8105C28.3923 15.4835 28.8309 15.1983 29.6083 15.0196C29.7195 14.994 29.8324 14.9746 29.9464 14.9614L29.9675 14.959C30.9423 14.8527 32.0062 15.1933 32.9461 15.9231ZM35.2976 15.9601C34.7418 16.1411 34.1757 16.4626 33.8958 16.7563L33.6654 16.9981L33.7043 22.9149L34.0758 22.6784C34.2801 22.5484 34.6813 22.3548 34.9674 22.2482C35.4212 22.0793 35.6057 22.0545 36.4162 22.0536L37.3449 22.0526L37.3122 16.0066L37.0314 15.918C36.6125 15.7857 35.7704 15.8062 35.2976 15.9601ZM29.9232 15.8239C29.7234 15.8569 29.4642 15.9241 29.3475 15.9733L29.1351 16.0628V22.0529L30.0081 22.0527C31.019 22.0526 31.6337 22.2098 32.3574 22.654C32.5973 22.8012 32.7979 22.9217 32.8032 22.9217C32.8085 22.9218 32.8037 21.5467 32.7926 19.866L32.7724 16.8101L32.4954 16.5921C31.6792 15.9492 30.7848 15.6821 29.9232 15.8239Z" fill="#F1EEFF"/>
<path fill-rule="evenodd" clip-rule="evenodd" d="M29.9675 14.959C29.9605 14.9598 29.9535 14.9606 29.9464 14.9614L29.9675 14.959Z" fill="#F1EEFF"/>
<path fill-rule="evenodd" clip-rule="evenodd" d="M53.6786 1.07955C54.8931 1.97519 55.6611 3.2481 55.9136 4.78415C56.4693 8.16423 53.8532 11.34 50.513 11.34C48.4274 11.34 46.453 10.055 45.535 8.1002C44.4879 5.87051 44.8888 3.47168 46.6049 1.69825C47.456 0.818693 48.3692 0.306956 49.4792 0.0873341C49.7336 0.0370278 49.9957 0.00881951 50.2615 0.00176742L50.3242 0.000497223C51.4876 -0.0158205 52.7164 0.370026 53.6786 1.07955ZM52.9026 8.73414C52.7757 9.13137 52.4994 9.73868 52.3116 10.0329L52.1485 10.2886L52.474 10.1178C53.0858 9.79685 54.0904 8.99058 54.0904 8.82058C54.0904 8.7535 53.7753 8.63793 53.3004 8.53083L52.9899 8.46077L52.9026 8.73414ZM47.4518 8.5755C47.1881 8.63686 46.9458 8.71271 46.9135 8.74412C46.8221 8.83286 47.6953 9.62569 48.2157 9.92648C48.735 10.2265 48.8583 10.2622 48.6887 10.0631C48.5392 9.88757 48.2334 9.24565 48.1169 8.86251C48.0658 8.6948 48.0032 8.53654 47.9776 8.51077C47.9522 8.48502 47.7155 8.51413 47.4518 8.5755ZM50.8449 10.4339L51.0744 10.2962C51.4381 10.078 51.7797 9.61213 52.0276 8.99706C52.1535 8.68428 52.2392 8.41038 52.2179 8.38835C52.1966 8.36624 51.8789 8.33057 51.512 8.30892L50.8449 8.26966V10.4339ZM48.8733 8.35557L48.709 8.40512L48.9643 9.01497C49.1489 9.45566 49.3207 9.72521 49.5842 9.9869C49.7847 10.1861 49.9844 10.349 50.0281 10.349C50.0805 10.349 50.1073 10.0026 50.1073 9.31989V8.29078L49.5725 8.2984C49.2783 8.30259 48.9638 8.32828 48.8733 8.35557ZM53.3279 6.55652C53.3025 6.86054 53.2604 7.25266 53.2345 7.42799L53.1872 7.74672L53.4729 7.80145C53.63 7.83156 53.9382 7.91976 54.1579 7.99744C54.3775 8.07512 54.5643 8.13008 54.5729 8.11949C54.7675 7.88103 55.1969 6.57696 55.1969 6.22454V6.00385H53.3742L53.3279 6.55652ZM50.8941 6.05469C50.867 6.08259 50.8449 6.42564 50.8449 6.81701V7.52847H51.314C51.5721 7.52847 51.9324 7.54958 52.1147 7.57542L52.4461 7.62238L52.4908 7.32767C52.5154 7.16561 52.558 6.80145 52.5855 6.51841L52.6356 6.00385H51.7895C51.324 6.00385 50.9211 6.02672 50.8941 6.05469ZM48.3887 6.06102C48.3445 6.1432 48.4871 7.48151 48.5459 7.53586C48.573 7.56087 48.9354 7.56544 49.3512 7.54607L50.1073 7.5107V6.00385H49.2634C48.7991 6.00385 48.4056 6.02962 48.3887 6.06102ZM45.7552 6.16439C45.7552 6.65074 46.2603 8.06285 46.4335 8.06109C46.4865 8.06055 46.7403 7.99195 46.9974 7.90863C47.2545 7.82531 47.5472 7.75716 47.6477 7.75716C47.7876 7.75716 47.8213 7.72575 47.7915 7.62376C47.752 7.48836 47.5994 6.2795 47.5994 6.10112C47.5994 6.0274 47.3758 6.00385 46.6773 6.00385C45.7891 6.00385 45.7552 6.00971 45.7552 6.16439ZM51.435 3.78781L50.8818 3.83126L50.8394 5.24153H52.6152V5.05408C52.6152 4.95094 52.578 4.60791 52.5324 4.29178L52.4498 3.71691L52.219 3.73063C52.0921 3.73818 51.7393 3.76395 51.435 3.78781ZM48.5258 3.92442C48.4996 4.04806 48.4527 4.39499 48.4216 4.69542L48.3652 5.24153H50.1073V3.79315L49.6094 3.79231C49.3356 3.79185 48.9905 3.77081 48.8425 3.74551C48.5909 3.70251 48.5707 3.71395 48.5258 3.92442ZM46.1628 3.65426C45.9777 4.073 45.7552 4.86503 45.7552 5.10509C45.7552 5.22896 45.8406 5.24153 46.6773 5.24153C47.1844 5.24153 47.5994 5.21493 47.5994 5.18238C47.5994 5.04273 47.7557 3.82052 47.7875 3.71105C47.82 3.59953 47.4293 3.47001 46.4728 3.27508C46.3763 3.25549 46.2952 3.35467 46.1628 3.65426ZM54.3031 3.30024C54.1565 3.35345 53.8456 3.43791 53.6124 3.48792L53.1882 3.57894L53.2342 3.85756C53.2593 4.01079 53.3012 4.38485 53.3272 4.68886L53.3745 5.24153H55.217L55.1719 4.90177C55.1157 4.47846 54.8569 3.66828 54.6932 3.40308C54.5759 3.21326 54.5569 3.20823 54.3031 3.30024ZM52.4356 1.46963C52.5486 1.66905 52.7153 2.04182 52.8059 2.29811C52.9641 2.74558 52.9804 2.76365 53.2171 2.75511C53.3526 2.75015 53.6058 2.70564 53.7796 2.65617L54.0958 2.56606L53.9272 2.35528C53.6648 2.02734 53.1417 1.60928 52.6648 1.34659L52.2299 1.10707L52.4356 1.46963ZM48.282 1.34827C47.8242 1.60913 46.9683 2.29902 46.9109 2.45339C46.8637 2.58077 47.1447 2.69878 47.6651 2.77013L48.014 2.81793L48.11 2.4861C48.2237 2.09305 48.5286 1.44646 48.6887 1.25847C48.8513 1.06767 48.7259 1.09533 48.282 1.34827ZM50.8449 1.96361V3.03084L51.1584 3.03015C51.3308 3.02985 51.6469 3.00782 51.8607 2.98122C52.3099 2.92548 52.3078 2.95217 51.9311 2.09175C51.7743 1.73354 51.5905 1.46689 51.34 1.23415C51.14 1.04838 50.9469 0.896373 50.9107 0.896373C50.8745 0.896373 50.8449 1.37663 50.8449 1.96361ZM49.7516 1.124C49.5844 1.24917 49.3473 1.53214 49.2248 1.75291C48.9812 2.19176 48.741 2.86404 48.8045 2.92961C48.8266 2.95232 49.1286 2.98921 49.4758 3.01163L50.1073 3.05234V1.97435C50.1073 1.38143 50.0957 0.896373 50.0814 0.896373C50.0673 0.896373 49.9188 0.99883 49.7516 1.124Z" fill="#F1EEFF"/>
<path fill-rule="evenodd" clip-rule="evenodd" d="M50.3242 0.000497223C50.3033 0.000790532 50.2824 0.00121378 50.2615 0.00176742L50.3242 0.000497223Z" fill="#F1EEFF"/>
<path fill-rule="evenodd" clip-rule="evenodd" d="M61.758 23.6005C61.8503 22.7658 62.0643 22.3072 62.6343 21.7221C63.1002 21.244 63.635 20.9257 64.1034 20.8476C64.2836 20.8176 64.3921 20.7398 64.4702 20.5849L64.577 20.373H64.5904L65.6056 21.2402C66.6142 22.1017 66.6279 22.1179 66.4912 22.2725C66.268 22.525 66.1809 22.7505 66.1809 23.0751C66.1809 23.8076 65.7424 24.8058 65.1566 25.4072C64.3509 26.234 63.2258 26.6472 61.8 26.6399C60.3445 26.6323 60.1319 26.4573 60.7903 25.808C61.4083 25.1986 61.6394 24.6712 61.758 23.6005Z" fill="#F1EEFF"/>
<path fill-rule="evenodd" clip-rule="evenodd" d="M64.581 20.365L64.5904 20.373H64.577L64.581 20.365Z" fill="#F1EEFF"/>
<path fill-rule="evenodd" clip-rule="evenodd" d="M72.352 13.703C72.352 13.9231 71.7353 15.5443 71.2931 16.4866C70.4143 18.3592 69.3443 20.0039 68.2788 21.1199C67.5852 21.8463 67.3978 21.8705 66.7362 21.3195C65.0176 19.8885 64.961 19.8229 65.0676 19.3869C65.1704 18.9663 65.9542 17.9228 66.9005 16.9461C68.2057 15.5991 69.6794 14.4863 71.3235 13.6061C71.6137 13.4507 71.8937 13.3231 71.9503 13.32L71.9596 13.3204C72.0744 13.3319 72.352 13.6 72.352 13.703Z" fill="#F1EEFF"/>
<path fill-rule="evenodd" clip-rule="evenodd" d="M71.952 13.32C71.9545 13.32 71.957 13.3201 71.9596 13.3204L71.9503 13.32C71.9509 13.32 71.9515 13.32 71.952 13.32Z" fill="#F1EEFF"/>
<path d="M85.728 41V11.528H76.56V5.96H100.944V11.528H91.776V41H85.728Z" fill="#F1EEFF"/>
<path d="M104.813 41L113.645 5.96H121.373L130.253 41H124.109L122.189 32.504H112.877L110.957 41H104.813ZM113.981 27.608H121.085L118.973 18.2C118.621 16.632 118.317 15.224 118.061 13.976C117.805 12.696 117.629 11.768 117.533 11.192C117.437 11.768 117.261 12.696 117.005 13.976C116.781 15.224 116.477 16.616 116.093 18.152L113.981 27.608Z" fill="#F1EEFF"/>
<path d="M135.562 41V5.96H146.65C148.986 5.96 151.003 6.392 152.699 7.256C154.426 8.12 155.77 9.336 156.73 10.904C157.691 12.44 158.171 14.264 158.171 16.376C158.171 18.68 157.579 20.712 156.395 22.472C155.242 24.232 153.674 25.48 151.691 26.216L158.65 41H151.93L145.835 27.08H141.562V41H135.562ZM141.562 21.8H146.65C148.346 21.8 149.674 21.336 150.635 20.408C151.595 19.48 152.074 18.2 152.074 16.568C152.074 14.904 151.595 13.608 150.635 12.68C149.674 11.72 148.346 11.24 146.65 11.24H141.562V21.8Z" fill="#F1EEFF"/>
<path d="M175.192 41.48C172.792 41.48 170.712 41.08 168.952 40.28C167.192 39.48 165.832 38.344 164.872 36.872C163.944 35.368 163.464 33.608 163.432 31.592H169.432C169.432 33.032 169.944 34.168 170.968 35C172.024 35.8 173.448 36.2 175.24 36.2C176.968 36.2 178.312 35.8 179.272 35C180.264 34.2 180.76 33.096 180.76 31.688C180.76 30.504 180.408 29.48 179.704 28.616C179.032 27.72 178.056 27.112 176.776 26.792L172.744 25.688C169.992 24.984 167.864 23.72 166.36 21.896C164.888 20.072 164.152 17.864 164.152 15.272C164.152 13.288 164.6 11.56 165.496 10.088C166.392 8.616 167.656 7.48 169.288 6.68C170.952 5.88 172.904 5.48 175.144 5.48C178.536 5.48 181.224 6.36 183.208 8.12C185.192 9.848 186.2 12.184 186.232 15.128H180.232C180.232 13.752 179.784 12.68 178.888 11.912C177.992 11.112 176.728 10.712 175.096 10.712C173.528 10.712 172.312 11.08 171.448 11.816C170.584 12.552 170.152 13.592 170.152 14.936C170.152 16.152 170.472 17.192 171.112 18.056C171.784 18.888 172.744 19.48 173.992 19.832L178.168 20.984C180.952 21.688 183.08 22.952 184.552 24.776C186.024 26.568 186.76 28.792 186.76 31.448C186.76 33.432 186.28 35.192 185.32 36.728C184.36 38.232 183.016 39.4 181.288 40.232C179.56 41.064 177.528 41.48 175.192 41.48Z" fill="#F1EEFF"/>
<path d="M193.797 41V35.72H200.853V11.24H193.797V5.96H213.957V11.24H206.901V35.72H213.957V41H193.797Z" fill="#F1EEFF"/>
<path d="M232.754 41.48C230.354 41.48 228.274 41.08 226.514 40.28C224.754 39.48 223.394 38.344 222.434 36.872C221.506 35.368 221.026 33.608 220.994 31.592H226.994C226.994 33.032 227.506 34.168 228.53 35C229.586 35.8 231.01 36.2 232.802 36.2C234.53 36.2 235.874 35.8 236.834 35C237.826 34.2 238.322 33.096 238.322 31.688C238.322 30.504 237.97 29.48 237.266 28.616C236.594 27.72 235.618 27.112 234.338 26.792L230.306 25.688C227.554 24.984 225.426 23.72 223.922 21.896C222.45 20.072 221.714 17.864 221.714 15.272C221.714 13.288 222.162 11.56 223.058 10.088C223.954 8.616 225.218 7.48 226.85 6.68C228.514 5.88 230.466 5.48 232.706 5.48C236.098 5.48 238.786 6.36 240.77 8.12C242.754 9.848 243.762 12.184 243.794 15.128H237.794C237.794 13.752 237.346 12.68 236.45 11.912C235.554 11.112 234.29 10.712 232.658 10.712C231.09 10.712 229.874 11.08 229.01 11.816C228.146 12.552 227.714 13.592 227.714 14.936C227.714 16.152 228.034 17.192 228.674 18.056C229.346 18.888 230.306 19.48 231.554 19.832L235.73 20.984C238.514 21.688 240.642 22.952 242.114 24.776C243.586 26.568 244.322 28.792 244.322 31.448C244.322 33.432 243.842 35.192 242.882 36.728C241.922 38.232 240.578 39.4 238.85 40.232C237.122 41.064 235.09 41.48 232.754 41.48Z" fill="#F1EEFF"/>
<path d="M0 41V5.96H6V20.12H10.176L16.752 5.96H23.28L15.456 22.76L23.664 41H16.992L10.08 25.592H6V41H0Z" fill="#F1EEFF"/>
</svg>
