<svg width="166" height="61" viewBox="0 0 166 61" fill="none" xmlns="http://www.w3.org/2000/svg">
<path fill-rule="evenodd" clip-rule="evenodd" d="M29.4155 14.9803C31.9133 17.0356 32.033 22.4957 29.6325 24.8742C28.6448 25.8529 24.2673 26.6537 19.9047 26.6537H11.9728V20.0844C11.9728 17.4784 12.0777 15.8547 12.4773 14.8035L0.000117302 26.7535V59.2776H5.0511C9.51092 59.2776 10.2113 58.7349 11.0374 54.6435C11.5523 52.0944 11.9728 47.4233 11.9728 44.2632C11.9728 39.0997 12.3574 38.5169 15.7711 38.5169C18.697 38.5169 20.5048 40.0814 23.6282 45.3146C30.309 56.5046 33.0657 58.9187 40.1146 59.7447C43.657 60.1599 46.3464 60.0576 46.089 59.5178C45.8316 58.9781 43.0733 53.6589 39.9575 47.6976L34.2944 36.8591L38.8485 32.6446C42.8578 28.9329 43.4011 27.453 43.4011 20.2416C43.4011 13.6338 42.6663 11.187 39.5953 7.5717C36.6678 4.12405 34.8269 2.90447 25.9113 1.93719L14.238 13.1172C14.5595 13.0003 14.9249 12.9052 15.3401 12.8197C19.9077 11.8795 26.9596 12.9621 29.4155 14.9803Z" fill="black"/>
<path fill-rule="evenodd" clip-rule="evenodd" d="M1.70711 21.2929C1.07714 21.9229 0 21.4767 0 20.5858V1.07063C0 0.491537 0.490361 0.0335118 1.06811 0.0729569L11.5985 0.791905C14.5111 0.990666 17.0719 1.17146 19.3324 1.34678C20.1811 1.4126 20.5585 2.44151 19.9566 3.04339L1.70711 21.2929Z" fill="black"/>
<path fill-rule="evenodd" clip-rule="evenodd" d="M122.088 37.2654C123.468 37.8289 125.775 38.6267 127.217 39.0374C129.072 39.5668 129.836 41.3048 129.836 45.0076V50.2319L137.477 49.3347C143.02 48.6837 146.22 47.6759 148.344 45.5468L154.46 56.3686C148.767 59.4621 140.834 60.4434 129.087 59.9227L118.611 59.457L118.117 54.3054C117.845 51.4731 118.064 46.2488 118.601 42.6972C119.4 37.4122 120.035 36.4246 122.088 37.2654Z" fill="black"/>
<path fill-rule="evenodd" clip-rule="evenodd" d="M150.969 41.1921C152.184 38.0216 152.943 37.7443 157.921 38.6519C165.475 40.0265 166.408 41.2959 163.69 46.5053C161.356 50.9774 158.461 54.1946 154.46 56.3686L148.344 45.5468C149.452 44.4364 150.267 43.021 150.969 41.1921Z" fill="black"/>
<path fill-rule="evenodd" clip-rule="evenodd" d="M134.38 0.554607C147.965 1.01579 151.479 1.62971 154.958 4.15213C160.044 7.83566 163.815 15.2472 164.819 23.5307C165.511 29.2355 165.279 29.7367 161.612 30.4707C159.438 30.9052 156.564 31.6808 155.225 32.1953C153.222 32.9635 152.607 31.6911 151.768 25.0344C150.513 15.0782 147.764 12.3823 137.661 11.1974L129.973 10.2943V19.9673C129.973 28.7446 129.662 29.7233 126.605 30.5345C118.033 32.8107 118 32.7529 118 15.7336V8.98328L127.587 0.324582L134.38 0.554607Z" fill="black"/>
<path fill-rule="evenodd" clip-rule="evenodd" d="M118 0L127.587 0.324582L118 8.98328V0Z" fill="black"/>
<mask id="path-4-inside-1_205_391" fill="white">
<rect x="52.0001" width="60" height="60" rx="2"/>
</mask>
<rect x="52.0001" width="60" height="60" rx="2" fill="black"/>
<rect x="52.0001" width="60" height="60" rx="2" stroke="#6D1313" stroke-width="12" mask="url(#path-4-inside-1_205_391)"/>
</svg>
