<svg width="90" height="60" viewBox="0 0 90 60" fill="none" xmlns="http://www.w3.org/2000/svg">
<g clip-path="url(#clip0_358_4766)">
<path d="M6.74033 60H83.2597C86.9822 60 90 56.9294 90 53.1414V44.2105H0V53.1414C0 56.9294 3.01764 60 6.74033 60Z" fill="#73AF00"/>
<path d="M90 6.85859C90 3.07076 86.9824 0 83.2597 0H6.74033C3.01764 0 0 3.07058 0 6.85859V44.2107H90V6.85859Z" fill="#FF4B55"/>
<path d="M6.74033 60H12.4138V0H6.74033C3.01764 0 0 3.07058 0 6.85859V53.1416C0 56.9294 3.01764 60 6.74033 60Z" fill="#F5F5F5"/>
<path d="M10.8613 41.3973H10.315V42.9622H10.8613V41.3973Z" fill="#FF4B55"/>
<path d="M2.10252 10.2318H1.55373V11.7969H2.10252V10.2318Z" fill="#FF4B55"/>
<path d="M1.55268 14.939H1.8283V15.7328H2.10146V16.5155H2.92061V15.7328H3.19641V14.939H3.46412V13.8955H3.19641V13.1017H2.92061V12.3306H2.10146V13.1017H1.8283V13.8955H1.55268V14.939ZM2.10146 14.1565H2.37199V13.6349H2.65324V14.1565H2.92061V14.678H2.65324V15.2111H2.37199V14.678H2.10146V14.1565Z" fill="#FF4B55"/>
<path d="M2.10252 17.0376H1.55373V18.6138H2.10252V17.0376Z" fill="#FF4B55"/>
<path d="M6.48176 10.2318H5.93279V11.7969H6.48176V10.2318Z" fill="#FF4B55"/>
<path d="M5.11348 12.3306V13.1017H4.84031V13.8955H4.56451V14.939H4.84031V15.7328H5.11348V16.5155H5.93262V15.7328H6.48158V16.5155H7.30353V15.7328H7.58215V14.939H7.84986V13.8955H7.58215V13.1017H7.30353V12.3306H6.48158V13.1017H5.93262V12.3306H5.11348ZM6.48176 14.1565H6.75756V13.6349H7.03336V14.1565H7.30353V14.678H7.03336V15.2111H6.75756V14.678H6.48176V14.1565ZM5.93279 14.6782H5.66262V15.2112H5.38383V14.6782H5.11365V14.1567H5.38383V13.6351H5.66262V14.1567H5.93279V14.6782Z" fill="#FF4B55"/>
<path d="M2.10252 35.3767H1.55373V36.4198H2.10252V35.3767Z" fill="#FF4B55"/>
<path d="M2.10252 23.5913H1.55373V24.6344H2.10252V23.5913Z" fill="#FF4B55"/>
<path d="M6.48176 17.0376H5.93279V18.6138H6.48176V17.0376Z" fill="#FF4B55"/>
<path d="M2.10252 41.3973H1.55373V42.9622H2.10252V41.3973Z" fill="#FF4B55"/>
<path d="M2.10146 29.2176H1.55268V30.7938H2.10146V29.2176Z" fill="#FF4B55"/>
<path d="M2.10252 55.812H1.55373V57.3771H2.10252V55.812Z" fill="#FF4B55"/>
<path d="M10.8613 55.812H10.315V57.3771H10.8613V55.812Z" fill="#FF4B55"/>
<path d="M2.10252 48.2139H1.55373V49.7789H2.10252V48.2139Z" fill="#FF4B55"/>
<path d="M6.48176 55.812H5.93279V57.3771H6.48176V55.812Z" fill="#FF4B55"/>
<path d="M9.48533 12.3193V13.1017H9.21516V13.8955H8.93936V14.939H9.21516V15.7214H9.48533V16.5041H10.3103V15.7214H10.5834V14.939H10.8536V13.8955H10.5834V13.1017H10.3103V12.3193H9.48533ZM10.3103 14.6782H10.0345V15.1996H9.7585V14.6782H9.48533V14.1452H9.7585V13.6347H10.0343V14.1452H10.3101L10.3103 14.6782Z" fill="#FF4B55"/>
<path d="M10.8613 2.63361H10.315V4.19868H10.8613V2.63361Z" fill="#FF4B55"/>
<path d="M2.10252 2.63361H1.55373V4.19868H2.10252V2.63361Z" fill="#FF4B55"/>
<path d="M10.8613 17.0376H10.315V18.6138H10.8613V17.0376Z" fill="#FF4B55"/>
<path d="M10.8613 10.2318H10.315V11.7969H10.8613V10.2318Z" fill="#FF4B55"/>
<path d="M6.48176 2.63361H5.93279V4.19868H6.48176V2.63361Z" fill="#FF4B55"/>
<path d="M4.28889 51.8788H3.74555V53.1831H4.28889V51.8788Z" fill="#FF4B55"/>
<path d="M5.11348 29.2176H4.56451V30.7938H5.11348V29.2176Z" fill="#FF4B55"/>
<path d="M8.1283 1.57884V2.89476H7.58215V4.19904H7.03336V5.51442H6.48158V6.8187H5.93262V5.51442H5.38365V4.19904H4.84031V2.89476H4.29434V1.57884H3.74537V2.89476H3.19641V4.19904H2.65307V5.51442H2.10129V6.8187H1.55268V8.13461H2.10146V9.4389H2.65324V10.7543H3.19658V12.0697H3.74555V13.3739H4.28889V12.0697H4.84066V10.7543H5.384V9.4389H5.93297V8.13461H6.48193V9.4389H7.03371V10.7543H7.57705V12.0697H8.12865V13.3739H8.67498V12.0697H9.22096V10.7543H9.76975V9.4389H10.3157V8.13461H10.8621V6.8187H10.3185V5.51442H9.76957V4.19904H9.22078V2.89476H8.6748V1.57884H8.1283ZM5.38365 8.13426H4.84031V9.43854H4.28854V10.7539H3.74537V9.43854H3.19641V8.13426H2.65307V6.81835H3.19641V5.51406H3.74537V4.19868H4.28871V5.51406H4.84049V6.81835H5.38383L5.38365 8.13426ZM9.22096 5.51442V6.8187H9.76975V8.13461H9.22096V9.4389H8.67498V10.7543H8.12865V9.4389H7.5825V8.13461H7.03371V6.8187H7.5825V5.51442H8.12865V4.19904H8.67498V5.51442H9.22096Z" fill="#FF4B55"/>
<path d="M6.48176 27.2544H5.93279V28.5587H6.48176V27.2544Z" fill="#FF4B55"/>
<path d="M6.48176 31.4506H5.93279V32.7549H6.48176V31.4506Z" fill="#FF4B55"/>
<path d="M7.30371 30.7938H7.84986V29.2176H7.30371V30.7938Z" fill="#FF4B55"/>
<path d="M7.58232 55.8124V57.1167H8.12848V58.4212H8.6748V57.1167H9.22078V55.8124H9.76957V54.497H10.3185V53.1817H10.8621V51.8774H10.3157V50.5615H9.76975V49.2572H9.22096V47.9418H8.67498V46.6375H8.12865V47.9418H7.57705V49.2572H7.03371V50.5615H6.48193V51.8774H5.93297V50.5615H5.384V49.2572H4.84066V47.9418H4.28889V46.6375H3.74555V47.9418H3.19658V49.2572H2.65324V50.5615H2.10146V51.8774H1.55268V53.1817H2.10146V54.497H2.65324V55.8124H3.19658V57.1167H3.74555V58.4212H4.29451V57.1167H4.84066V55.8124H5.384V54.497H5.93297V53.1817H6.48193V54.497H7.03371V55.8124H7.58232ZM5.38365 53.1815H4.84031V54.4969H4.28854V55.8122H3.74537V54.4969H3.19641V53.1815H2.65307V51.8772H3.19641V50.5613H3.74537V49.257H4.28871V50.5613H4.84049V51.8772H5.38383L5.38365 53.1815ZM7.03354 51.8774H7.58232V50.5615H8.12848V49.2572H8.6748V50.5615H9.22078V51.8774H9.76957V53.1817H9.22078V54.497H8.6748V55.8124H8.12848V54.497H7.58232V53.1817H7.03354V51.8774Z" fill="#FF4B55"/>
<path d="M6.75756 28.8207H6.48176V29.2176H5.93279V28.8207H5.66262V28.2988H5.11348V29.0815H5.38365V29.4784H5.66262V30.5216H5.38365V30.9185H5.11348V31.7012H5.66262V31.1796H5.93279V30.7938H6.48176V31.1796H6.75756V31.7012H7.30371V30.9185H7.03354V30.5216H6.75756V29.4784H7.03354V29.0815H7.30371V28.2988H6.75756V28.8207Z" fill="#FF4B55"/>
<path d="M8.67445 6.81906H8.12813V8.13497H8.67445V6.81906Z" fill="#FF4B55"/>
<path d="M8.67445 51.8788H8.12813V53.1831H8.67445V51.8788Z" fill="#FF4B55"/>
<path d="M2.92061 47.6808V46.8985H3.19641V46.1161H3.46412V45.0613H3.19641V44.279H2.92061V43.4963H2.10146V44.279H1.8283V45.0613H1.55268V46.1161H1.8283V46.8985H2.10146V47.6808H2.92061ZM2.10146 45.3218H2.37727V44.8004H2.65307V45.3218H2.92043V45.8548H2.65307V46.3764H2.37727V45.8548H2.10146V45.3218Z" fill="#FF4B55"/>
<path d="M4.28889 6.81906H3.74555V8.13497H4.28889V6.81906Z" fill="#FF4B55"/>
<path d="M10.8613 48.2139H10.315V49.7789H10.8613V48.2139Z" fill="#FF4B55"/>
<path d="M7.30371 47.6808V46.8985H7.58232V46.1161H7.85004V45.0613H7.58232V44.279H7.30371V43.4963H6.48176V44.279H5.93279V43.4963H5.11365V44.279H4.84049V45.0613H4.56469V46.1161H4.84049V46.8985H5.11365V47.6808H5.93279V46.8985H6.48176V47.6808H7.30371ZM5.93279 45.8548H5.66262V46.3764H5.38383V45.8548H5.11365V45.3218H5.38383V44.8004H5.66262V45.3218H5.93279V45.8548ZM6.48176 45.3218H6.75756V44.8004H7.03336V45.3218H7.30353V45.8548H7.03336V46.3764H6.75756V45.8548H6.48176V45.3218Z" fill="#FF4B55"/>
<path d="M6.48176 48.2139H5.93279V49.7789H6.48176V48.2139Z" fill="#FF4B55"/>
<path d="M6.48176 41.3973H5.93279V42.9622H6.48176V41.3973Z" fill="#FF4B55"/>
<path d="M10.8613 35.3767H10.315V36.4198H10.8613V35.3767Z" fill="#FF4B55"/>
<path d="M10.3103 47.6808V46.8985H10.5834V46.1161H10.8536V45.0726H10.5834V44.2788H10.3103V43.5074H9.48533V44.2788H9.21516V45.0726H8.93936V46.1161H9.21516V46.8985H9.48533V47.6808H10.3103ZM9.48533 45.3334H9.7585V44.8118H10.0343V45.3334H10.3101V45.8548H10.0343V46.3878H9.7585V45.8548H9.48533V45.3334Z" fill="#FF4B55"/>
<path d="M10.3157 30.7938H10.8621V29.2176H10.3157V30.7938Z" fill="#FF4B55"/>
<path d="M10.8613 23.5913H10.315V24.6344H10.8613V23.5913Z" fill="#FF4B55"/>
<path d="M10.8621 20.7004H10.3157V19.3962H9.76975V18.0802H9.22096V16.776H8.67498V15.4606H8.12865V16.776H7.57705V18.0802H7.03371V19.3962H6.48193V20.7003H5.93297V19.396H5.384V18.0801H4.84066V16.7758H4.28889V15.4604H3.74555V16.7758H3.19658V18.0801H2.64762V19.396H2.10146V20.7001H1.55268V22.0155H2.10146V23.3308H2.64762V24.6351H3.19658V25.9396H3.74555V24.6351H4.28889V23.3308H4.84066V22.0155H4.28889V20.4389H4.84066V21.4937H5.384V23.592H5.66279V24.8848L4.84084 24.8961V25.9396H4.28906V26.7219H3.74572V28.0373H3.19676V26.7219H2.64779V25.9396H2.10164V25.1569H1.55268V27.5157H2.10146V28.5705H2.64762V29.4779H3.19658V30.5217H2.64762V31.4517H2.10146V32.4952H1.55268V34.854H2.10146V34.0601H2.64762V33.2777H3.19658V31.9734H3.74555V33.2777H4.28889V34.0601H4.84066V35.1148L5.66262 35.1261V36.4189H5.38383V38.5172H4.84049V39.572H4.28871V37.9842H4.84049V36.6799H4.28871V35.3756H3.74537V34.0597H3.19641V35.3756H2.64744V36.6799H2.10129V37.9842H1.55268V39.2996H2.10146V40.6039H2.65324V41.9198H3.19658V43.2351H3.74555V44.5394H4.28889V43.2351H4.84066V41.9198H5.384V40.6039H5.93297V39.2996H6.48193V40.6039H7.03371V41.9198H7.5825V43.2351H8.12865V44.5394H8.67498V43.2351H9.22096V41.9198H9.76975V40.6039H10.3157V39.2996H10.8621V37.9842H10.3157V36.6799H9.76975V35.3756H9.22096V34.0597H8.67498V35.3756H8.12865V36.6799H7.57705V37.9842H8.12865V39.572H7.57705V38.5172H7.03371V36.4189H6.75791V35.1147H7.5825V34.0599H8.12865V33.2775H8.67498V31.9732H9.22096V33.2775H9.76975V34.0599H10.3187V34.8539H10.8622V32.495H10.3187V31.4515H9.76975V30.5216H9.22096V29.4784H9.76975V28.571H10.3187V27.5163H10.8622V25.1574H10.3187V25.9401H9.76975V26.7225H9.22096V28.0378H8.67498V26.7225H8.12865V25.9401H7.5825V24.8966H6.75773V23.5923H7.03354V21.4941H7.57688V20.4393H8.12848V22.0156H7.57688V23.331H8.12848V24.6353H8.6748V25.9398H9.22078V24.6353H9.76957V23.331H10.3155V22.0156H10.8619L10.8621 20.7004ZM7.58232 28.5707H8.12848V29.4781H8.6748V30.5216H8.12848V31.4515H7.58232V32.4946H6.75773V33.731H6.48193V34.3207H5.93297V33.731H5.66279V32.4946H4.84084V31.4511H4.28906V30.5212H3.74555V29.4775H4.28889V28.5702H4.84066V27.5154H5.66262V26.2794H5.93279V25.6781H6.48176V26.2678H6.75756V27.5154H7.58232V28.5707Z" fill="#FF4B55"/>
</g>
<defs>
<clipPath id="clip0_358_4766">
<rect width="90" height="60" fill="white"/>
</clipPath>
</defs>
</svg>
