<svg width="90" height="60" viewBox="0 0 90 60" fill="none" xmlns="http://www.w3.org/2000/svg">
<g clip-path="url(#clip0_358_5021)">
<path d="M0 53.1415C0 56.9291 3.01764 60 6.74033 60H83.2598C86.9803 60 89.9965 56.9328 90 53.1483V40.0001H0V53.1415Z" fill="#41479B"/>
<path d="M83.2598 0H6.74033C3.01764 0 0 3.07074 0 6.85855V19.9999H90V6.85175C89.9965 3.06734 86.9803 0 83.2598 0Z" fill="#FF4B55"/>
<path d="M90 19.9995H0V39.9983H90V19.9995Z" fill="#F5F5F5"/>
<path d="M38.4833 20.5254H34.1385V25.5783H38.4833V20.5254Z" fill="#FF4B55"/>
<path d="M47.1721 20.5254H42.8273V25.5783H47.1721V20.5254Z" fill="#FF4B55"/>
<path d="M42.8286 25.5783H38.4838V30.6312H42.8286V25.5783Z" fill="#FF4B55"/>
<path d="M55.8628 20.5254H51.518V25.5783H55.8628V20.5254Z" fill="#FF4B55"/>
<path d="M51.5174 25.5783H47.1727V30.6312H51.5174V25.5783Z" fill="#FF4B55"/>
<path d="M42.8286 20.5254H38.4838V25.5783H42.8286V20.5254Z" fill="#F5F5F5"/>
<path d="M51.5174 20.5254H47.1727V25.5783H51.5174V20.5254Z" fill="#F5F5F5"/>
<path d="M38.4833 25.5783H34.1385V30.6312H38.4833V25.5783Z" fill="#F5F5F5"/>
<path d="M47.1721 25.5783H42.8273V30.6312H47.1721V25.5783Z" fill="#F5F5F5"/>
<path d="M55.8628 25.5783H51.518V30.6312H55.8628V25.5783Z" fill="#F5F5F5"/>
<path d="M47.1721 30.6312H42.8273V35.6841H47.1721V30.6312Z" fill="#FF4B55"/>
<path d="M42.8286 35.6841H38.4838V40.737H42.8286V35.6841Z" fill="#FF4B55"/>
<path d="M51.5174 35.6841H47.1727V40.737H51.5174V35.6841Z" fill="#FF4B55"/>
<path d="M42.8286 30.6312H38.4838V35.6841H42.8286V30.6312Z" fill="#F5F5F5"/>
<path d="M51.5174 30.6312H47.1727V35.6841H51.5174V30.6312Z" fill="#F5F5F5"/>
<path d="M47.1721 35.6841H42.8273V40.737H47.1721V35.6841Z" fill="#F5F5F5"/>
<path d="M55.862 20.5265V34.7369C55.862 40.8411 50.9989 45.7894 45 45.7894C39.0011 45.7894 34.138 40.841 34.138 34.7369V20.5265H55.862ZM56.6378 19.7368H33.3619V34.7367C33.3619 41.2665 38.5826 46.5787 44.9998 46.5787C51.4171 46.5787 56.6378 41.2663 56.6378 34.7367V19.7368Z" fill="#FF4B55"/>
<path d="M38.4827 35.6841V30.6314H34.138V34.7369C34.138 35.0569 34.1587 35.3711 34.1849 35.6843L38.4827 35.6841Z" fill="#FF4B55"/>
<path d="M55.8151 35.6841H51.5173V40.7367H54.1143C55.0566 39.2577 55.6601 37.5373 55.8151 35.6841Z" fill="#F5F5F5"/>
<path d="M35.8856 40.7369H38.4826V35.6843H34.1849C34.3399 37.5373 34.9432 39.2577 35.8856 40.7369Z" fill="#F5F5F5"/>
<path d="M51.5173 35.6841H55.8149C55.8411 35.3713 55.8619 35.0567 55.8619 34.7367V30.6314H51.5171L51.5173 35.6841Z" fill="#FF4B55"/>
<path d="M38.4827 43.5638L38.4826 40.7369H35.8856C36.5811 41.8288 37.4629 42.7829 38.4827 43.5638Z" fill="#FF4B55"/>
<path d="M54.1141 40.7369H51.5171V43.564C52.5368 42.7829 53.4182 41.8288 54.1141 40.7369Z" fill="#FF4B55"/>
<path d="M38.4827 43.5638C39.7475 44.5324 41.2191 45.2353 42.8275 45.5674V40.7369H38.4826L38.4827 43.5638Z" fill="#F5F5F5"/>
<path d="M47.1723 45.5673C48.7807 45.2351 50.2525 44.532 51.5171 43.5636L51.5173 40.7367H47.1723V45.5673Z" fill="#F5F5F5"/>
<path d="M42.8275 40.7369V45.5676C43.5294 45.7127 44.2559 45.7896 45 45.7896C45.7441 45.7896 46.4704 45.7127 47.1725 45.5676V40.7369H42.8275Z" fill="#FF4B55"/>
<path d="M37.1373 12.1654C36.192 12.0166 35.2248 11.9093 34.2388 11.8472C33.4763 12.486 32.7495 13.1519 32.0595 13.8416C32.7524 15.5435 33.4452 17.2454 34.1378 18.9473C35.5287 18.3611 36.954 17.892 38.3999 17.5401C37.9791 15.7488 37.5581 13.9571 37.1373 12.1654Z" fill="#4173CD"/>
<path d="M47.6371 11.3273C46.7875 10.89 45.9079 10.4856 44.9998 10.1173C44.0919 10.4857 43.2121 10.8901 42.3626 11.3273C42.5037 13.1637 42.6451 15.0001 42.7862 16.8368C44.2596 16.7193 45.74 16.7193 47.2134 16.8368C47.3546 15.0003 47.4959 13.1639 47.6371 11.3273Z" fill="#4173CD"/>
<path d="M57.9403 13.8416C57.2504 13.1521 56.5233 12.4862 55.761 11.8472C54.775 11.9091 53.8079 12.0166 52.8625 12.1654C52.4415 13.9571 52.0207 15.7486 51.5997 17.5401C53.0457 17.892 54.4709 18.3609 55.8619 18.9473C56.5548 17.2452 57.2477 15.5433 57.9403 13.8416Z" fill="#4173CD"/>
<path d="M42.3626 11.3273C41.4566 11.0298 40.5246 10.7696 39.5687 10.5499C38.7253 11.0581 37.9144 11.5977 37.1373 12.1656C37.5581 13.9573 37.9791 15.7486 38.3999 17.5401C39.8459 17.1883 41.3125 16.9542 42.786 16.8368C42.6449 15.0003 42.5037 13.1639 42.3626 11.3273Z" fill="#41479B"/>
<path d="M52.8625 12.1654C52.0852 11.5976 51.2743 11.0577 50.4311 10.5498C49.4752 10.7694 48.543 11.03 47.6372 11.3271C47.4961 13.1635 47.3548 14.9999 47.2136 16.8367C48.6872 16.9538 50.1537 17.1883 51.5997 17.5401C52.0207 15.7486 52.4415 13.9571 52.8625 12.1654Z" fill="#41479B"/>
<path d="M42.532 13.5311C40.8894 13.6616 39.2544 13.923 37.6423 14.3154C37.5581 13.9571 37.4739 13.5987 37.3897 13.2402C39.057 12.8349 40.748 12.5645 42.4471 12.4291C42.4756 12.7965 42.5037 13.1637 42.532 13.5311Z" fill="#FF4B55"/>
<path d="M42.7017 15.7347C41.1718 15.8565 39.649 16.0999 38.1477 16.4652C38.0633 16.1069 37.9793 15.7485 37.8951 15.3904C39.4516 15.0115 41.0307 14.7592 42.6169 14.6331C42.6449 14.9999 42.6734 15.3677 42.7017 15.7347Z" fill="#FF4B55"/>
<path d="M50.155 16.1058C49.7761 16.0373 49.3963 15.9763 49.0155 15.923C48.3894 15.835 47.9231 15.2941 47.9774 14.6862C48.0315 14.0784 48.6301 13.6375 49.3116 13.7334C49.7203 13.7906 50.1282 13.8559 50.5348 13.9296C51.2132 14.0516 51.6523 14.6597 51.5199 15.2543C51.3881 15.8502 50.7785 16.2176 50.155 16.1058Z" fill="#FFE15A"/>
<path d="M56.2776 17.9261C54.8336 17.3176 53.3533 16.8306 51.8523 16.4652C51.9367 16.1069 52.0207 15.7485 52.1049 15.3904C53.6614 15.7688 55.196 16.274 56.6933 16.905C56.5548 17.2452 56.4161 17.5857 56.2776 17.9261Z" fill="#FF4B55"/>
<path d="M55.89 14.6102C55.7365 15.0407 55.219 15.2455 54.73 15.0836C54.2412 14.9216 53.942 14.4487 54.0657 14.0083C54.1895 13.5679 54.7137 13.3349 55.2322 13.5064C55.7513 13.6776 56.0436 14.1796 55.89 14.6102Z" fill="#FFE15A"/>
<path d="M35.9339 14.0085C36.0575 14.4492 35.7581 14.9223 35.2696 15.0838C34.7808 15.2448 34.2633 15.04 34.1096 14.6103C33.956 14.1796 34.2485 13.6777 34.7674 13.5066C35.286 13.3356 35.8105 13.5685 35.9339 14.0085Z" fill="#FFE15A"/>
<path d="M44.752 13.2848C44.753 13.6509 44.4296 13.9491 44.0288 13.9616C43.6282 13.9747 43.2867 13.6967 43.2656 13.332C43.2446 12.9671 43.5677 12.6512 43.9882 12.6375C44.4088 12.6241 44.7504 12.9186 44.752 13.2848Z" fill="#FFE15A"/>
<path d="M46.7341 13.3318C46.7128 13.6974 46.3711 13.9745 45.9708 13.9614C45.5702 13.9489 45.2468 13.6507 45.2477 13.2846C45.2493 12.9188 45.591 12.6233 46.0113 12.6373C46.4319 12.6503 46.7546 12.9668 46.7341 13.3318Z" fill="#FFE15A"/>
<path d="M45.7044 14.9895C45.6943 15.3557 45.3792 15.6436 44.9998 15.6436C44.6208 15.6435 44.3057 15.3558 44.2953 14.9895C44.2854 14.6245 44.6006 14.3179 44.9998 14.3188C45.399 14.3179 45.7142 14.6241 45.7044 14.9895Z" fill="#FFE15A"/>
</g>
<defs>
<clipPath id="clip0_358_5021">
<rect width="90" height="60" fill="white"/>
</clipPath>
</defs>
</svg>
