<svg width="350" height="400" viewBox="0 0 350 400" fill="none" xmlns="http://www.w3.org/2000/svg">
<path d="M185.924 286.09H143.513V345.016H185.924V286.09Z" fill="url(#paint0_linear_124_188)"/>
<path d="M185.924 286.09H143.513V345.016H185.924V286.09Z" fill="url(#paint1_linear_124_188)"/>
<path d="M118.044 321.139H223.694C224.457 321.139 225.213 321.293 225.918 321.592C226.623 321.89 227.264 322.328 227.803 322.88C228.343 323.432 228.771 324.087 229.063 324.808C229.355 325.529 229.505 326.301 229.505 327.082V350.619C229.505 352.194 228.893 353.705 227.804 354.818C226.715 355.933 225.238 356.558 223.698 356.558H118.051C117.288 356.558 116.532 356.404 115.827 356.106C115.122 355.807 114.482 355.37 113.942 354.818C113.402 354.265 112.974 353.611 112.682 352.889C112.39 352.168 112.24 351.396 112.24 350.615V327.075C112.24 325.501 112.851 323.991 113.94 322.878C115.028 321.764 116.505 321.139 118.044 321.139Z" fill="url(#paint2_linear_124_188)"/>
<path d="M82.0846 191.919C69.6774 186.117 56.0797 172.831 46.2664 155.142L19.9204 154.893C26.1314 170.093 35.0707 184.139 46.4318 196.247C65.0028 215.67 80.4559 226.644 95.5264 232.563L82.0846 191.919Z" fill="url(#paint3_linear_124_188)"/>
<path d="M118.044 321.139H223.694C224.457 321.139 225.213 321.293 225.918 321.592C226.623 321.89 227.264 322.328 227.803 322.88C228.343 323.432 228.771 324.087 229.063 324.808C229.355 325.529 229.505 326.301 229.505 327.082V350.619C229.505 352.194 228.893 353.705 227.804 354.818C226.715 355.933 225.238 356.558 223.698 356.558H118.051C117.288 356.558 116.532 356.404 115.827 356.106C115.122 355.807 114.482 355.37 113.942 354.818C113.402 354.265 112.974 353.611 112.682 352.889C112.39 352.168 112.24 351.396 112.24 350.615V327.075C112.24 325.501 112.851 323.991 113.94 322.878C115.028 321.764 116.505 321.139 118.044 321.139Z" fill="url(#paint4_linear_124_188)"/>
<path d="M82.0846 191.919C69.6774 186.117 56.0797 172.831 46.2664 155.142L19.9204 154.893C26.1314 170.093 35.0707 184.139 46.4318 196.247C65.0028 215.67 80.4559 226.644 95.5264 232.563L82.0846 191.919Z" fill="url(#paint5_linear_124_188)"/>
<path d="M22.7693 101.869H144.634V78.425H1.96767V78.7522C0.851644 86.5073 0.195097 94.3246 0.00164222 102.161C-0.0873261 120.398 3.44025 138.281 10.1907 154.801L36.5364 155.05C28.1851 139.996 22.5741 121.755 22.7693 102.225V101.869Z" fill="url(#paint6_linear_124_188)"/>
<path d="M324.989 144.14H349.849C343.781 163.522 333.442 181.427 319.413 196.374C300.845 215.797 285.389 226.772 270.318 232.69L283.778 192.047C298.669 185.083 315.272 167.338 324.989 144.14Z" fill="url(#paint7_linear_124_188)"/>
<path d="M319.934 101.869H198.062V78.425H340.729V78.7522C341.848 86.5073 342.508 94.3246 342.705 102.161C342.774 116.461 340.619 130.543 336.431 143.921H311.571C316.84 131.342 320.085 117.161 319.934 102.225V101.869Z" fill="url(#paint8_linear_124_188)"/>
<path d="M246.818 389.036C246.812 391.83 246.114 394.507 244.875 396.483C243.637 398.459 241.958 399.572 240.206 399.581H101.287C99.5354 399.572 97.8569 398.459 96.618 396.483C95.3795 394.507 94.6812 391.83 94.6756 389.036V354.904C94.6756 352.107 95.3722 349.425 96.612 347.448C97.8522 345.47 99.5337 344.359 101.287 344.359H240.199C241.953 344.359 243.634 345.47 244.874 347.448C246.114 349.425 246.811 352.107 246.811 354.904L246.818 389.036Z" fill="#555C84"/>
<path d="M191.922 289.814V224.754H149.51V289.814H191.922Z" fill="url(#paint9_linear_124_188)"/>
<path d="M191.922 289.814V224.754H149.51V289.814H191.922Z" fill="url(#paint10_linear_124_188)"/>
<path d="M79.2534 205.664H79.3369C79.5631 208.945 80.3522 212.208 81.6948 215.41C85.424 224.222 93.1578 232.385 104.189 239.154C114.444 245.416 127.038 250.419 141.13 253.829C155.223 257.238 170.49 258.976 185.916 258.926C189.886 258.927 193.854 258.814 197.802 258.587C215.594 257.641 232.662 254.279 247.438 248.81C262.215 243.341 274.224 235.941 282.363 227.29C288.534 220.555 291.997 213.182 292.522 205.664H292.595V133.625H79.2534V205.664Z" fill="url(#paint11_linear_124_188)"/>
<path d="M124.107 367.579L121.28 358.099L123.302 358.116L125.109 364.188L126.943 358.116H128.682L130.507 364.188L132.324 358.116H134.346L131.518 367.579H129.907L127.808 361.069L125.718 367.579H124.107ZM139.644 367.842C138.719 367.842 137.91 367.629 137.219 367.203C136.528 366.776 135.991 366.189 135.609 365.441C135.232 364.688 135.043 363.823 135.043 362.848C135.043 361.855 135.237 360.984 135.626 360.237C136.014 359.489 136.554 358.905 137.245 358.484C137.936 358.064 138.736 357.853 139.644 357.853C140.575 357.853 141.386 358.067 142.077 358.493C142.768 358.919 143.306 359.509 143.688 360.263C144.071 361.011 144.262 361.872 144.262 362.848C144.262 363.829 144.068 364.697 143.68 365.45C143.297 366.198 142.76 366.785 142.069 367.211C141.378 367.632 140.569 367.842 139.644 367.842ZM139.644 365.862C140.467 365.862 141.078 365.582 141.478 365.021C141.877 364.46 142.077 363.736 142.077 362.848C142.077 361.931 141.875 361.2 141.469 360.657C141.063 360.108 140.455 359.834 139.644 359.834C139.09 359.834 138.633 359.962 138.273 360.219C137.919 360.47 137.656 360.824 137.485 361.279C137.314 361.729 137.228 362.252 137.228 362.848C137.228 363.765 137.43 364.498 137.836 365.047C138.247 365.59 138.85 365.862 139.644 365.862ZM146.15 367.579V358.116H147.975V360.421L147.752 360.123C147.866 359.807 148.017 359.521 148.206 359.264C148.4 359.001 148.632 358.785 148.9 358.616C149.129 358.458 149.38 358.335 149.654 358.248C149.934 358.154 150.219 358.099 150.511 358.081C150.802 358.058 151.085 358.069 151.359 358.116V360.088C151.085 360.006 150.768 359.979 150.408 360.009C150.054 360.038 149.734 360.14 149.448 360.315C149.163 360.473 148.929 360.675 148.746 360.92C148.569 361.165 148.437 361.446 148.352 361.761C148.266 362.071 148.223 362.407 148.223 362.769V367.579H146.15ZM153.165 367.579V354.699H155.23V367.579H153.165ZM161.507 367.842C160.656 367.842 159.913 367.623 159.279 367.185C158.645 366.747 158.154 366.151 157.805 365.398C157.457 364.644 157.283 363.794 157.283 362.848C157.283 361.89 157.457 361.037 157.805 360.289C158.16 359.536 158.659 358.943 159.305 358.51C159.95 358.072 160.71 357.853 161.584 357.853C162.463 357.853 163.2 358.072 163.794 358.51C164.394 358.943 164.848 359.536 165.157 360.289C165.465 361.043 165.619 361.896 165.619 362.848C165.619 363.788 165.465 364.638 165.157 365.398C164.848 366.151 164.389 366.747 163.777 367.185C163.166 367.623 162.409 367.842 161.507 367.842ZM161.824 365.95C162.378 365.95 162.823 365.821 163.16 365.564C163.503 365.301 163.752 364.936 163.906 364.469C164.066 364.001 164.146 363.461 164.146 362.848C164.146 362.229 164.066 361.688 163.906 361.227C163.752 360.759 163.509 360.397 163.178 360.14C162.846 359.877 162.418 359.746 161.892 359.746C161.338 359.746 160.881 359.886 160.521 360.167C160.162 360.441 159.896 360.815 159.725 361.288C159.553 361.756 159.468 362.275 159.468 362.848C159.468 363.426 159.55 363.952 159.716 364.425C159.887 364.892 160.148 365.263 160.496 365.538C160.844 365.813 161.287 365.95 161.824 365.95ZM164.146 367.579V360.938H163.889V354.962H165.971V367.579H164.146ZM168.63 359.448L168.75 358.537C169.013 358.56 169.221 358.516 169.375 358.405C169.529 358.288 169.632 358.128 169.684 357.923C169.741 357.713 169.755 357.476 169.726 357.214H168.63V354.962H170.746V357.301C170.746 358.067 170.569 358.645 170.215 359.036C169.861 359.427 169.332 359.565 168.63 359.448ZM175.443 367.842C174.301 367.842 173.373 367.579 172.659 367.054C171.945 366.528 171.511 365.789 171.356 364.837L173.464 364.504C173.573 364.971 173.812 365.339 174.184 365.608C174.555 365.876 175.024 366.011 175.589 366.011C176.086 366.011 176.469 365.912 176.737 365.713C177.011 365.508 177.148 365.231 177.148 364.881C177.148 364.665 177.097 364.492 176.994 364.364C176.897 364.229 176.68 364.101 176.343 363.978C176.006 363.855 175.489 363.701 174.792 363.514C174.015 363.303 173.398 363.079 172.942 362.839C172.484 362.594 172.156 362.304 171.956 361.972C171.756 361.639 171.656 361.235 171.656 360.762C171.656 360.172 171.808 359.658 172.11 359.22C172.413 358.782 172.836 358.446 173.379 358.212C173.921 357.973 174.561 357.853 175.298 357.853C176.017 357.853 176.654 357.967 177.208 358.195C177.768 358.423 178.219 358.747 178.562 359.168C178.905 359.588 179.116 360.082 179.196 360.648L177.088 361.034C177.037 360.631 176.857 360.312 176.549 360.079C176.246 359.845 175.84 359.714 175.332 359.685C174.846 359.655 174.455 359.731 174.158 359.912C173.861 360.088 173.713 360.336 173.713 360.657C173.713 360.838 173.773 360.993 173.893 361.122C174.013 361.25 174.252 361.379 174.612 361.507C174.978 361.636 175.52 361.793 176.24 361.98C176.977 362.173 177.565 362.395 178.005 362.646C178.451 362.892 178.77 363.186 178.965 363.531C179.164 363.876 179.265 364.294 179.265 364.784C179.265 365.736 178.925 366.484 178.245 367.027C177.571 367.571 176.637 367.842 175.443 367.842ZM189.018 367.842C188.116 367.842 187.359 367.623 186.748 367.185C186.137 366.747 185.677 366.151 185.368 365.398C185.06 364.638 184.906 363.788 184.906 362.848C184.906 361.896 185.06 361.043 185.368 360.289C185.677 359.536 186.128 358.943 186.722 358.51C187.322 358.072 188.062 357.853 188.941 357.853C189.815 357.853 190.572 358.072 191.212 358.51C191.857 358.943 192.357 359.536 192.711 360.289C193.065 361.037 193.242 361.89 193.242 362.848C193.242 363.794 193.068 364.644 192.72 365.398C192.371 366.151 191.88 366.747 191.246 367.185C190.612 367.623 189.87 367.842 189.018 367.842ZM184.555 367.579V354.962H186.637V360.938H186.38V367.579H184.555ZM188.701 365.95C189.238 365.95 189.681 365.813 190.029 365.538C190.378 365.263 190.635 364.892 190.801 364.425C190.972 363.952 191.058 363.426 191.058 362.848C191.058 362.275 190.972 361.756 190.801 361.288C190.629 360.815 190.364 360.441 190.004 360.167C189.644 359.886 189.187 359.746 188.633 359.746C188.107 359.746 187.679 359.877 187.348 360.14C187.017 360.397 186.771 360.759 186.611 361.227C186.457 361.688 186.38 362.229 186.38 362.848C186.38 363.461 186.457 364.001 186.611 364.469C186.771 364.936 187.019 365.301 187.356 365.564C187.699 365.821 188.147 365.95 188.701 365.95ZM199.338 367.842C198.401 367.842 197.579 367.635 196.87 367.22C196.162 366.805 195.608 366.23 195.208 365.494C194.814 364.758 194.617 363.911 194.617 362.953C194.617 361.919 194.811 361.022 195.199 360.263C195.588 359.497 196.128 358.905 196.819 358.484C197.51 358.064 198.309 357.853 199.218 357.853C200.177 357.853 200.991 358.084 201.66 358.545C202.334 359.001 202.833 359.646 203.159 360.482C203.485 361.317 203.607 362.301 203.527 363.435H201.48V362.664C201.474 361.635 201.297 360.885 200.948 360.412C200.6 359.939 200.052 359.702 199.303 359.702C198.458 359.702 197.83 359.971 197.418 360.508C197.007 361.04 196.802 361.819 196.802 362.848C196.802 363.806 197.007 364.548 197.418 365.073C197.83 365.599 198.429 365.862 199.218 365.862C199.726 365.862 200.163 365.748 200.529 365.52C200.9 365.287 201.186 364.951 201.385 364.513L203.425 365.143C203.071 365.997 202.522 366.659 201.779 367.133C201.043 367.606 200.229 367.842 199.338 367.842ZM196.15 363.435V361.84H202.516V363.435H196.15ZM209.012 367.842C207.87 367.842 206.942 367.579 206.228 367.054C205.513 366.528 205.079 365.789 204.925 364.837L207.033 364.504C207.141 364.971 207.381 365.339 207.753 365.608C208.124 365.876 208.592 366.011 209.158 366.011C209.655 366.011 210.037 365.912 210.306 365.713C210.58 365.508 210.717 365.231 210.717 364.881C210.717 364.665 210.666 364.492 210.563 364.364C210.466 364.229 210.249 364.101 209.912 363.978C209.575 363.855 209.058 363.701 208.361 363.514C207.584 363.303 206.967 363.079 206.51 362.839C206.053 362.594 205.725 362.304 205.525 361.972C205.325 361.639 205.225 361.235 205.225 360.762C205.225 360.172 205.376 359.658 205.679 359.22C205.982 358.782 206.404 358.446 206.947 358.212C207.49 357.973 208.13 357.853 208.866 357.853C209.586 357.853 210.223 357.967 210.777 358.195C211.337 358.423 211.788 358.747 212.131 359.168C212.474 359.588 212.685 360.082 212.765 360.648L210.657 361.034C210.606 360.631 210.426 360.312 210.117 360.079C209.815 359.845 209.409 359.714 208.901 359.685C208.415 359.655 208.024 359.731 207.727 359.912C207.43 360.088 207.281 360.336 207.281 360.657C207.281 360.838 207.341 360.993 207.461 361.122C207.581 361.25 207.821 361.379 208.181 361.507C208.546 361.636 209.089 361.793 209.809 361.98C210.546 362.173 211.134 362.395 211.574 362.646C212.019 362.892 212.339 363.186 212.534 363.531C212.734 363.876 212.833 364.294 212.833 364.784C212.833 365.736 212.494 366.484 211.814 367.027C211.14 367.571 210.206 367.842 209.012 367.842ZM220.134 367.579C219.522 367.696 218.923 367.746 218.334 367.728C217.752 367.717 217.229 367.609 216.767 367.404C216.304 367.194 215.953 366.864 215.713 366.414C215.501 366.005 215.39 365.587 215.379 365.161C215.367 364.735 215.361 364.253 215.361 363.715V355.487H217.418V363.593C217.418 363.972 217.42 364.305 217.426 364.591C217.437 364.878 217.497 365.112 217.606 365.292C217.812 365.643 218.14 365.839 218.592 365.88C219.043 365.92 219.557 365.897 220.134 365.809V367.579ZM213.682 359.772V358.116H220.134V359.772H213.682Z" fill="#FFE06E"/>
<path d="M129.61 392.007C128.055 392.007 126.724 391.661 125.616 390.969C124.507 390.27 123.655 389.299 123.057 388.054C122.467 386.811 122.172 385.368 122.172 383.727C122.172 382.085 122.467 380.643 123.057 379.399C123.655 378.155 124.507 377.187 125.616 376.495C126.724 375.796 128.055 375.446 129.61 375.446C131.402 375.446 132.895 375.906 134.09 376.826C135.285 377.739 136.123 378.972 136.606 380.525L133.982 381.264C133.68 380.227 133.165 379.417 132.438 378.836C131.712 378.247 130.769 377.952 129.61 377.952C128.567 377.952 127.696 378.191 126.998 378.67C126.307 379.148 125.785 379.822 125.432 380.69C125.087 381.552 124.911 382.564 124.903 383.727C124.903 384.889 125.076 385.905 125.421 386.774C125.774 387.635 126.299 388.305 126.998 388.783C127.696 389.262 128.567 389.501 129.61 389.501C130.769 389.501 131.712 389.207 132.438 388.618C133.165 388.029 133.68 387.219 133.982 386.189L136.606 386.928C136.123 388.481 135.285 389.718 134.09 390.638C132.895 391.55 131.402 392.007 129.61 392.007ZM146.463 392.007C145.326 392.007 144.301 391.805 143.386 391.4C142.48 390.995 141.731 390.417 141.141 389.667C140.558 388.908 140.187 388.011 140.029 386.973L142.728 386.553C142.958 387.495 143.43 388.224 144.142 388.739C144.862 389.254 145.69 389.512 146.625 389.512C147.18 389.512 147.701 389.423 148.191 389.247C148.68 389.07 149.076 388.813 149.378 388.474C149.687 388.135 149.842 387.72 149.842 387.226C149.842 387.005 149.806 386.803 149.734 386.619C149.662 386.428 149.555 386.259 149.411 386.111C149.273 385.964 149.094 385.832 148.871 385.714C148.655 385.589 148.403 385.482 148.115 385.394L144.099 384.179C143.754 384.076 143.379 383.94 142.976 383.771C142.58 383.594 142.202 383.355 141.843 383.053C141.49 382.744 141.199 382.354 140.968 381.883C140.745 381.405 140.634 380.816 140.634 380.117C140.634 379.093 140.886 378.236 141.389 377.544C141.9 376.845 142.584 376.322 143.44 375.976C144.304 375.63 145.261 375.461 146.312 375.468C147.377 375.476 148.327 375.664 149.162 376.032C149.997 376.392 150.695 376.918 151.257 377.61C151.818 378.302 152.214 379.137 152.444 380.117L149.648 380.613C149.533 380.054 149.309 379.579 148.979 379.189C148.655 378.792 148.255 378.49 147.78 378.283C147.312 378.078 146.812 377.967 146.28 377.952C145.762 377.945 145.279 378.026 144.833 378.195C144.394 378.357 144.038 378.593 143.764 378.902C143.498 379.211 143.365 379.572 143.365 379.984C143.365 380.374 143.48 380.694 143.71 380.945C143.941 381.187 144.225 381.382 144.563 381.529C144.909 381.669 145.258 381.787 145.61 381.883L148.396 382.678C148.777 382.781 149.205 382.92 149.68 383.097C150.155 383.274 150.612 383.521 151.051 383.837C151.49 384.153 151.85 384.57 152.131 385.085C152.419 385.6 152.563 386.255 152.563 387.05C152.563 387.874 152.394 388.599 152.056 389.225C151.724 389.843 151.275 390.358 150.706 390.771C150.137 391.182 149.486 391.492 148.752 391.698C148.025 391.904 147.262 392.007 146.463 392.007ZM162.049 392.007C160.912 392.007 159.887 391.805 158.972 391.4C158.066 390.995 157.317 390.417 156.727 389.667C156.144 388.908 155.774 388.011 155.615 386.973L158.314 386.553C158.544 387.495 159.016 388.224 159.728 388.739C160.448 389.254 161.275 389.512 162.211 389.512C162.765 389.512 163.287 389.423 163.776 389.247C164.266 389.07 164.662 388.813 164.964 388.474C165.274 388.135 165.428 387.72 165.428 387.226C165.428 387.005 165.392 386.803 165.32 386.619C165.248 386.428 165.14 386.259 164.997 386.111C164.86 385.964 164.68 385.832 164.457 385.714C164.241 385.589 163.989 385.482 163.701 385.394L159.685 384.179C159.34 384.076 158.966 383.94 158.562 383.771C158.167 383.594 157.789 383.355 157.429 383.053C157.076 382.744 156.785 382.354 156.555 381.883C156.331 381.405 156.22 380.816 156.22 380.117C156.22 379.093 156.471 378.236 156.975 377.544C157.486 376.845 158.17 376.322 159.026 375.976C159.89 375.63 160.847 375.461 161.898 375.468C162.963 375.476 163.914 375.664 164.748 376.032C165.583 376.392 166.281 376.918 166.842 377.61C167.404 378.302 167.8 379.137 168.03 380.117L165.234 380.613C165.119 380.054 164.896 379.579 164.565 379.189C164.241 378.792 163.842 378.49 163.366 378.283C162.899 378.078 162.398 377.967 161.866 377.952C161.347 377.945 160.865 378.026 160.419 378.195C159.98 378.357 159.624 378.593 159.35 378.902C159.084 379.211 158.951 379.572 158.951 379.984C158.951 380.374 159.066 380.694 159.296 380.945C159.527 381.187 159.811 381.382 160.149 381.529C160.495 381.669 160.844 381.787 161.197 381.883L163.982 382.678C164.363 382.781 164.791 382.92 165.266 383.097C165.741 383.274 166.199 383.521 166.637 383.837C167.076 384.153 167.436 384.57 167.717 385.085C168.005 385.6 168.149 386.255 168.149 387.05C168.149 387.874 167.98 388.599 167.641 389.225C167.31 389.843 166.86 390.358 166.292 390.771C165.724 391.182 165.072 391.492 164.338 391.698C163.611 391.904 162.848 392.007 162.049 392.007ZM176.967 391.676V375.777H181.922C182.052 375.777 182.308 375.781 182.689 375.788C183.077 375.796 183.452 375.822 183.812 375.866C185.042 376.028 186.082 376.477 186.932 377.213C187.788 377.941 188.436 378.872 188.875 380.006C189.314 381.14 189.533 382.38 189.533 383.727C189.533 385.073 189.314 386.314 188.875 387.447C188.436 388.581 187.788 389.515 186.932 390.251C186.082 390.98 185.042 391.426 183.812 391.587C183.459 391.632 183.088 391.657 182.7 391.665C182.311 391.672 182.052 391.676 181.922 391.676H176.967ZM179.612 389.17H181.922C182.138 389.17 182.412 389.162 182.743 389.147C183.081 389.133 183.38 389.1 183.639 389.048C184.373 388.908 184.971 388.573 185.431 388.043C185.892 387.514 186.23 386.87 186.446 386.111C186.669 385.353 186.78 384.558 186.78 383.727C186.78 382.865 186.669 382.056 186.446 381.298C186.223 380.54 185.877 379.903 185.409 379.388C184.949 378.872 184.359 378.545 183.639 378.405C183.38 378.346 183.081 378.313 182.743 378.306C182.412 378.291 182.138 378.283 181.922 378.283H179.612V389.17ZM198.465 392.007C197.285 392.007 196.249 391.746 195.356 391.223C194.464 390.701 193.766 389.975 193.262 389.048C192.765 388.121 192.517 387.054 192.517 385.846C192.517 384.544 192.762 383.414 193.251 382.457C193.741 381.493 194.421 380.746 195.291 380.216C196.162 379.686 197.17 379.421 198.314 379.421C199.524 379.421 200.549 379.712 201.391 380.293C202.24 380.867 202.87 381.681 203.28 382.733C203.691 383.785 203.845 385.026 203.745 386.453H201.164V385.482C201.157 384.187 200.934 383.241 200.495 382.644C200.056 382.049 199.365 381.75 198.422 381.75C197.357 381.75 196.565 382.089 196.047 382.766C195.529 383.436 195.27 384.418 195.27 385.714C195.27 386.921 195.529 387.856 196.047 388.518C196.565 389.181 197.321 389.512 198.314 389.512C198.955 389.512 199.506 389.368 199.966 389.081C200.434 388.787 200.794 388.364 201.046 387.812L203.615 388.606C203.169 389.681 202.478 390.517 201.542 391.113C200.614 391.709 199.588 392.007 198.465 392.007ZM194.45 386.453V384.444H202.471V386.453H194.45ZM209.964 391.676L205.731 379.752H208.333L211.27 388.397L214.195 379.752H216.808L212.576 391.676H209.964ZM224.704 392.007C223.524 392.007 222.487 391.746 221.595 391.223C220.702 390.701 220.004 389.975 219.5 389.048C219.004 388.121 218.756 387.054 218.756 385.846C218.756 384.544 219 383.414 219.489 382.457C219.979 381.493 220.659 380.746 221.53 380.216C222.401 379.686 223.408 379.421 224.553 379.421C225.762 379.421 226.787 379.712 227.629 380.293C228.478 380.867 229.108 381.681 229.519 382.733C229.929 383.785 230.084 385.026 229.983 386.453H227.403V385.482C227.395 384.187 227.172 383.241 226.733 382.644C226.295 382.049 225.603 381.75 224.661 381.75C223.596 381.75 222.804 382.089 222.286 382.766C221.767 383.436 221.508 384.418 221.508 385.714C221.508 386.921 221.767 387.856 222.286 388.518C222.804 389.181 223.56 389.512 224.553 389.512C225.193 389.512 225.744 389.368 226.205 389.081C226.672 388.787 227.032 388.364 227.284 387.812L229.853 388.606C229.407 389.681 228.716 390.517 227.781 391.113C226.852 391.709 225.827 392.007 224.704 392.007ZM220.688 386.453V384.444H228.709V386.453H220.688ZM233.687 391.676V375.446H236.289V391.676H233.687ZM245.751 392.007C244.586 392.007 243.567 391.738 242.697 391.201C241.826 390.664 241.149 389.924 240.667 388.982C240.192 388.032 239.954 386.943 239.954 385.714C239.954 384.463 240.199 383.366 240.689 382.424C241.178 381.482 241.858 380.746 242.729 380.216C243.6 379.686 244.607 379.421 245.751 379.421C246.925 379.421 247.947 379.689 248.817 380.227C249.688 380.764 250.365 381.508 250.847 382.457C251.329 383.399 251.57 384.485 251.57 385.714C251.57 386.95 251.326 388.043 250.836 388.993C250.354 389.935 249.678 390.675 248.807 391.212C247.936 391.742 246.917 392.007 245.751 392.007ZM245.751 389.512C246.788 389.512 247.558 389.158 248.062 388.452C248.566 387.745 248.817 386.833 248.817 385.714C248.817 384.558 248.562 383.638 248.051 382.954C247.54 382.262 246.774 381.916 245.751 381.916C245.054 381.916 244.478 382.078 244.024 382.402C243.578 382.718 243.247 383.164 243.031 383.738C242.815 384.304 242.707 384.963 242.707 385.714C242.707 386.87 242.963 387.793 243.474 388.485C243.992 389.17 244.751 389.512 245.751 389.512ZM260.631 392.007C259.494 392.007 258.541 391.731 257.771 391.179C257.001 390.627 256.421 389.876 256.033 388.927C255.644 387.97 255.449 386.899 255.449 385.714C255.449 384.514 255.644 383.44 256.033 382.49C256.421 381.54 256.99 380.793 257.738 380.249C258.494 379.697 259.426 379.421 260.535 379.421C261.635 379.421 262.589 379.697 263.395 380.249C264.208 380.793 264.838 381.54 265.285 382.49C265.731 383.432 265.954 384.507 265.954 385.714C265.954 386.906 265.734 387.977 265.295 388.927C264.856 389.876 264.237 390.627 263.438 391.179C262.64 391.731 261.704 392.007 260.631 392.007ZM255.007 396.975V379.752H257.307V388.121H257.63V396.975H255.007ZM260.232 389.622C260.909 389.622 261.466 389.449 261.905 389.103C262.345 388.758 262.668 388.29 262.877 387.701C263.093 387.105 263.201 386.443 263.201 385.714C263.201 384.993 263.093 384.337 262.877 383.749C262.661 383.153 262.327 382.681 261.873 382.336C261.42 381.982 260.844 381.805 260.146 381.805C259.484 381.805 258.944 381.971 258.526 382.302C258.109 382.626 257.8 383.083 257.598 383.671C257.404 384.253 257.307 384.934 257.307 385.714C257.307 386.487 257.404 387.168 257.598 387.756C257.8 388.345 258.112 388.805 258.537 389.136C258.969 389.46 259.534 389.622 260.232 389.622ZM274.714 392.007C273.533 392.007 272.497 391.746 271.604 391.223C270.712 390.701 270.014 389.975 269.51 389.048C269.013 388.121 268.765 387.054 268.765 385.846C268.765 384.544 269.01 383.414 269.499 382.457C269.989 381.493 270.669 380.746 271.54 380.216C272.411 379.686 273.418 379.421 274.562 379.421C275.771 379.421 276.797 379.712 277.639 380.293C278.488 380.867 279.118 381.681 279.528 382.733C279.939 383.785 280.093 385.026 279.993 386.453H277.412V385.482C277.405 384.187 277.182 383.241 276.743 382.644C276.304 382.049 275.613 381.75 274.67 381.75C273.605 381.75 272.814 382.089 272.295 382.766C271.777 383.436 271.518 384.418 271.518 385.714C271.518 386.921 271.777 387.856 272.295 388.518C272.814 389.181 273.569 389.512 274.562 389.512C275.203 389.512 275.753 389.368 276.214 389.081C276.682 388.787 277.042 388.364 277.294 387.812L279.863 388.606C279.417 389.681 278.726 390.517 277.79 391.113C276.862 391.709 275.836 392.007 274.714 392.007ZM270.697 386.453V384.444H278.719V386.453H270.697ZM283.481 391.676V379.752H285.78V382.656L285.5 382.28C285.644 381.883 285.834 381.522 286.072 381.198C286.317 380.867 286.608 380.595 286.946 380.381C287.234 380.183 287.551 380.028 287.896 379.918C288.249 379.8 288.609 379.73 288.976 379.708C289.343 379.678 289.699 379.693 290.045 379.752V382.236C289.699 382.133 289.3 382.1 288.846 382.137C288.4 382.173 287.997 382.302 287.637 382.523C287.277 382.722 286.982 382.976 286.752 383.285C286.529 383.594 286.363 383.947 286.255 384.345C286.148 384.735 286.094 385.158 286.094 385.614V391.676H283.481Z" fill="#FFE06E"/>
<path d="M281.457 0H72.399V133.625H281.457V0Z" fill="url(#paint12_linear_124_188)"/>
<path d="M247.185 0H204.345V133.625H247.185V0Z" fill="url(#paint13_linear_124_188)" fill-opacity="0.15"/>
<path d="M240.759 135.378H197.919V255.422H240.759V135.378Z" fill="url(#paint14_linear_124_188)" fill-opacity="0.15"/>
<defs>
<linearGradient id="paint0_linear_124_188" x1="0" y1="200" x2="350" y2="200" gradientUnits="userSpaceOnUse">
<stop stop-color="#FACE00"/>
<stop offset="1" stop-color="#F68600"/>
</linearGradient>
<linearGradient id="paint1_linear_124_188" x1="0" y1="200" x2="350" y2="200" gradientUnits="userSpaceOnUse">
<stop stop-color="#FACE00"/>
<stop offset="1" stop-color="#F68600"/>
</linearGradient>
<linearGradient id="paint2_linear_124_188" x1="187.091" y1="-2581.48" x2="187.091" y2="650.116" gradientUnits="userSpaceOnUse">
<stop stop-color="#FACE00"/>
<stop offset="1" stop-color="#F68600"/>
</linearGradient>
<linearGradient id="paint3_linear_124_188" x1="312.673" y1="-1066.46" x2="312.673" y2="-804.933" gradientUnits="userSpaceOnUse">
<stop stop-color="#FACE00"/>
<stop offset="1" stop-color="#F68600"/>
</linearGradient>
<linearGradient id="paint4_linear_124_188" x1="187.091" y1="-2581.48" x2="187.091" y2="650.116" gradientUnits="userSpaceOnUse">
<stop stop-color="#FACE00"/>
<stop offset="1" stop-color="#F68600"/>
</linearGradient>
<linearGradient id="paint5_linear_124_188" x1="312.673" y1="-1066.46" x2="312.673" y2="-804.933" gradientUnits="userSpaceOnUse">
<stop stop-color="#FACE00"/>
<stop offset="1" stop-color="#F68600"/>
</linearGradient>
<linearGradient id="paint6_linear_124_188" x1="423.299" y1="-121.336" x2="423.299" y2="576.345" gradientUnits="userSpaceOnUse">
<stop stop-color="#FACE00"/>
<stop offset="1" stop-color="#F68600"/>
</linearGradient>
<linearGradient id="paint7_linear_124_188" x1="59.3432" y1="-346.943" x2="59.3432" y2="-47.0682" gradientUnits="userSpaceOnUse">
<stop stop-color="#FACE00"/>
<stop offset="1" stop-color="#F68600"/>
</linearGradient>
<linearGradient id="paint8_linear_124_188" x1="175" y1="-39.1077" x2="175" y2="185.759" gradientUnits="userSpaceOnUse">
<stop stop-color="#FACE00"/>
<stop offset="1" stop-color="#F68600"/>
</linearGradient>
<linearGradient id="paint9_linear_124_188" x1="-579.798" y1="-80.1347" x2="1180.81" y2="-80.1347" gradientUnits="userSpaceOnUse">
<stop stop-color="#FACE00"/>
<stop offset="1" stop-color="#F68600"/>
</linearGradient>
<linearGradient id="paint10_linear_124_188" x1="-579.798" y1="-80.1347" x2="1180.81" y2="-80.1347" gradientUnits="userSpaceOnUse">
<stop stop-color="#FACE00"/>
<stop offset="1" stop-color="#F68600"/>
</linearGradient>
<linearGradient id="paint11_linear_124_188" x1="81.4221" y1="211.268" x2="294.001" y2="211.268" gradientUnits="userSpaceOnUse">
<stop stop-color="#FACE00"/>
<stop offset="1" stop-color="#F68600"/>
</linearGradient>
<linearGradient id="paint12_linear_124_188" x1="350" y1="382.295" x2="0" y2="382.295" gradientUnits="userSpaceOnUse">
<stop stop-color="#F68600"/>
<stop offset="1" stop-color="#FACE00"/>
</linearGradient>
<linearGradient id="paint13_linear_124_188" x1="630" y1="382.295" x2="-1078" y2="382.295" gradientUnits="userSpaceOnUse">
<stop stop-color="white" stop-opacity="0.2"/>
<stop offset="0.5" stop-color="white"/>
<stop offset="1" stop-color="white" stop-opacity="0.2"/>
</linearGradient>
<linearGradient id="paint14_linear_124_188" x1="240.759" y1="195.4" x2="197.919" y2="195.4" gradientUnits="userSpaceOnUse">
<stop stop-color="white" stop-opacity="0.2"/>
<stop offset="0.5" stop-color="white"/>
<stop offset="1" stop-color="white" stop-opacity="0.2"/>
</linearGradient>
</defs>
</svg>
