<svg width="40" height="40" viewBox="0 0 40 40" fill="none" xmlns="http://www.w3.org/2000/svg">
<path d="M38.5537 20.0177C38.5283 20.3911 38.5179 20.6964 38.5179 20.8426C38.5179 21.1877 38.2767 21.4757 37.9538 21.548L37.0039 21.8397C36.9333 21.8612 36.862 21.8719 36.792 21.8719V21.8738H36.641C36.3044 21.8738 36.0212 21.6434 35.9411 21.3315L35.1091 18.7967L35.1071 18.7905L35.1062 18.7909L34.9551 18.3133L33.546 20.8449C33.4851 20.9539 33.4008 21.0412 33.3021 21.1033L33.3031 21.1046L32.5687 21.5705C32.2318 21.784 31.7855 21.6844 31.5717 21.3475C31.5176 21.2622 31.4838 21.1701 31.4688 21.0767L30.7546 17.0659L29.6736 16.3L27.1368 15.8472C27.2237 15.9849 27.312 16.121 27.3992 16.2554C27.851 16.9527 28.2732 17.604 28.4132 18.2752C28.6388 19.3543 28.2361 20.2567 26.4396 20.9012C26.4913 20.9324 26.5424 20.9666 26.5932 21.0054C27.2931 21.5408 27.4617 22.3305 25.9353 24.3243C25.5499 24.8279 25.2185 25.2729 24.9402 25.6596C24.7215 25.964 24.5174 26.2569 24.3296 26.5385L24.673 29.0372C24.7192 29.3738 24.6385 29.7013 24.4217 30.0167C24.2609 30.2507 24.0232 30.4731 23.7049 30.6817C23.4946 30.8197 23.3149 30.9584 23.1678 31.0974C23.1095 31.1521 23.0568 31.2068 23.0089 31.2608L23.1668 31.9747C23.2423 32.3168 23.0613 32.6557 22.7518 32.7901L22.7521 32.7907L22.4874 32.906C22.435 33.1111 22.3595 33.3122 22.2625 33.5095C22.1056 33.8265 21.8882 34.1364 21.6112 34.4385C21.3162 34.7611 20.9914 35.0052 20.6372 35.1706C20.2674 35.3435 19.8778 35.4297 19.4673 35.4297H18.1952C17.7961 35.4297 17.4722 35.1062 17.4722 34.7067C17.4722 34.3803 17.4325 34.0339 17.354 33.6667C17.2726 33.2868 17.1486 32.8799 16.9826 32.4457C16.7954 31.9561 16.6525 31.5131 16.5542 31.1166C16.4494 30.6941 16.397 30.3282 16.397 30.0183C16.397 29.7416 16.4208 29.4939 16.4683 29.2748C16.5246 29.0134 16.6154 28.7914 16.7404 28.6082C16.7534 28.589 16.7681 28.5343 16.7847 28.4435C16.8101 28.3038 16.8231 28.1121 16.8231 27.867C16.8231 27.6804 16.7909 27.4842 16.7274 27.2784C16.6568 27.0506 16.5477 26.8074 16.4012 26.5506C16.2183 26.2299 16.0803 25.9711 15.9875 25.7749C15.854 25.4933 15.7873 25.2674 15.7873 25.0997C15.7873 23.9197 15.3827 23.6596 14.8208 23.6596C14.4833 23.6596 14.1034 23.7111 13.7085 23.7648C13.2167 23.8315 12.7046 23.9008 12.2017 23.9008C11.8225 23.9008 11.4481 23.7277 11.0829 23.3839C10.8137 23.1307 10.5321 22.7635 10.2421 22.2853C9.97909 21.852 9.78052 21.5021 9.64575 21.2384C9.46021 20.8752 9.36776 20.5968 9.36776 20.4106C9.36776 19.9344 9.36744 19.8937 9.36711 19.8556C9.34791 17.8498 9.33033 15.953 11.2649 14.5552C12.067 13.4149 12.7893 12.6754 13.6581 12.2047C14.5627 11.7144 15.5692 11.5429 16.9302 11.5429C17.3293 11.5429 17.6532 11.8668 17.6532 12.2659V13.2909L18.5204 13.6705L18.5327 13.6115C18.6154 13.2219 18.9985 12.9729 19.3882 13.0552L19.3911 13.0559V13.0552C19.6593 13.1132 19.9035 13.1819 20.1255 13.2626C20.3631 13.3492 20.5685 13.4478 20.7433 13.5604C20.8348 13.6197 20.9992 13.6721 21.1964 13.7066C21.4171 13.745 21.6538 13.7528 21.8537 13.7131C21.9598 13.6919 22.0392 13.6669 22.0623 13.6395L22.0626 13.6376C22.0623 13.6376 22.062 13.6376 22.0623 13.6369L22.0669 13.6138C22.0851 13.5061 22.1007 13.397 22.1141 13.287L21.2557 13.3635C20.9471 13.3902 20.6671 13.2183 20.5425 12.9537L20.5412 12.954C20.258 12.3583 19.6597 12.0526 18.9087 11.6695C18.1014 11.2574 17.1509 10.772 16.1271 9.79745C12.6724 11.023 11.5686 11.1916 11.2919 10.4211C11.1291 9.96932 11.3629 9.60767 11.6776 9.12069C11.9615 8.68157 12.3655 8.05723 12.3655 7.47064C12.3655 7.15652 12.5663 6.88894 12.8466 6.78933L15.7548 5.46089H15.7541C15.4406 5.40555 15.0523 5.33655 14.7303 3.77178C14.6646 3.45049 14.8241 3.13539 15.1005 2.99021L15.1001 2.98956C15.327 2.87009 15.5933 2.70701 15.899 2.49998C16.2089 2.29002 16.5796 2.02049 17.0119 1.69042L17.0392 1.66958C15.5607 1.89972 14.1392 2.30565 12.7763 2.888L12.7766 2.88897C11.6392 3.37823 10.579 3.95114 9.59758 4.60934C8.61451 5.26916 7.70371 6.01818 6.86583 6.85899L6.8629 6.86192C6.02209 7.69981 5.27307 8.61061 4.61357 9.59367C3.95505 10.5748 3.38213 11.635 2.89288 12.7727C2.88767 12.7844 2.88246 12.7958 2.87693 12.8072C2.40232 13.9192 2.04686 15.0721 1.8076 16.2661C1.56639 17.4715 1.44595 18.7163 1.44595 19.9998C1.44595 21.2834 1.56672 22.5285 1.80793 23.7339C1.82095 23.7986 1.8343 23.8637 1.84829 23.9292L5.19169 25.5278C5.44169 25.6476 5.59143 25.8927 5.60054 26.1518C5.63635 27.1075 5.38179 27.8142 5.12008 28.5392C4.92542 29.0782 4.72652 29.6296 4.69462 30.2787C4.69137 30.3474 4.67867 30.4132 4.65784 30.4753C5.30595 31.4317 6.03934 32.3194 6.85997 33.1374L6.8629 33.1404C7.70046 33.9812 8.61158 34.7302 9.59465 35.3897C10.5758 36.0479 11.636 36.6211 12.7737 37.1104C12.7854 37.1153 12.7968 37.1205 12.8082 37.1263C13.9195 37.598 15.0728 37.9535 16.2668 38.1924C17.4722 38.4336 18.717 38.5541 20.0005 38.5541C21.2837 38.5541 22.5288 38.4336 23.7339 38.1924C24.9406 37.9509 26.1053 37.5902 27.2273 37.1114L27.2267 37.1104C28.3644 36.6211 29.4246 36.0479 30.406 35.3897C31.3887 34.7302 32.2995 33.9808 33.1378 33.14L33.1407 33.1374C33.9812 32.2999 34.7305 31.3887 35.3897 30.4057C36.0482 29.4246 36.6211 28.3644 37.1104 27.2267C37.1156 27.2149 37.1205 27.2036 37.1263 27.1922C37.5983 26.0808 37.9538 24.9279 38.1927 23.7342C38.432 22.534 38.5527 21.2951 38.5537 20.0177ZM12.206 1.56281C14.6438 0.520829 17.2443 0 19.9998 0C21.3768 0 22.716 0.129882 24.0154 0.389971C25.2989 0.64713 26.5467 1.03287 27.7573 1.54719C27.7703 1.55207 27.7836 1.55728 27.7966 1.56281C29.0043 2.08234 30.1417 2.69822 31.2071 3.41338C32.2699 4.12627 33.2533 4.93486 34.1563 5.84077L34.1592 5.8437C35.0651 6.74669 35.8737 7.73008 36.5866 8.7929C37.3011 9.85799 37.9177 10.9957 38.4372 12.2034L38.4359 12.2037L38.4372 12.206C38.9593 13.428 39.3503 14.6877 39.61 15.9839C39.8701 17.2834 40 18.6226 40 19.9998C40 21.3771 39.8701 22.7163 39.61 24.0158C39.3532 25.2996 38.9668 26.5473 38.4525 27.7579C38.4476 27.7709 38.4427 27.7836 38.4372 27.7966C37.9177 29.0043 37.3015 30.1417 36.5866 31.2071C35.8737 32.2699 35.0651 33.2533 34.1592 34.1563L34.1563 34.1592C33.2536 35.0651 32.2699 35.8737 31.2071 36.5866C30.142 37.3015 29.0043 37.9177 27.7966 38.4372L27.7963 38.4362L27.7937 38.4372C26.5717 38.9593 25.312 39.3506 24.0158 39.61C22.716 39.8701 21.3771 40 19.9998 40C18.6226 40 17.2834 39.8701 15.9839 39.61C14.7004 39.3532 13.453 38.9675 12.2424 38.4528C12.2291 38.4479 12.216 38.443 12.203 38.4372C10.9954 37.9177 9.85799 37.3018 8.79225 36.5866C7.72975 35.8737 6.74604 35.0651 5.84305 34.1592L5.84012 34.1563C4.93453 33.2536 4.12594 32.2699 3.41306 31.2071C2.69822 30.142 2.08201 29.0043 1.56249 27.7966L1.56346 27.796L1.56249 27.7937C1.04036 26.5717 0.649083 25.3123 0.389645 24.0158C0.130207 22.716 0 21.3771 0 19.9995C0 18.6222 0.130207 17.2831 0.390296 15.9836C0.64713 14.7001 1.03319 13.4524 1.54784 12.2414C1.55272 12.2284 1.5576 12.2157 1.56314 12.2027C2.08267 10.995 2.69855 9.85734 3.41371 8.79225C4.12659 7.72975 4.93518 6.74604 5.84077 5.84305L5.8437 5.84012C6.74669 4.9342 7.73041 4.12562 8.7929 3.41273C9.85832 2.69789 10.996 2.08169 12.2037 1.56216L12.204 1.56314L12.206 1.56281ZM3.15134 27.2475C3.30857 27.6114 3.48044 27.9718 3.66664 28.3266C3.69919 28.2348 3.73174 28.1433 3.76462 28.0528C3.93291 27.587 4.09762 27.1303 4.14743 26.6241L2.63019 25.8989C2.78188 26.3491 2.95538 26.7983 3.15134 27.2449L3.15037 27.2452L3.15134 27.2475ZM28.2371 3.50095C27.5665 3.16371 26.8686 2.86554 26.1433 2.60773C23.4588 3.22589 22.6824 2.85512 21.8214 2.44334C21.3836 2.23403 20.9165 2.0104 19.8859 2.0104H19.2694C19.2072 2.0104 19.0773 2.06313 18.8794 2.16893C18.6151 2.31053 18.2834 2.53286 17.884 2.83754C17.4569 3.16339 17.0637 3.44789 16.7033 3.69203C16.4934 3.83428 16.3013 3.95765 16.1268 4.06312C16.4712 4.14254 16.7342 4.35804 16.9175 5.96903H16.9162C16.9494 6.26948 16.7896 6.57058 16.4995 6.70307L13.7671 7.95111C13.634 8.74407 13.2024 9.41203 12.883 9.90584C12.8765 9.91626 12.869 9.92407 12.8612 9.92961C13.2076 9.72258 14.0416 9.02336 16.0253 8.30462C16.2948 8.18776 16.62 8.24407 16.8342 8.46933C17.8078 9.48755 18.7632 9.97485 19.561 10.3824C20.3973 10.8092 21.091 11.1633 21.5858 11.8889L22.7527 11.7847C22.7947 11.7772 22.8384 11.773 22.8826 11.773C23.2817 11.773 23.6056 12.0966 23.6056 12.4957C23.6056 12.7206 23.5952 12.952 23.5747 13.1874C23.5551 13.4042 23.5262 13.6288 23.4865 13.8596C23.4852 13.8681 23.4839 13.8768 23.4822 13.8853C23.4481 14.0826 23.3768 14.2587 23.2762 14.4149C23.0193 14.8143 22.6024 15.037 22.133 15.1304C21.7521 15.2063 21.3267 15.1962 20.9455 15.1298C20.5682 15.064 20.2124 14.9361 19.9614 14.7746C19.9087 14.7408 19.8478 14.7082 19.7788 14.6773L19.7453 14.8352H19.7446C19.7345 14.8817 19.7199 14.9283 19.7 14.9735C19.5409 15.3384 19.1164 15.5051 18.7512 15.3462L16.6903 14.4439C16.4077 14.3459 16.2046 14.077 16.2046 13.761V13.011C15.4452 13.0598 14.8514 13.1985 14.3388 13.4765C13.6708 13.8381 13.0826 14.4621 12.3915 15.4559C12.3404 15.5383 12.2714 15.6115 12.1864 15.6695C10.7743 16.6389 10.789 18.1965 10.8043 19.8455C10.8075 20.1792 10.8108 20.311 10.8108 20.4119C10.8108 20.4458 10.8489 20.4351 10.9254 20.5845C11.0461 20.8211 11.2278 21.1405 11.4709 21.5408C11.689 21.9002 11.8896 22.1655 12.0692 22.3345C12.1548 22.4152 12.1988 22.4559 12.1998 22.4559C12.6356 22.4559 13.0842 22.395 13.5149 22.3367C13.9732 22.2749 14.4143 22.215 14.8189 22.215C16.2219 22.215 17.231 22.7355 17.231 25.1004C17.231 25.144 17.2508 25.0769 17.2902 25.1603C17.3703 25.3295 17.4914 25.5561 17.6532 25.84C17.8504 26.186 18.0012 26.5248 18.1037 26.8559C18.2124 27.2065 18.2674 27.5444 18.2674 27.8676C18.2674 28.1834 18.2446 28.462 18.2007 28.7035C18.1467 28.9978 18.0562 29.2374 17.9302 29.4216C17.9116 29.449 17.8944 29.4998 17.8781 29.5743C17.8534 29.6892 17.841 29.8373 17.841 30.0186C17.841 30.2201 17.8784 30.4714 17.953 30.7722C18.0344 31.0994 18.16 31.4857 18.3306 31.932C18.5207 32.4297 18.6659 32.9083 18.7642 33.3676C18.8091 33.5779 18.8446 33.7836 18.8693 33.9841H19.4657C19.6707 33.9841 19.8576 33.945 20.0256 33.8666C20.2088 33.7807 20.3833 33.6478 20.548 33.4675C20.728 33.2706 20.868 33.0717 20.9673 32.8712C21.0542 32.6964 21.1076 32.5229 21.1265 32.351C21.1444 32.0909 21.3026 31.8493 21.5578 31.738L21.631 31.7058L21.5298 31.2488C21.4901 31.0691 21.519 30.8744 21.6258 30.7068C21.7736 30.4747 21.9582 30.2543 22.1779 30.047C22.3914 29.8448 22.6372 29.6534 22.9129 29.4727C23.075 29.3666 23.1808 29.2752 23.2342 29.1974C23.2345 29.197 23.2348 29.1974 23.2352 29.198L23.2394 29.2009L22.8686 26.505C22.8335 26.3263 22.865 26.1346 22.9725 25.9702C23.1811 25.6515 23.4468 25.267 23.7697 24.8178C24.0828 24.3829 24.4227 23.9259 24.7876 23.449C25.5893 22.4012 25.7404 22.1694 25.7166 22.1515C25.6671 22.1134 25.547 22.0639 25.421 22.0125C24.9285 21.811 24.3862 21.5884 24.1307 20.8612C24.1167 20.825 24.1056 20.7869 24.0971 20.7479C24.0161 20.3582 24.2664 19.9761 24.6564 19.8953C26.6166 19.4855 27.101 19.0506 27.0001 18.5685C26.9148 18.1597 26.5642 17.619 26.1892 17.0402C25.8155 16.4637 25.4207 15.854 25.1551 15.188C25.0922 15.0572 25.0682 14.9061 25.0948 14.7522C25.1635 14.3593 25.5376 14.0962 25.9305 14.1649L30.0746 14.9045L30.0743 14.9074C30.1762 14.9253 30.2755 14.965 30.3656 15.0288L31.7742 16.0266C31.9529 16.1298 32.0863 16.3085 32.1244 16.5279L32.6514 19.4865L34.4821 16.1975C34.5648 16.0197 34.7188 15.8758 34.9203 15.8124C35.3008 15.6923 35.7067 15.9035 35.8269 16.284L36.4828 18.3563H36.4818L37.0941 20.2215C37.1169 19.8237 37.1582 19.3065 37.2246 18.7892C37.2923 18.2629 37.3871 17.7375 37.5169 17.3345C37.612 17.0389 37.7357 16.788 37.8932 16.6011C37.7855 15.9139 37.6384 15.2375 37.4512 14.5725C37.2253 13.7704 36.9408 12.9882 36.598 12.2271C36.251 11.4602 35.8607 10.7291 35.4268 10.0321C34.9883 9.3287 34.5114 8.66627 33.9942 8.0429C33.4714 7.41596 32.9076 6.82905 32.3047 6.28218C31.7061 5.73986 31.0613 5.23271 30.3705 4.76168C29.6866 4.29293 28.9747 3.87204 28.2371 3.50095ZM23.2436 29.2293L23.24 29.2016L23.2358 29.1987C23.2394 29.2055 23.2469 29.2511 23.2436 29.2293ZM12.6444 9.93612C12.6721 10.0133 12.7307 10.0064 12.8492 9.93742L12.6444 9.93612Z" fill="white"/>
</svg>
