<svg width="120" height="120" viewBox="0 0 120 120" fill="none" xmlns="http://www.w3.org/2000/svg">
<path fill-rule="evenodd" clip-rule="evenodd" d="M80.745 14.185C80.1804 15.069 80.6521 15.598 82.783 16.471C90.6633 19.6995 97.6793 25.2185 103.719 32.9396C105.614 35.3617 106.019 35.7787 106.479 35.7787C107.118 35.7787 107.659 35.2319 107.659 34.5851C107.659 33.1936 100.983 25.6203 96.4989 21.9255C92.9711 19.0187 87.6248 15.7848 84.0117 14.3725C81.8057 13.51 81.198 13.4752 80.745 14.185ZM45.047 32.5605C41.5585 34.3116 37.0298 37.8061 34.728 40.5226C33.4708 42.0063 33.3531 42.4038 33.9801 43.0471C34.2487 43.3231 34.6171 43.5487 34.7987 43.5487C34.98 43.5487 35.9237 42.7193 36.8957 41.7059C40.0383 38.4277 42.5136 36.5455 46.1262 34.6856C48.0947 33.6724 48.4609 33.3571 48.4609 32.6741C48.4609 32.272 47.7498 31.5949 47.3275 31.5949C47.1313 31.5949 46.1052 32.0293 45.047 32.5605ZM74.741 31.7472C74.6237 31.8276 74.4267 32.0904 74.3034 32.3304C73.9236 33.0713 74.3631 33.6868 75.6956 34.2803C78.9815 35.7431 82.7994 38.505 85.7267 41.5372C88.1482 44.0457 89.8636 46.481 91.4575 49.6734C92.5396 51.8403 92.6722 52.0205 93.2286 52.0764C93.9606 52.1503 94.4616 51.6941 94.4592 50.9559C94.4572 50.3101 92.8422 46.9887 91.5894 45.0535C88.1213 39.6976 82.4934 34.7704 76.9004 32.1948C75.57 31.582 75.1186 31.4883 74.741 31.7472ZM26.1401 69.0503C25.9268 69.2693 25.752 69.5264 25.752 69.6218C25.752 70.1395 26.4014 73.5328 26.7378 74.7731C27.526 77.679 28.1471 78.5905 29.161 78.3289C30.061 78.097 30.0939 77.5966 29.355 75.3763C28.9813 74.2529 28.533 72.4372 28.3592 71.3414C28.1254 69.8679 27.9414 69.2583 27.6522 69.0004C27.1388 68.5421 26.6184 68.5592 26.1401 69.0503ZM6.0816 69.2153C5.66196 69.6914 5.67595 70.5369 6.15922 73.9163C7.04973 80.1431 8.60132 85.1219 11.4122 90.7731C13.2805 94.5294 13.881 95.4328 14.5617 95.513C15.2257 95.5914 15.8532 95.0688 15.8532 94.4377C15.8532 94.1898 15.4571 93.2991 14.973 92.4587C11.2363 85.9708 8.98347 79.1011 8.21993 71.8643C8.08153 70.5528 7.85387 69.3385 7.71391 69.1657C7.37038 68.7403 6.47619 68.7677 6.0816 69.2153ZM94.7178 73.7291C94.2949 74.0337 93.4904 76.3524 93.4904 77.2685C93.4904 78.2226 94.673 78.7655 95.3153 78.1062C95.6768 77.7352 96.4018 75.4084 96.4018 74.6188C96.4018 74.2605 96.2439 73.94 95.9704 73.7435C95.4343 73.358 95.2376 73.3558 94.7178 73.7291ZM66.8027 97.4907C64.9544 97.9026 58.1217 97.9442 55.7889 97.5582C54.2009 97.2952 54.0669 97.3003 53.7024 97.6389C53.3092 98.0041 53.1993 98.6511 53.4616 99.0544C53.7478 99.4941 54.4528 99.7141 56.6266 100.043C60.5439 100.635 68.1147 100.107 69.4229 99.1502C70.0262 98.709 70.1423 98.0261 69.6996 97.524C69.3024 97.0737 68.7066 97.0669 66.8027 97.4907Z" fill="#CA0303"/>
<path fill-rule="evenodd" clip-rule="evenodd" d="M107.817 87.9565C107.875 87.9281 107.932 87.8858 107.994 87.8259L107.817 87.9565Z" fill="#CA0303"/>
<path fill-rule="evenodd" clip-rule="evenodd" d="M107.994 87.8259C108.152 87.6717 108.34 87.4008 108.66 86.9493C109.614 85.6017 111.732 82.7218 112.772 80.6269C116.177 73.7735 118.37 65.5522 118.069 57.4089C118.146 55.4361 117.277 53.7849 116.451 53.6849C115.468 53.5662 115.811 54.2729 115.811 56.6785C115.811 63.9994 114.905 70.684 111.973 76.5107C111.033 78.7631 108.493 82.7293 107.242 84.6504C105.771 86.9087 105.731 87.7068 107.078 87.9383C107.449 88.002 107.64 88.0425 107.817 87.9565L107.994 87.8259Z" fill="#CA0303"/>
<path fill-rule="evenodd" clip-rule="evenodd" d="M41.004 13.5143C40.9419 13.504 40.8732 13.5058 40.7913 13.5195L41.004 13.5143Z" fill="#CA0303"/>
<path fill-rule="evenodd" clip-rule="evenodd" d="M40.7913 13.5195C40.5804 13.5547 40.2815 13.6686 39.7781 13.8545C38.2757 14.4096 35.4032 15.7874 33.4186 16.9049C26.9262 20.5608 20.7257 26.152 15.9677 32.6411C14.815 34.2131 14.6383 34.8922 15.2377 35.449C15.9512 36.1117 16.557 35.876 17.5517 34.5485C21.832 28.8357 26.8723 23.9943 32.1136 20.5618C34.1053 19.2572 37.5743 17.4072 39.6296 16.5533C42.0458 15.5494 42.5189 14.9184 41.5792 13.9539C41.321 13.6888 41.192 13.5457 41.004 13.5143L40.7913 13.5195Z" fill="#CA0303"/>
<path fill-rule="evenodd" clip-rule="evenodd" d="M82.9383 112.299C82.9601 112.296 83.2006 112.403 83.4725 112.536C84.0204 112.804 84.294 113.6 84.0061 114.087C83.6785 114.641 79.8855 116.358 76.8291 117.336C68.0167 120.154 59.3459 120.737 50.8477 119.082C44.9115 117.927 35.836 114.658 35.1544 113.431C34.9586 113.078 35.0559 112.574 35.3302 112.225L36.1092 111.822C36.501 111.828 37.1254 112.068 38.683 112.742C43.3727 114.769 45.8727 115.572 50.7933 116.63C53.1102 117.129 54.1667 117.238 58.1166 117.389C63.3603 117.589 65.7035 117.442 69.9738 116.64C73.4163 115.994 78.4999 114.41 81.054 113.186C82.0685 112.7 82.9166 112.301 82.9383 112.299Z" fill="#CA0303"/>
<path fill-rule="evenodd" clip-rule="evenodd" d="M35.7325 111.903C35.85 111.85 35.9635 111.82 36.1092 111.822L35.3302 112.225C35.4389 112.087 35.5754 111.973 35.7325 111.903Z" fill="#CA0303"/>
<path fill-rule="evenodd" clip-rule="evenodd" d="M83.004 51.6682C83.004 52.437 82.5342 52.7479 80.58 53.2729C78.9092 53.7219 78.8342 53.7256 78.4548 53.3746C78.0143 52.967 77.9314 52.0195 78.3088 51.7044C78.4446 51.5909 79.1786 51.3174 79.9396 51.0968C81.5741 50.6231 82.4206 50.5466 82.7823 50.9235L82.8519 51.0104C82.958 51.1694 83.004 51.3878 83.004 51.6682Z" fill="#CA0303"/>
<path fill-rule="evenodd" clip-rule="evenodd" d="M82.8519 51.0104C82.831 50.9791 82.8079 50.9502 82.7823 50.9235L82.8519 51.0104Z" fill="#CA0303"/>
<path fill-rule="evenodd" clip-rule="evenodd" d="M74.7101 39.7561C74.5324 39.8118 74.2587 39.9866 74.039 40.1922C72.7947 41.3554 71.5378 43.0042 71.5378 43.4733C71.5378 44.1198 72.3768 44.718 72.9268 44.4632C73.5091 44.1937 75.8868 41.3462 75.8868 40.9185C75.8868 40.4753 75.2147 39.7375 74.8107 39.7375C74.7971 39.7375 74.7822 39.739 74.766 39.7419L74.7101 39.7561Z" fill="#CA0303"/>
<path fill-rule="evenodd" clip-rule="evenodd" d="M74.766 39.7419C74.7487 39.7451 74.73 39.7498 74.7101 39.7561L74.766 39.7419Z" fill="#CA0303"/>
<path fill-rule="evenodd" clip-rule="evenodd" d="M61.6531 34.0799C62.5681 34.0799 62.6577 34.3965 62.5979 37.4173C62.5477 39.9398 62.5063 40.2189 62.1455 40.4634C61.8249 40.6803 61.6528 40.684 61.2558 40.482C60.7709 40.2353 60.7627 40.1885 60.7083 37.4359C60.6732 35.6585 60.7204 34.6705 60.8544 34.4021L60.8673 34.379C60.8716 34.372 60.8761 34.3657 60.8806 34.3601C61.006 34.2059 61.3534 34.0799 61.6531 34.0799Z" fill="#CA0303"/>
<path fill-rule="evenodd" clip-rule="evenodd" d="M60.8673 34.379C60.8629 34.386 60.8586 34.3937 60.8544 34.4021L60.8673 34.379Z" fill="#CA0303"/>
<path fill-rule="evenodd" clip-rule="evenodd" d="M48.6435 39.7611C49.0646 39.6892 51.7684 42.8478 51.7684 43.4115C51.7684 43.9904 51.2187 44.5871 50.6856 44.5871C50.2726 44.5871 48.5477 42.7955 47.7447 41.5329C47.3979 40.9876 47.5206 40.2449 47.9515 39.9666L47.9856 39.9459C48.0363 39.9171 48.0909 39.8945 48.1491 39.8791C48.3455 39.827 48.568 39.7739 48.6435 39.7611Z" fill="#CA0303"/>
<path fill-rule="evenodd" clip-rule="evenodd" d="M47.9856 39.9459C47.974 39.9525 47.9626 39.9594 47.9515 39.9666L47.9856 39.9459Z" fill="#CA0303"/>
<path fill-rule="evenodd" clip-rule="evenodd" d="M41.0811 50.659C40.9703 50.698 40.7831 50.8447 40.6293 51.0184C40.2049 51.4976 40.2126 52.1216 40.6482 52.5163C40.9876 52.824 43.6765 53.6798 44.3039 53.6798C45.1025 53.6798 45.5494 52.404 44.9614 51.8028C44.7251 51.5614 41.6963 50.6488 41.1306 50.6488C41.1217 50.6488 41.1116 50.6503 41.1006 50.653L41.0811 50.659Z" fill="#CA0303"/>
<path fill-rule="evenodd" clip-rule="evenodd" d="M41.1006 50.653C41.0944 50.6546 41.0879 50.6566 41.0811 50.659L41.1006 50.653Z" fill="#CA0303"/>
<path fill-rule="evenodd" clip-rule="evenodd" d="M54.9451 79.3415H68.1167L68.4618 80.1234C68.7804 80.8453 68.7826 80.9529 68.4914 81.5288C68.2614 81.9832 67.9885 82.188 67.4845 82.2847C66.8702 82.4024 66.7927 82.488 66.7887 83.0515C66.7791 84.4638 65.438 86.2874 63.941 86.9248C60.8049 88.2598 56.8377 86.3636 56.5589 83.3963C56.4685 82.4347 56.4524 82.4141 55.6946 82.2904C55.0748 82.189 54.862 82.0348 54.6184 81.5105C54.3445 80.9212 54.3453 80.7826 54.6259 80.0991L54.9323 79.3524L54.9451 79.3415Z" fill="#CA0303"/>
<path fill-rule="evenodd" clip-rule="evenodd" d="M54.9367 79.3415H54.9451L54.9323 79.3524L54.9367 79.3415Z" fill="#CA0303"/>
<path fill-rule="evenodd" clip-rule="evenodd" d="M64.6504 43.4574C73.0914 45.1137 78.4737 53.2315 76.7586 61.7188C76.1736 64.6136 75.2524 66.4323 72.9651 69.2086C71.3379 71.1833 70.6161 72.7267 70.3204 74.8625C70.12 76.3123 70.0137 76.5974 69.5134 77.0275L68.9373 77.5228H54.3078L53.7484 76.9511C53.3101 76.5032 53.1604 76.1204 53.0564 75.183C52.7802 72.6923 52.01 71.0769 49.9481 68.6627C48.5077 66.9762 47.5301 65.2622 46.8771 63.2776C46.3902 61.7988 46.3447 61.3942 46.3447 58.5291C46.3447 55.6643 46.3902 55.2594 46.8771 53.7809C48.4175 49.1005 52.2232 45.3674 56.7671 43.8803L57.2039 43.7449C57.8509 43.5556 58.5116 43.4118 59.1817 43.3171C60.5593 43.1222 63.3021 43.1926 64.6504 43.4574ZM58.7864 45.6948C53.5395 46.8773 49.7348 50.6724 48.5901 55.8651C48.2857 57.2455 48.3329 60.0575 48.687 61.6164C49.1227 63.5382 50.1331 65.4389 51.7503 67.3805C53.8872 69.9457 54.8148 71.8028 55.0914 74.0692L55.2292 75.1992L60.6646 75.3115V66.3143L58.1687 63.7576C56.213 61.7542 55.6727 61.0834 55.6727 60.6582C55.6727 59.971 55.9463 59.6911 56.6185 59.6911C57.0309 59.6911 57.6502 60.2018 59.3973 61.9825L61.6456 64.2737L63.9906 61.9067C65.2803 60.6049 66.4185 59.5396 66.5203 59.5396C66.9837 59.5396 67.5838 60.2033 67.5838 60.716C67.5838 61.1473 67.0604 61.7966 65.1127 63.7829L62.6414 66.3024V75.3003H68.1217L68.2289 74.2395C68.4583 71.9694 69.4347 70.0171 71.7384 67.2216C78.199 59.3829 74.2557 47.813 64.4021 45.6943C62.7191 45.3324 60.3932 45.3326 58.7864 45.6948Z" fill="#CA0303"/>
<path fill-rule="evenodd" clip-rule="evenodd" d="M57.2039 43.7449C57.0576 43.7877 56.912 43.8329 56.7671 43.8803L57.2039 43.7449Z" fill="#CA0303"/>
<path fill-rule="evenodd" clip-rule="evenodd" d="M92.6444 81.435C92.8108 81.6021 93.1248 82.4968 93.3419 83.4231L93.7373 85.1069L96.2995 85.8861L97.6693 85.0796C98.4227 84.636 99.1808 84.2731 99.3542 84.2731C99.7852 84.2731 102.427 86.9826 102.427 87.4246C102.427 87.6201 102.02 88.4569 101.524 89.2838L100.621 90.7875L101.058 91.7807C101.439 92.6451 101.622 92.8064 102.464 93.0223C102.996 93.1592 103.834 93.3924 104.325 93.5411L105.219 93.8115L105.282 95.9659C105.328 97.517 105.265 98.1875 105.058 98.3604C104.899 98.4926 104.066 98.7429 103.207 98.9161C101.667 99.227 101.638 99.2468 101.15 100.268L100.656 101.304L101.673 102.977C102.856 104.923 102.86 104.905 100.984 106.687C99.5355 108.064 99.4193 108.068 97.3349 106.821L96.0102 106.028L93.8259 106.841L93.3554 108.691C93.0967 109.709 92.8133 110.614 92.7258 110.702C92.4225 111.007 88.5754 110.891 88.3782 110.572C88.2775 110.409 88.0165 109.49 87.7982 108.529L87.4015 106.783L85.1246 106.052L83.628 106.945C82.8048 107.436 82.0009 107.839 81.8415 107.839C81.3825 107.839 78.747 105.093 78.747 104.615C78.747 104.378 79.1474 103.547 79.6373 102.768L80.5273 101.351L80.0972 100.343C79.7201 99.4596 79.5475 99.3038 78.7044 99.0876C78.1749 98.9519 77.3396 98.7192 76.848 98.5705L75.9547 98.3001L75.8977 96.2804C75.8663 95.1693 75.9261 94.1287 76.0299 93.9682C76.1337 93.8071 76.9631 93.502 77.873 93.2894C79.5147 92.9064 79.5309 92.8951 80.0379 91.8223L80.5489 90.7413L79.6479 89.3083C79.1524 88.5199 78.747 87.6504 78.747 87.3756C78.747 86.7907 81.2091 84.2731 81.7812 84.2731C81.9846 84.2731 82.7548 84.6415 83.493 85.092L84.8347 85.9109L87.3476 85.0138L87.7511 83.3606C87.9643 82.4881 88.2388 81.6482 88.3762 81.4419L88.3921 81.4201L88.3928 81.4193C88.73 81.0109 92.2356 81.0242 92.6444 81.435ZM88.326 91.6332C85.4933 93.1201 84.8182 96.9616 86.9685 99.3578C87.9904 100.497 89.2528 101.094 90.6498 101.101C95.0319 101.121 97.1769 95.6013 94.0204 92.4256C92.4693 90.8646 90.3515 90.57 88.326 91.6332Z" fill="#CA0303"/>
<path fill-rule="evenodd" clip-rule="evenodd" d="M88.3921 81.4201C88.3871 81.4263 88.3817 81.4336 88.3762 81.4419L88.3921 81.4201Z" fill="#CA0303"/>
<path fill-rule="evenodd" clip-rule="evenodd" d="M35.9441 81.1396C48.4186 81.1911 48.6507 81.1993 49.1875 81.609C49.4879 81.8382 49.9173 82.2766 50.1417 82.5834C50.5341 83.1203 50.5532 83.4561 50.6484 91.4648L50.7473 99.7884L51.9219 101.911C53.3167 104.431 53.4496 105.296 52.562 106.076L52.0111 106.56H19.6091L19.0584 106.076C18.171 105.296 18.304 104.431 19.6986 101.911L20.873 99.7884L20.9719 91.3639C21.0673 83.2446 21.0857 82.9185 21.4806 82.3689C21.7059 82.0552 22.1956 81.6383 22.5687 81.4429C22.5932 81.43 22.6182 81.4176 22.6444 81.4056L22.7942 81.3473C23.5257 81.1085 25.411 81.0959 35.9441 81.1396ZM32.0908 102.962C31.762 103.298 31.794 103.842 32.1641 104.221C32.4212 104.484 33.0315 104.539 35.6946 104.539C38.6653 104.539 38.9419 104.507 39.2732 104.133C39.5696 103.799 39.593 103.641 39.4071 103.224L39.182 102.719H35.755C33.3536 102.719 32.257 102.792 32.0908 102.962ZM23.346 99.0809H48.2743V83.5166H23.346V99.0809Z" fill="#CA0303"/>
<path fill-rule="evenodd" clip-rule="evenodd" d="M22.7942 81.3473C22.7387 81.3654 22.6899 81.3848 22.6444 81.4056L22.7942 81.3473Z" fill="#CA0303"/>
<path fill-rule="evenodd" clip-rule="evenodd" d="M14.9175 42.4615L15.8047 43.1504L16.4712 42.5933C19.0123 40.4695 22.9524 39.4859 26.1352 40.1802C27.6353 40.5076 28.4171 41.1233 28.492 42.0357L28.5537 42.7849H29.6203C31.3985 42.7849 31.3035 42.1826 31.3035 53.4476C31.3035 63.1982 31.3027 63.2155 30.8727 63.6811L30.442 64.1475H24.3347C19.2091 64.1475 18.2274 64.1932 18.2274 64.4318C18.2274 64.5883 17.953 64.9511 17.6177 65.2379C17.128 65.6573 16.7997 65.7599 15.9466 65.7599C14.5633 65.7599 13.9293 65.498 13.5138 64.7552L13.1752 64.1502L7.10967 64.1487C1.27433 64.1475 1.0243 64.1317 0.522055 63.7298L0 63.3122V53.4739C0 44.1021 0.0178325 43.6132 0.377229 43.162C0.683131 42.7775 0.944454 42.688 1.7635 42.6863C2.71687 42.6845 2.77253 42.6553 2.77313 42.1613C2.77413 41.2895 3.94384 40.5289 6.0168 40.0522C6.31344 39.9839 6.61431 39.9323 6.91851 39.8971L6.97466 39.8908C9.57415 39.6073 12.4113 40.5155 14.9175 42.4615ZM21.1883 42.5604C19.7062 43.0428 18.1965 43.9003 17.4501 44.6834L16.8358 45.3283L16.9395 61.1064L17.9302 60.4759C18.475 60.129 19.5449 59.6129 20.3077 59.3286C21.5178 58.878 22.0099 58.812 24.1711 58.8096L26.6476 58.8068L26.5605 42.6843L25.8117 42.4479C24.6947 42.0953 22.4492 42.1499 21.1883 42.5604ZM6.85665 42.1972C6.3237 42.2849 5.63266 42.4642 5.32121 42.5955L4.75497 42.8341V58.8078L7.08292 58.8073C9.77859 58.8068 11.4179 59.2262 13.3478 60.4106C13.9875 60.8032 14.5225 61.1244 14.5365 61.1244C14.5506 61.1247 14.5379 57.4578 14.5082 52.9759L14.4543 44.8271L13.7157 44.2455C11.5391 42.5312 9.15409 41.8188 6.85665 42.1972Z" fill="#CA0303"/>
<path fill-rule="evenodd" clip-rule="evenodd" d="M6.97466 39.8908C6.95593 39.8928 6.93721 39.8949 6.91851 39.8971L6.97466 39.8908Z" fill="#CA0303"/>
<path fill-rule="evenodd" clip-rule="evenodd" d="M70.2043 2.87881C73.443 5.26719 75.4908 8.6616 76.1643 12.7577C77.6461 21.7713 70.6698 30.2399 61.7627 30.2399C56.2012 30.2399 50.9359 26.8133 48.4881 21.6005C45.6958 15.6547 46.7649 9.25782 51.3411 4.52866C53.6105 2.18318 56.0458 0.818548 59.006 0.232891C59.6843 0.0987407 60.3832 0.0235187 61.092 0.00471311L61.2591 0.00132593C64.3617 -0.042188 67.6385 0.986735 70.2043 2.87881ZM68.135 23.291C67.7965 24.3503 67.0598 25.9698 66.559 26.7544L66.1239 27.4363L66.9921 26.9809C68.6234 26.1249 71.3025 23.9749 71.3025 23.5215C71.3025 23.3427 70.4622 23.0345 69.1958 22.7489L68.3677 22.5621L68.135 23.291ZM53.5994 22.868C52.8963 23.0316 52.2503 23.2339 52.164 23.3176C51.9202 23.5543 54.2487 25.6685 55.6366 26.4706C57.0214 27.2707 57.3502 27.3657 56.8979 26.835C56.4991 26.3669 55.6838 24.6551 55.373 23.6334C55.2369 23.1861 55.0699 22.7641 55.0017 22.6954C54.9338 22.6267 54.3028 22.7044 53.5994 22.868ZM62.6476 27.8237L63.2598 27.4565C64.2295 26.8747 65.1407 25.6323 65.8015 23.9922C66.1373 23.1581 66.3658 22.4277 66.309 22.3689C66.2522 22.31 65.405 22.2149 64.4267 22.1571L62.6476 22.0524V27.8237ZM57.3903 22.2815L56.952 22.4137L57.6329 24.0399C58.125 25.2151 58.5833 25.9339 59.2859 26.6317C59.8205 27.163 60.3532 27.5974 60.4696 27.5974C60.6094 27.5974 60.6808 26.6736 60.6808 24.853V22.1087L59.2545 22.1291C58.4701 22.1402 57.6314 22.2087 57.3903 22.2815ZM69.269 17.4841C69.2013 18.2948 69.0891 19.3404 69.0199 19.808L68.8939 20.6579L69.6556 20.8039C70.0746 20.8842 70.8966 21.1193 71.4823 21.3265C72.0681 21.5336 72.5662 21.6802 72.5891 21.652C73.108 21.0161 74.2531 17.5385 74.2531 16.5988V16.0103H69.3925L69.269 17.4841ZM62.779 16.1458C62.7067 16.2202 62.6476 17.135 62.6476 18.1787V20.0759H63.8987C64.587 20.0759 65.5478 20.1322 66.0338 20.2011L66.9175 20.3264L67.0368 19.5405C67.1023 19.1083 67.2159 18.1372 67.2893 17.3824L67.423 16.0103H65.1666C63.9254 16.0103 62.8509 16.0712 62.779 16.1458ZM56.0979 16.1627C55.9801 16.3819 56.3603 19.9507 56.5172 20.0956C56.5893 20.1623 57.5558 20.1745 58.6646 20.1229L60.6808 20.0285V16.0103H58.4304C57.1924 16.0103 56.1429 16.079 56.0979 16.1627ZM49.0753 16.4384C49.0753 17.7353 50.422 21.5009 50.884 21.4962C51.0253 21.4948 51.702 21.3119 52.3876 21.0897C53.0734 20.8675 53.8539 20.6858 54.1219 20.6858C54.495 20.6858 54.5849 20.602 54.5054 20.33C54.3999 19.969 53.993 16.7453 53.993 16.2697C53.993 16.0731 53.3968 16.0103 51.534 16.0103C49.1655 16.0103 49.0753 16.0259 49.0753 16.4384ZM64.2214 10.1008L62.7462 10.2167L62.633 13.9774H67.3686V13.4776C67.3686 13.2025 67.2693 12.2877 67.1477 11.4447L66.9274 9.91177L66.3119 9.94836C65.9735 9.96849 65.0327 10.0372 64.2214 10.1008ZM56.4635 10.4651C56.3936 10.7948 56.2686 11.72 56.1856 12.5211L56.0351 13.9774H60.6808V10.1151L59.3531 10.1128C58.6228 10.1116 57.7028 10.0555 57.308 9.98802C56.637 9.87336 56.5831 9.90386 56.4635 10.4651ZM50.1621 9.74469C49.6685 10.8613 49.0753 12.9734 49.0753 13.6136C49.0753 13.9439 49.3029 13.9774 51.534 13.9774C52.8864 13.9774 53.993 13.9065 53.993 13.8197C53.993 13.4473 54.4098 10.188 54.4948 9.89613C54.5812 9.59874 53.5394 9.25335 50.9888 8.73356C50.7313 8.68131 50.5152 8.94578 50.1621 9.74469ZM71.8697 8.80065C71.4786 8.94254 70.6495 9.16776 70.0277 9.30111L68.8966 9.54384L69.0192 10.2868C69.0861 10.6954 69.1978 11.6929 69.2672 12.5036L69.3932 13.9774H74.3067L74.1864 13.0714C74.0367 11.9426 73.3464 9.78208 72.9098 9.07488C72.5971 8.5687 72.5464 8.55528 71.8697 8.80065ZM66.8896 3.919C67.191 4.45079 67.6354 5.44484 67.877 6.1283C68.299 7.32155 68.3425 7.36974 68.9735 7.34696C69.3349 7.33375 70.0101 7.21503 70.4736 7.08311L71.3168 6.84283L70.8672 6.28074C70.1675 5.40623 68.7726 4.29142 67.5008 3.5909L66.3411 2.95219L66.8896 3.919ZM55.8133 3.59539C54.5926 4.29102 52.31 6.13072 52.1571 6.54237C52.0311 6.88207 52.7804 7.19675 54.1684 7.38702L55.0986 7.51447L55.3548 6.62959C55.6579 5.58147 56.471 3.85722 56.8979 3.35591C57.3315 2.84711 56.9972 2.92089 55.8133 3.59539ZM62.6476 5.23628V8.08225L63.4836 8.0804C63.9434 8.07961 64.7864 8.02085 65.3566 7.94991C66.5543 7.80129 66.5489 7.87245 65.5443 5.578C65.1261 4.62279 64.6359 3.91169 63.9679 3.29106C63.4347 2.79568 62.9196 2.39033 62.8233 2.39033C62.7267 2.39033 62.6476 3.67101 62.6476 5.23628ZM59.7323 2.99733C59.2864 3.33112 58.6542 4.08571 58.3276 4.67441C57.6778 5.8447 57.0375 7.63745 57.2067 7.81229C57.2655 7.87285 58.0709 7.97124 58.9969 8.03102L60.6808 8.13956V5.26494C60.6808 3.68381 60.6499 2.39033 60.6119 2.39033C60.5741 2.39033 60.178 2.66355 59.7323 2.99733Z" fill="#CA0303"/>
<path fill-rule="evenodd" clip-rule="evenodd" d="M61.2591 0.00132593C61.2034 0.00210809 61.1477 0.00323674 61.092 0.00471311L61.2591 0.00132593Z" fill="#CA0303"/>
<path fill-rule="evenodd" clip-rule="evenodd" d="M91.7494 62.9346C91.9956 60.7087 92.5662 59.4858 94.0863 57.9256C95.3285 56.6507 96.7547 55.8018 98.0038 55.5935C98.4843 55.5137 98.7736 55.3062 98.9818 54.893L99.2666 54.3279H99.3023L102.01 56.6405C104.699 58.938 104.736 58.981 104.371 59.3934C103.776 60.0665 103.544 60.668 103.544 61.5336C103.544 63.487 102.374 66.1488 100.812 67.7525C98.6636 69.9574 95.6635 71.0593 91.8614 71.0396C87.9799 71.0194 87.4131 70.5527 89.1687 68.8214C90.8167 67.1963 91.4332 65.7899 91.7494 62.9346Z" fill="#CA0303"/>
<path fill-rule="evenodd" clip-rule="evenodd" d="M99.2773 54.3066L99.3023 54.3279H99.2666L99.2773 54.3066Z" fill="#CA0303"/>
<path fill-rule="evenodd" clip-rule="evenodd" d="M120 36.5413C120 37.1282 118.355 41.4515 117.176 43.9642C114.833 48.9579 111.98 53.3436 109.138 56.3196C107.289 58.2567 106.789 58.3214 105.024 56.8521C100.442 53.0361 100.291 52.8611 100.575 51.6985C100.849 50.5769 102.939 47.794 105.463 45.1897C108.943 41.5976 112.873 38.63 117.257 36.2829C118.031 35.8685 118.778 35.5282 118.929 35.5201L118.954 35.521C119.26 35.5517 120 36.2667 120 36.5413Z" fill="#CA0303"/>
<path fill-rule="evenodd" clip-rule="evenodd" d="M118.933 35.5199C118.94 35.5199 118.947 35.5203 118.954 35.521L118.929 35.5201C118.93 35.52 118.932 35.5199 118.933 35.5199Z" fill="#CA0303"/>
</svg>
