<svg width="50" height="50" viewBox="0 0 50 50" fill="none" xmlns="http://www.w3.org/2000/svg">
<path fill-rule="evenodd" clip-rule="evenodd" d="M33.6438 5.79221C33.4085 6.15318 33.6051 6.36917 34.4929 6.72565C37.7764 8.04397 40.6997 10.2976 43.2164 13.4503C44.0059 14.4394 44.1747 14.6097 44.3661 14.6097C44.6326 14.6097 44.858 14.3864 44.858 14.1223C44.858 13.554 42.0761 10.4616 40.2079 8.95293C38.738 7.76599 36.5103 6.44548 35.0049 5.86877C34.0857 5.51659 33.8325 5.50236 33.6438 5.79221ZM18.7696 13.2955C17.316 14.0106 15.4291 15.4375 14.47 16.5467C13.9462 17.1526 13.8971 17.3149 14.1584 17.5776C14.2703 17.6903 14.4238 17.7824 14.4994 17.7824C14.575 17.7824 14.9682 17.4437 15.3732 17.0299C16.6826 15.6913 17.714 14.9228 19.2192 14.1633C20.0395 13.7496 20.192 13.6208 20.192 13.3419C20.192 13.1777 19.8957 12.9013 19.7198 12.9013C19.638 12.9013 19.2105 13.0786 18.7696 13.2955ZM31.1421 12.9634C31.0932 12.9963 31.0111 13.1036 30.9597 13.2016C30.8015 13.5041 30.9846 13.7555 31.5398 13.9978C32.909 14.5951 34.4997 15.7229 35.7195 16.961C36.7284 17.9853 37.4432 18.9797 38.1073 20.2833C38.5582 21.1681 38.6134 21.2417 38.8452 21.2645C39.1503 21.2947 39.359 21.1084 39.358 20.807C39.3572 20.5433 38.6842 19.1871 38.1622 18.3968C36.7172 16.2098 34.3723 14.1979 32.0418 13.1462C31.4875 12.896 31.2994 12.8577 31.1421 12.9634ZM10.8917 28.1955C10.8028 28.285 10.73 28.39 10.73 28.4289C10.73 28.6403 11.0006 30.0259 11.1408 30.5323C11.4691 31.7189 11.728 32.0911 12.1504 31.9843C12.5254 31.8896 12.5391 31.6853 12.2313 30.7787C12.0756 30.3199 11.8888 29.5785 11.8163 29.1311C11.7189 28.5294 11.6422 28.2805 11.5218 28.1752C11.3078 27.988 11.091 27.995 10.8917 28.1955ZM2.534 28.2629C2.35915 28.4573 2.36498 28.8026 2.56634 30.1825C2.93739 32.7251 3.58388 34.7581 4.75507 37.0657C5.53354 38.5995 5.78376 38.9684 6.06738 39.0011C6.34404 39.0332 6.60551 38.8198 6.60551 38.5621C6.60551 38.4608 6.44045 38.0971 6.23875 37.754C4.6818 35.1047 3.74311 32.2996 3.42497 29.3446C3.36731 28.8091 3.27244 28.3132 3.21413 28.2426C3.07099 28.069 2.69841 28.0801 2.534 28.2629ZM39.4658 30.106C39.2895 30.2304 38.9543 31.1772 38.9543 31.5513C38.9543 31.9409 39.4471 32.1626 39.7147 31.8934C39.8654 31.7419 40.1674 30.7917 40.1674 30.4694C40.1674 30.323 40.1016 30.1922 39.9876 30.1119C39.7643 29.9545 39.6823 29.9536 39.4658 30.106ZM27.8345 39.8087C27.0643 39.9769 24.2174 39.9939 23.2454 39.8363C22.5837 39.7289 22.5279 39.731 22.376 39.8692C22.2122 40.0183 22.1664 40.2825 22.2756 40.4472C22.3949 40.6268 22.6887 40.7166 23.5944 40.8509C25.2266 41.0928 28.3811 40.8771 28.9262 40.4863C29.1776 40.3062 29.2259 40.0273 29.0415 39.8223C28.876 39.6384 28.6278 39.6356 27.8345 39.8087Z" fill="white"/>
<path fill-rule="evenodd" clip-rule="evenodd" d="M44.9236 35.9156C44.948 35.904 44.9718 35.8867 44.9974 35.8622L44.9236 35.9156Z" fill="white"/>
<path fill-rule="evenodd" clip-rule="evenodd" d="M44.9974 35.8622C45.0634 35.7993 45.1417 35.6886 45.2749 35.5043C45.6726 34.954 46.5548 33.7781 46.9885 32.9226C48.407 30.1242 49.3209 26.7671 49.1954 23.442C49.2273 22.6364 48.8653 21.9621 48.5212 21.9214C48.1116 21.8729 48.2546 22.1614 48.2546 23.1437C48.2546 26.1331 47.877 28.8626 46.6553 31.2419C46.2637 32.1616 45.2055 33.7811 44.6841 34.5656C44.0712 35.4877 44.0546 35.8136 44.616 35.9081C44.7703 35.9342 44.8498 35.9507 44.9236 35.9156L44.9974 35.8622Z" fill="white"/>
<path fill-rule="evenodd" clip-rule="evenodd" d="M17.085 5.51835C17.0591 5.51412 17.0305 5.51487 16.9964 5.52046L17.085 5.51835Z" fill="white"/>
<path fill-rule="evenodd" clip-rule="evenodd" d="M16.9964 5.52046C16.9085 5.53485 16.7839 5.58133 16.5742 5.65725C15.9482 5.8839 14.7513 6.44654 13.9244 6.90284C11.2193 8.39567 8.6357 10.6787 6.6532 13.3285C6.1729 13.9704 6.09931 14.2476 6.34904 14.475C6.64634 14.7456 6.89873 14.6494 7.3132 14.1073C9.09668 11.7746 11.1968 9.79769 13.3807 8.39607C14.2106 7.86338 15.656 7.10793 16.5124 6.75925C17.5191 6.34932 17.7162 6.09167 17.3246 5.69784C17.2171 5.58958 17.1633 5.53116 17.085 5.51835L16.9964 5.52046Z" fill="white"/>
<path fill-rule="evenodd" clip-rule="evenodd" d="M34.5576 45.8552C34.5667 45.8543 34.6669 45.898 34.7802 45.9524C35.0085 46.0618 35.1225 46.3865 35.0025 46.5854C34.866 46.8118 33.2856 47.5128 32.0121 47.912C28.3403 49.0629 24.7275 49.3009 21.1865 48.6252C18.7131 48.1533 14.9317 46.8189 14.6477 46.3177C14.5661 46.1736 14.6066 45.9676 14.7209 45.8252L15.0455 45.6608C15.2088 45.6631 15.4689 45.7611 16.1179 46.0362C18.0719 46.864 19.1136 47.1919 21.1639 47.624C22.1292 47.8276 22.5694 47.8723 24.2152 47.9338C26.4001 48.0156 27.3765 47.9553 29.1557 47.6282C30.5901 47.3643 32.7083 46.7173 33.7725 46.2177C34.1952 46.0193 34.5486 45.8562 34.5576 45.8552Z" fill="white"/>
<path fill-rule="evenodd" clip-rule="evenodd" d="M14.8886 45.6937C14.9375 45.6723 14.9848 45.6599 15.0455 45.6608L14.7209 45.8252C14.7662 45.7688 14.8231 45.7223 14.8886 45.6937Z" fill="white"/>
<path fill-rule="evenodd" clip-rule="evenodd" d="M34.585 21.0978C34.585 21.4118 34.3892 21.5387 33.575 21.7531C32.8788 21.9364 32.8476 21.938 32.6895 21.7946C32.506 21.6282 32.4714 21.2413 32.6287 21.1126C32.6852 21.0663 32.9911 20.9546 33.3082 20.8645C33.9892 20.6711 34.3419 20.6398 34.4926 20.7938L34.5216 20.8292C34.5658 20.8942 34.585 20.9834 34.585 21.0978Z" fill="white"/>
<path fill-rule="evenodd" clip-rule="evenodd" d="M34.5216 20.8292C34.5129 20.8165 34.5033 20.8047 34.4926 20.7938L34.5216 20.8292Z" fill="white"/>
<path fill-rule="evenodd" clip-rule="evenodd" d="M31.1292 16.2337C31.0551 16.2565 30.9411 16.3279 30.8496 16.4118C30.3311 16.8868 29.8074 17.5601 29.8074 17.7516C29.8074 18.0156 30.157 18.2599 30.3862 18.1558C30.6288 18.0458 31.6195 16.883 31.6195 16.7084C31.6195 16.5274 31.3394 16.2261 31.1711 16.2261C31.1655 16.2261 31.1593 16.2268 31.1525 16.228L31.1292 16.2337Z" fill="white"/>
<path fill-rule="evenodd" clip-rule="evenodd" d="M31.1525 16.228C31.1453 16.2292 31.1375 16.2312 31.1292 16.2337L31.1525 16.228Z" fill="white"/>
<path fill-rule="evenodd" clip-rule="evenodd" d="M25.6888 13.916C26.07 13.916 26.1074 14.0452 26.0825 15.2787C26.0616 16.3088 26.0443 16.4227 25.8939 16.5225C25.7604 16.6111 25.6887 16.6126 25.5233 16.5301C25.3212 16.4294 25.3178 16.4103 25.2951 15.2863C25.2805 14.5605 25.3002 14.1571 25.356 14.0475L25.3614 14.0381C25.3632 14.0352 25.365 14.0326 25.3669 14.0304C25.4192 13.9674 25.5639 13.916 25.6888 13.916Z" fill="white"/>
<path fill-rule="evenodd" clip-rule="evenodd" d="M25.3614 14.0381C25.3595 14.0409 25.3578 14.0441 25.356 14.0475L25.3614 14.0381Z" fill="white"/>
<path fill-rule="evenodd" clip-rule="evenodd" d="M20.2681 16.2358C20.4436 16.2064 21.5702 17.4962 21.5702 17.7264C21.5702 17.9628 21.3411 18.2064 21.119 18.2064C20.9469 18.2064 20.2282 17.4748 19.8936 16.9593C19.7491 16.7366 19.8002 16.4333 19.9798 16.3197L19.994 16.3112C20.0151 16.2995 20.0379 16.2903 20.0621 16.2839C20.144 16.2627 20.2367 16.241 20.2681 16.2358Z" fill="white"/>
<path fill-rule="evenodd" clip-rule="evenodd" d="M19.994 16.3112C19.9892 16.3139 19.9844 16.3167 19.9798 16.3197L19.994 16.3112Z" fill="white"/>
<path fill-rule="evenodd" clip-rule="evenodd" d="M17.1171 20.6858C17.0709 20.7017 16.993 20.7616 16.9289 20.8325C16.7521 21.0282 16.7553 21.283 16.9367 21.4442C17.0782 21.5698 18.1985 21.9192 18.46 21.9192C18.7927 21.9192 18.9789 21.3983 18.7339 21.1528C18.6354 21.0542 17.3734 20.6816 17.1378 20.6816C17.134 20.6816 17.1299 20.6822 17.1252 20.6833L17.1171 20.6858Z" fill="white"/>
<path fill-rule="evenodd" clip-rule="evenodd" d="M17.1252 20.6833C17.1227 20.684 17.12 20.6848 17.1171 20.6858L17.1252 20.6833Z" fill="white"/>
<path fill-rule="evenodd" clip-rule="evenodd" d="M22.8938 32.3978H28.3819L28.5258 32.7171C28.6585 33.0118 28.6594 33.0558 28.5381 33.2909C28.4423 33.4765 28.3286 33.5601 28.1185 33.5996C27.8626 33.6477 27.8303 33.6826 27.8286 33.9127C27.8246 34.4894 27.2658 35.234 26.6421 35.4943C25.3354 36.0394 23.6824 35.2651 23.5662 34.0535C23.5285 33.6608 23.5218 33.6524 23.2061 33.6019C22.9478 33.5605 22.8592 33.4975 22.7577 33.2834C22.6436 33.0428 22.6439 32.9862 22.7608 32.7071L22.8884 32.4022L22.8938 32.3978Z" fill="white"/>
<path fill-rule="evenodd" clip-rule="evenodd" d="M22.8903 32.3978H22.8938L22.8884 32.4022L22.8903 32.3978Z" fill="white"/>
<path fill-rule="evenodd" clip-rule="evenodd" d="M26.9377 17.7451C30.4548 18.4214 32.6974 21.7362 31.9828 25.2018C31.739 26.3839 31.3552 27.1265 30.4021 28.2602C29.7241 29.0665 29.4234 29.6968 29.3002 30.5688C29.2167 31.1608 29.1724 31.2773 28.9639 31.4529L28.7239 31.6552H22.6282L22.3952 31.4217C22.2125 31.2388 22.1502 31.0825 22.1068 30.6997C21.9918 29.6827 21.6708 29.0231 20.8117 28.0373C20.2115 27.3486 19.8042 26.6487 19.5321 25.8384C19.3292 25.2345 19.3103 25.0693 19.3103 23.8994C19.3103 22.7296 19.3292 22.5643 19.5321 21.9605C20.1739 20.0494 21.7597 18.525 23.653 17.9178L23.835 17.8625C24.1046 17.7852 24.3798 17.7265 24.6591 17.6878C25.2331 17.6082 26.3759 17.637 26.9377 17.7451ZM24.4944 18.6587C22.3081 19.1416 20.7228 20.6912 20.2459 22.8116C20.119 23.3752 20.1387 24.5235 20.2862 25.16C20.4678 25.9448 20.8888 26.7209 21.5626 27.5137C22.453 28.5612 22.8395 29.3195 22.9548 30.2449L23.0122 30.7063L25.2769 30.7522V27.0783L24.2369 26.0343C23.4221 25.2163 23.197 24.9424 23.197 24.7688C23.197 24.4882 23.311 24.3739 23.591 24.3739C23.7629 24.3739 24.0209 24.5824 24.7489 25.3095L25.6857 26.2451L26.6628 25.2786C27.2001 24.747 27.6744 24.312 27.7168 24.312C27.9099 24.312 28.1599 24.583 28.1599 24.7924C28.1599 24.9685 27.9418 25.2336 27.1303 26.0447L26.1006 27.0735V30.7476H28.384L28.4287 30.3145C28.5243 29.3875 28.9311 28.5903 29.891 27.4488C32.5829 24.248 30.9399 19.5236 26.8342 18.6585C26.1329 18.5107 25.1638 18.5108 24.4944 18.6587Z" fill="white"/>
<path fill-rule="evenodd" clip-rule="evenodd" d="M23.835 17.8625C23.774 17.88 23.7133 17.8984 23.653 17.9178L23.835 17.8625Z" fill="white"/>
<path fill-rule="evenodd" clip-rule="evenodd" d="M38.6018 33.2526C38.6712 33.3209 38.802 33.6862 38.8925 34.0644L39.0572 34.752L40.1248 35.0702L40.6955 34.7408C41.0094 34.5597 41.3253 34.4115 41.3976 34.4115C41.5771 34.4115 42.6777 35.5179 42.6777 35.6984C42.6777 35.7782 42.5084 36.1199 42.3015 36.4575L41.9254 37.0716L42.1077 37.4771C42.2662 37.8301 42.3423 37.896 42.6933 37.9841C42.915 38.04 43.2641 38.1352 43.4688 38.1959L43.8412 38.3064L43.8676 39.1861C43.8867 39.8194 43.8606 40.0932 43.774 40.1638C43.7079 40.2178 43.3609 40.32 43.003 40.3907C42.3614 40.5177 42.349 40.5258 42.1459 40.9427L41.9398 41.3659L42.3637 42.049C42.8568 42.8435 42.8582 42.8363 42.0767 43.564C41.4731 44.126 41.4247 44.1278 40.5562 43.6184L40.0043 43.2947L39.0941 43.6267L38.8981 44.3823C38.7903 44.7977 38.6722 45.1673 38.6357 45.2033C38.5094 45.3277 36.9064 45.2807 36.8242 45.1502C36.7823 45.0837 36.6735 44.7083 36.5826 44.3162L36.4173 43.6032L35.4686 43.3046L34.845 43.6693C34.502 43.8699 34.167 44.0341 34.1006 44.0341C33.9094 44.0341 32.8112 42.9129 32.8112 42.7178C32.8112 42.6209 32.9781 42.2816 33.1822 41.9634L33.553 41.3851L33.3738 40.9734C33.2167 40.6127 33.1448 40.549 32.7935 40.4608C32.5729 40.4054 32.2248 40.3103 32.02 40.2496L31.6478 40.1392L31.624 39.3145C31.611 38.8608 31.6359 38.4359 31.6791 38.3703C31.7224 38.3046 32.0679 38.18 32.4471 38.0932C33.1311 37.9368 33.1379 37.9322 33.3491 37.4941L33.562 37.0527L33.1866 36.4676C32.9802 36.1456 32.8112 35.7906 32.8112 35.6784C32.8112 35.4395 33.8371 34.4115 34.0755 34.4115C34.1603 34.4115 34.4812 34.562 34.7888 34.7459L35.3478 35.0803L36.3948 34.714L36.563 34.0389C36.6518 33.6826 36.7662 33.3397 36.8234 33.2555L36.8301 33.2465L36.8303 33.2462C36.9708 33.0795 38.4315 33.0849 38.6018 33.2526ZM36.8025 37.4169C35.6222 38.024 35.3409 39.5927 36.2369 40.5711C36.6627 41.0361 37.1886 41.2801 37.7707 41.2827C39.5966 41.291 40.4904 39.0372 39.1752 37.7405C38.5289 37.1031 37.6465 36.9827 36.8025 37.4169Z" fill="white"/>
<path fill-rule="evenodd" clip-rule="evenodd" d="M36.8301 33.2465C36.8279 33.2491 36.8257 33.2521 36.8234 33.2555L36.8301 33.2465Z" fill="white"/>
<path fill-rule="evenodd" clip-rule="evenodd" d="M14.9767 33.132C20.1744 33.153 20.2711 33.1564 20.4948 33.3237C20.62 33.4173 20.7989 33.5963 20.8924 33.7216C21.0559 33.9408 21.0638 34.0779 21.1035 37.3481L21.1447 40.7469L21.6341 41.6136C22.2153 42.6426 22.2707 42.9959 21.9008 43.3143L21.6713 43.5119H8.17047L7.94098 43.3143C7.57126 42.9959 7.62665 42.6427 8.20774 41.6136L8.69707 40.7469L8.73829 37.3069C8.77802 33.9915 8.78569 33.8584 8.95023 33.634C9.04413 33.5059 9.24815 33.3356 9.40362 33.2558C9.41384 33.2506 9.42427 33.2455 9.43516 33.2406L9.49759 33.2168C9.80237 33.1193 10.5879 33.1142 14.9767 33.132ZM13.3711 42.0427C13.2342 42.1799 13.2475 42.4023 13.4017 42.5569C13.5089 42.6641 13.7631 42.6866 14.8728 42.6866C16.1106 42.6866 16.2258 42.6737 16.3638 42.5211C16.4873 42.3845 16.4971 42.3199 16.4196 42.1498L16.3258 41.9437H14.8979C13.8973 41.9437 13.4404 41.9734 13.3711 42.0427ZM9.72751 40.458H20.1143V34.1026H9.72751V40.458Z" fill="white"/>
<path fill-rule="evenodd" clip-rule="evenodd" d="M9.49759 33.2168C9.47447 33.2242 9.45411 33.2321 9.43516 33.2406L9.49759 33.2168Z" fill="white"/>
<path fill-rule="evenodd" clip-rule="evenodd" d="M6.21563 17.3384L6.58529 17.6197L6.863 17.3923C7.9218 16.5251 9.56351 16.1234 10.8897 16.4069C11.5147 16.5406 11.8405 16.792 11.8717 17.1646L11.8974 17.4705H12.3418C13.0827 17.4705 13.0431 17.2246 13.0431 21.8245C13.0431 25.8059 13.0428 25.813 12.8636 26.0031L12.6842 26.1936H10.1395C8.00378 26.1936 7.59473 26.2122 7.59473 26.3097C7.59473 26.3736 7.4804 26.5217 7.34072 26.6388C7.13665 26.81 6.99987 26.8519 6.6444 26.8519C6.06803 26.8519 5.80386 26.745 5.63075 26.4417L5.48968 26.1947L2.96236 26.1941C0.530971 26.1936 0.426791 26.1871 0.217523 26.023L0 25.8525V21.8352C0 18.0084 0.00743021 17.8087 0.157179 17.6245C0.284638 17.4675 0.393523 17.4309 0.73479 17.4302C1.13203 17.4295 1.15522 17.4176 1.15547 17.2159C1.15589 16.8599 1.64327 16.5493 2.507 16.3546C2.6306 16.3268 2.75596 16.3057 2.88271 16.2913L2.90611 16.2887C3.98923 16.173 5.17138 16.5438 6.21563 17.3384ZM8.82846 17.3788C8.2109 17.5758 7.58185 17.926 7.27088 18.2457L7.0149 18.509L7.05814 24.9518L7.4709 24.6943C7.69792 24.5527 8.1437 24.3419 8.46152 24.2258C8.96574 24.0419 9.1708 24.0149 10.0713 24.0139L11.1032 24.0128L11.0669 17.4294L10.7549 17.3329C10.2895 17.1889 9.35382 17.2112 8.82846 17.3788ZM2.85694 17.2305C2.63487 17.2663 2.34694 17.3396 2.21717 17.3932L1.98124 17.4906V24.0132L2.95122 24.013C4.07441 24.0128 4.75744 24.184 5.56157 24.6677C5.82813 24.828 6.05102 24.9591 6.05688 24.9591C6.06274 24.9592 6.05746 23.4619 6.04507 21.6318L6.02262 18.3044L5.71487 18.0669C4.80796 17.3669 3.8142 17.076 2.85694 17.2305Z" fill="white"/>
<path fill-rule="evenodd" clip-rule="evenodd" d="M2.90611 16.2887C2.8983 16.2896 2.89051 16.2904 2.88271 16.2913L2.90611 16.2887Z" fill="white"/>
<path fill-rule="evenodd" clip-rule="evenodd" d="M29.2518 1.17552C30.6012 2.15077 31.4545 3.53682 31.7351 5.20941C32.3526 8.88994 29.4457 12.348 25.7344 12.348C23.4172 12.348 21.2233 10.9488 20.2034 8.82022C19.0399 6.39234 19.4854 3.78028 21.3921 1.8492C22.3377 0.891466 23.3524 0.334241 24.5858 0.0950972C24.8685 0.0403191 25.1596 0.00960346 25.455 0.00192452L25.5246 0.000541421C26.8174 -0.0172268 28.1827 0.402917 29.2518 1.17552ZM28.3896 9.51051C28.2485 9.94305 27.9416 10.6043 27.7329 10.9247L27.5516 11.2032L27.9134 11.0172C28.5931 10.6677 29.7094 9.78974 29.7094 9.60463C29.7094 9.53159 29.3593 9.40575 28.8316 9.28912L28.4865 9.21284L28.3896 9.51051ZM22.3331 9.33776C22.0401 9.40458 21.7709 9.48717 21.735 9.52137C21.6334 9.618 22.6036 10.4813 23.1819 10.8088C23.7589 11.1355 23.8959 11.1743 23.7074 10.9576C23.5413 10.7665 23.2016 10.0675 23.0721 9.65028C23.0154 9.46767 22.9458 9.29534 22.9174 9.26729C22.8891 9.23924 22.6262 9.27094 22.3331 9.33776ZM26.1032 11.3613L26.3583 11.2114C26.7623 10.9738 27.1419 10.4665 27.4173 9.79679C27.5572 9.45621 27.6524 9.15797 27.6287 9.13398C27.6051 9.10991 27.2521 9.07107 26.8444 9.04749L26.1032 9.00474V11.3613ZM23.9126 9.09829L23.73 9.15224L24.0137 9.8163C24.2187 10.2962 24.4097 10.5897 24.7025 10.8746C24.9252 11.0915 25.1472 11.269 25.1957 11.269C25.2539 11.269 25.2837 10.8917 25.2837 10.1483V9.02773L24.6894 9.03603C24.3626 9.0406 24.0131 9.06857 23.9126 9.09829ZM28.8621 7.13932C28.8339 7.47036 28.7871 7.89734 28.7583 8.08826L28.7058 8.43532L29.0232 8.49491C29.1978 8.5277 29.5402 8.62373 29.7843 8.70832C30.0284 8.7929 30.2359 8.85276 30.2455 8.84122C30.4617 8.58157 30.9388 7.16157 30.9388 6.77783V6.53752H28.9135L28.8621 7.13932ZM26.1579 6.59289C26.1278 6.62327 26.1032 6.9968 26.1032 7.42296V8.19767H26.6245C26.9112 8.19767 27.3116 8.22065 27.5141 8.24879L27.8823 8.29993L27.932 7.97902C27.9593 7.80255 28.0066 7.40603 28.0372 7.09782L28.0929 6.53752H27.1527C26.6356 6.53752 26.1879 6.56242 26.1579 6.59289ZM23.3741 6.59978C23.325 6.68926 23.4834 8.14653 23.5488 8.20571C23.5789 8.23294 23.9816 8.23792 24.4436 8.21683L25.2837 8.17832V6.53752H24.346C23.8301 6.53752 23.3929 6.56558 23.3741 6.59978ZM20.4481 6.71234C20.4481 7.24192 21.0092 8.77954 21.2017 8.77763C21.2606 8.77705 21.5425 8.70235 21.8282 8.61161C22.1139 8.52089 22.4391 8.44668 22.5508 8.44668C22.7062 8.44668 22.7437 8.41248 22.7106 8.30142C22.6666 8.154 22.4971 6.83767 22.4971 6.64344C22.4971 6.56317 22.2487 6.53752 21.4725 6.53752C20.4856 6.53752 20.4481 6.54391 20.4481 6.71234ZM26.7589 4.1245L26.1442 4.17182L26.0971 5.70745H28.0703V5.50334C28.0703 5.39102 28.0289 5.0175 27.9782 4.67327L27.8864 4.04731L27.63 4.06225C27.4889 4.07047 27.097 4.09852 26.7589 4.1245ZM23.5265 4.27325C23.4973 4.40789 23.4453 4.78565 23.4107 5.11279L23.348 5.70745H25.2837V4.13032L24.7305 4.1294C24.4262 4.1289 24.0428 4.106 23.8783 4.07844C23.5987 4.03162 23.5763 4.04408 23.5265 4.27325ZM20.9009 3.97908C20.6952 4.43504 20.4481 5.29748 20.4481 5.55887C20.4481 5.69376 20.5429 5.70745 21.4725 5.70745C22.036 5.70745 22.4971 5.67848 22.4971 5.64303C22.4971 5.49097 22.6707 4.16012 22.7061 4.04092C22.7422 3.91948 22.3081 3.77845 21.2453 3.5662C21.1381 3.54487 21.048 3.65286 20.9009 3.97908ZM29.9457 3.5936C29.7828 3.65154 29.4373 3.7435 29.1782 3.79796L28.7069 3.89707L28.758 4.20046C28.7859 4.36731 28.8324 4.77461 28.8613 5.10565L28.9138 5.70745H30.9611L30.911 5.33749C30.8486 4.87655 30.561 3.99435 30.3791 3.70557C30.2488 3.49889 30.2277 3.49341 29.9457 3.5936ZM27.8707 1.60026C27.9962 1.81741 28.1814 2.22331 28.2821 2.50239C28.4579 2.98963 28.476 3.00931 28.739 3.00001C28.8896 2.99461 29.1709 2.94614 29.364 2.89227L29.7153 2.79416L29.528 2.56463C29.2365 2.20754 28.6553 1.75233 28.1253 1.46629L27.6421 1.20548L27.8707 1.60026ZM23.2555 1.46812C22.7469 1.75217 21.7958 2.50338 21.7321 2.67147C21.6796 2.81018 21.9918 2.93867 22.5702 3.01637L22.9577 3.06841L23.0645 2.70708C23.1908 2.2791 23.5296 1.57503 23.7074 1.37033C23.8881 1.16257 23.7488 1.1927 23.2555 1.46812ZM26.1032 2.13815V3.30025L26.4515 3.2995C26.6431 3.29917 26.9943 3.27518 27.2319 3.24621C27.731 3.18553 27.7287 3.21458 27.3101 2.27768C27.1359 1.88764 26.9316 1.59727 26.6533 1.34385C26.4311 1.14157 26.2165 0.976051 26.1764 0.976051C26.1361 0.976051 26.1032 1.499 26.1032 2.13815ZM24.8885 1.22391C24.7027 1.36021 24.4392 1.66833 24.3032 1.90872C24.0324 2.38658 23.7656 3.11863 23.8361 3.19002C23.8606 3.21475 24.1962 3.25492 24.582 3.27933L25.2837 3.32366V2.14985C25.2837 1.50422 25.2708 0.976051 25.2549 0.976051C25.2392 0.976051 25.0742 1.08762 24.8885 1.22391Z" fill="white"/>
<path fill-rule="evenodd" clip-rule="evenodd" d="M25.5246 0.000541421C25.5014 0.000860801 25.4782 0.00132167 25.455 0.00192452L25.5246 0.000541421Z" fill="white"/>
<path fill-rule="evenodd" clip-rule="evenodd" d="M38.2289 25.6983C38.3315 24.7894 38.5692 24.29 39.2026 23.6529C39.7202 23.1324 40.3144 22.7857 40.8349 22.7007C41.0351 22.6681 41.1557 22.5834 41.2424 22.4146L41.3611 22.1839H41.376L42.504 23.1282C43.6246 24.0663 43.6399 24.0839 43.488 24.2523C43.24 24.5272 43.1432 24.7728 43.1432 25.1262C43.1432 25.9238 42.656 27.0108 42.0051 27.6656C41.1098 28.5659 39.8598 29.0159 38.2756 29.0078C36.6583 28.9996 36.4221 28.809 37.1536 28.1021C37.8403 27.4385 38.0972 26.8642 38.2289 25.6983Z" fill="white"/>
<path fill-rule="evenodd" clip-rule="evenodd" d="M41.3655 22.1752L41.376 22.1839H41.3611L41.3655 22.1752Z" fill="white"/>
<path fill-rule="evenodd" clip-rule="evenodd" d="M50 14.921C50 15.1607 49.3147 16.926 48.8234 17.9521C47.847 19.9911 46.6581 21.782 45.4742 22.9972C44.7036 23.7881 44.4953 23.8146 43.7602 23.2146C41.8507 21.6564 41.7878 21.5849 41.9062 21.1102C42.0205 20.6522 42.8913 19.5159 43.9427 18.4525C45.393 16.9857 47.0305 15.7739 48.8572 14.8155C49.1797 14.6463 49.4908 14.5074 49.5536 14.504L49.564 14.5044C49.6915 14.5169 50 14.8089 50 14.921Z" fill="white"/>
<path fill-rule="evenodd" clip-rule="evenodd" d="M49.5556 14.504C49.5583 14.504 49.5611 14.5041 49.564 14.5044L49.5536 14.504C49.5543 14.504 49.555 14.504 49.5556 14.504Z" fill="white"/>
</svg>
