<svg width="90" height="60" viewBox="0 0 90 60" fill="none" xmlns="http://www.w3.org/2000/svg">
<g clip-path="url(#clip0_347_2023)">
<path d="M0 53.1414C0 56.9292 3.01764 60 6.74033 60H83.2597C86.9822 60 90 56.9294 90 53.1414V40H0V53.1414Z" fill="#F5F5F5"/>
<path d="M83.2597 0H6.74033C3.01764 0 0 3.07058 0 6.85859V20H90V6.85859C90 3.07058 86.9824 0 83.2597 0Z" fill="#FF4B55"/>
<path d="M90 19.9996H0V39.9986H90V19.9996Z" fill="#41479B"/>
<path d="M30.4138 19.9961H19.2414L18.7759 17.1539H30.8793L30.4138 19.9961Z" fill="#FFE15A"/>
<path d="M19.125 19.2854L19.2414 19.9961H30.4138L30.5302 19.2854H19.125Z" fill="#FFD350"/>
<path d="M25.0608 10.5216H24.5953V12.4163H25.0608V10.5216Z" fill="#FFE15A"/>
<path d="M25.5261 10.9956H24.1295V11.4692H25.5261V10.9956Z" fill="#FFE15A"/>
<path d="M30.4502 18.1012C30.3975 18.1012 30.3441 18.0919 30.2915 18.0729C30.0498 17.9837 29.9248 17.7121 30.0125 17.466L30.9987 14.697C31.0475 14.5596 31.0359 14.4085 30.967 14.2822C30.9303 14.2151 30.8449 14.0971 30.6816 14.0615C29.4794 13.8016 27.1491 13.3645 25.0523 13.3645H24.6027C22.5062 13.3645 20.1758 13.8016 18.9731 14.062C18.8104 14.0971 18.7246 14.2151 18.6882 14.2822C18.6193 14.4085 18.6077 14.5596 18.6567 14.697L19.6427 17.466C19.7304 17.7121 19.6054 17.9837 19.3637 18.0729C19.1222 18.1607 18.8548 18.0344 18.7675 17.7889L17.7813 15.0199C17.6407 14.6247 17.6743 14.1885 17.8738 13.8225C18.0666 13.4687 18.3964 13.218 18.7789 13.1352C20.0176 12.8669 22.4207 12.4166 24.6027 12.4166H25.0523C27.2343 12.4166 29.6374 12.8669 30.8756 13.1344C31.2587 13.2178 31.5884 13.4684 31.7812 13.8224C31.9808 14.1883 32.0143 14.6244 31.8739 15.0197L30.8876 17.7887C30.8194 17.9815 30.6404 18.1012 30.4502 18.1012Z" fill="#FFE15A"/>
<path d="M24.8293 17.6867C24.5723 17.6867 24.3638 17.475 24.3638 17.2131V13.3645C24.3638 13.1026 24.5723 12.8908 24.8293 12.8908C25.0863 12.8908 25.2947 13.1026 25.2947 13.3645V17.2131C25.2949 17.4748 25.0864 17.6867 24.8293 17.6867Z" fill="#FFE15A"/>
<path d="M28.0475 18.1012C28.016 18.1012 27.9842 18.0979 27.9524 18.0915C27.7005 18.0382 27.5388 17.7876 27.5912 17.5313L28.1558 14.7623C28.2291 14.4015 28.1143 14.0855 28.0489 14.03C27.4034 13.7891 26.1084 13.3643 24.9562 13.3643H24.6987C23.5466 13.3643 22.2516 13.7891 21.5821 14.0424C21.5408 14.0855 21.4258 14.4013 21.4991 14.7621L22.0637 17.5311C22.1161 17.7873 21.9544 18.0382 21.7025 18.0913C21.4504 18.1409 21.204 17.9799 21.1523 17.7236L20.5877 14.9546C20.4471 14.2643 20.6629 13.3804 21.2571 13.1548C22.147 12.8182 23.4657 12.417 24.6985 12.417H24.956C26.1889 12.417 27.5078 12.818 28.3971 13.1543C28.9918 13.3806 29.2076 14.2645 29.067 14.9547L28.5024 17.7238C28.4571 17.9477 28.2633 18.1012 28.0475 18.1012Z" fill="#FFE15A"/>
<path d="M18.8923 17.8643H30.7629L30.8793 17.1539H18.7759L18.8923 17.8643Z" fill="#FFD350"/>
<path d="M15.9827 19.9961C15.7256 19.9961 15.5173 20.2082 15.5173 20.4697V37.0122C15.5173 42.2646 19.6856 46.5225 24.8277 46.5225C29.9698 46.5225 34.1381 42.2646 34.1381 37.0122V20.4697C34.1381 20.208 33.9298 19.9961 33.6727 19.9961H15.9827Z" fill="#FF4B55"/>
<path d="M25.7586 35.6276L26.6897 33.2593L24.8277 33.7329L22.9656 33.2593L23.8968 35.6276L21.5692 43.6803C21.5692 43.6803 22.9658 44.6278 24.8279 44.6278C26.6899 44.6278 28.0865 43.6803 28.0865 43.6803L25.7586 35.6276Z" fill="#F5F5F5"/>
<path d="M21.456 37.5365L20.6346 37.7456L22.4415 34.4362L21.6276 33.9765L19.433 37.996H17.3793V38.9434H18.3795L17.0886 39.9943L17.6701 40.7344L18.7668 39.8415L18.3342 41.1617L19.2175 41.4615L20.0677 38.866L21.6819 38.4553L21.456 37.5365Z" fill="#FFE15A"/>
<path d="M21.5689 24.7328L19.4439 23.6515C19.0536 23.453 18.8511 23.0051 18.957 22.5744L19.0772 22.0852C19.1605 21.7457 18.9083 21.417 18.5643 21.417C18.4036 21.417 18.2517 21.4912 18.1515 21.6189C17.0488 23.0214 16.4482 24.7639 16.4482 26.5601V36.5749C16.4482 36.5749 18.3922 36.1793 20.148 33.5803C20.4704 33.1031 21.0013 32.8207 21.567 32.7912L20.6378 35.6275L22.5 36.1013L24.1293 34.1284L21.5689 24.7328Z" fill="#F5F5F5"/>
<path d="M28.1992 37.5365L29.0206 37.7456L27.2137 34.4362L28.0276 33.9765L30.2219 37.996H32.2759V38.9434H31.2755L32.5666 39.9943L31.9852 40.7344L30.8885 39.8415L31.3211 41.1617L30.4376 41.4615L29.5875 38.866L27.9733 38.4553L28.1992 37.5365Z" fill="#FFE15A"/>
<path d="M28.0862 24.7328L30.2112 23.6515C30.6014 23.453 30.8039 23.0051 30.6981 22.5744L30.5779 22.0852C30.4945 21.7457 30.7468 21.417 31.0908 21.417C31.2514 21.417 31.4033 21.4912 31.5035 21.6189C32.6062 23.0214 33.2068 24.7639 33.2068 26.5601V36.5749C33.2068 36.5749 31.2629 36.1793 29.507 33.5803C29.1846 33.1031 28.6539 32.8207 28.0881 32.7912L29.0173 35.6275L27.1552 36.1011L25.5259 34.1282L28.0862 24.7328Z" fill="#F5F5F5"/>
<path d="M22.0345 21.417H19.7068L20.4052 22.3644L22.0345 22.8381L21.1034 23.3117H22.5L22.0345 21.417Z" fill="#FFE15A"/>
<path d="M27.6207 21.417H29.9482L29.25 22.3644L27.6207 22.8381L28.5518 23.3117H27.1552L27.6207 21.417Z" fill="#FFE15A"/>
<path d="M27.9485 21.0456L25.7586 21.4172L24.8275 23.3119L23.8964 21.4172L21.7065 21.0456C21.4555 21.0031 21.2629 21.2683 21.3768 21.5L22.5 23.7855L21.5689 24.7328H28.0862L27.155 23.7855L28.2781 21.5C28.392 21.2682 28.1995 21.0029 27.9485 21.0456Z" fill="#F5F5F5"/>
<path d="M24.8273 18.0718C25.213 18.0718 25.5255 17.7538 25.5255 17.3614C25.5255 16.969 25.213 16.6509 24.8273 16.6509C24.4417 16.6509 24.1291 16.969 24.1291 17.3614C24.1291 17.7538 24.4417 18.0718 24.8273 18.0718Z" fill="#FFBE50"/>
<path d="M24.8186 19.4518C25.1233 19.4518 25.3703 19.275 25.3703 19.057C25.3703 18.839 25.1233 18.6623 24.8186 18.6623C24.5138 18.6623 24.2668 18.839 24.2668 19.057C24.2668 19.275 24.5138 19.4518 24.8186 19.4518Z" fill="#41479B"/>
<path d="M22.0641 19.4518C22.3688 19.4518 22.6158 19.275 22.6158 19.057C22.6158 18.839 22.3688 18.6623 22.0641 18.6623C21.7593 18.6623 21.5123 18.839 21.5123 19.057C21.5123 19.275 21.7593 19.4518 22.0641 19.4518Z" fill="#FF4B55"/>
<path d="M19.3096 19.4518C19.6143 19.4518 19.8613 19.275 19.8613 19.057C19.8613 18.839 19.6143 18.6623 19.3096 18.6623C19.0048 18.6623 18.7578 18.839 18.7578 19.057C18.7578 19.275 19.0048 19.4518 19.3096 19.4518Z" fill="#41479B"/>
<path d="M30.3258 19.4518C30.6305 19.4518 30.8776 19.275 30.8776 19.057C30.8776 18.839 30.6305 18.6623 30.3258 18.6623C30.021 18.6623 29.774 18.839 29.774 19.057C29.774 19.275 30.021 19.4518 30.3258 19.4518Z" fill="#41479B"/>
<path d="M27.5713 19.4518C27.876 19.4518 28.1231 19.275 28.1231 19.057C28.1231 18.839 27.876 18.6623 27.5713 18.6623C27.2666 18.6623 27.0195 18.839 27.0195 19.057C27.0195 19.275 27.2666 19.4518 27.5713 19.4518Z" fill="#FF4B55"/>
<path d="M28.0635 18.0718C28.4491 18.0718 28.7617 17.7538 28.7617 17.3614C28.7617 16.969 28.4491 16.6509 28.0635 16.6509C27.6779 16.6509 27.3653 16.969 27.3653 17.3614C27.3653 17.7538 27.6779 18.0718 28.0635 18.0718Z" fill="#FFBE50"/>
<path d="M30.6158 18.0718C31.0014 18.0718 31.314 17.7538 31.314 17.3614C31.314 16.969 31.0014 16.6509 30.6158 16.6509C30.2302 16.6509 29.9176 16.969 29.9176 17.3614C29.9176 17.7538 30.2302 18.0718 30.6158 18.0718Z" fill="#FFBE50"/>
<path d="M21.5965 18.0718C21.9821 18.0718 22.2947 17.7538 22.2947 17.3614C22.2947 16.969 21.9821 16.6509 21.5965 16.6509C21.2109 16.6509 20.8983 16.969 20.8983 17.3614C20.8983 17.7538 21.2109 18.0718 21.5965 18.0718Z" fill="#FFBE50"/>
<path d="M19.0424 18.0718C19.428 18.0718 19.7406 17.7538 19.7406 17.3614C19.7406 16.969 19.428 16.6509 19.0424 16.6509C18.6568 16.6509 18.3442 16.969 18.3442 17.3614C18.3442 17.7538 18.6568 18.0718 19.0424 18.0718Z" fill="#FFBE50"/>
<path d="M25.6294 13.3645C25.7094 13.2248 25.7586 13.0643 25.7586 12.8908C25.7586 12.3676 25.3419 11.9434 24.8275 11.9434C24.3132 11.9434 23.8964 12.3675 23.8964 12.8908C23.8964 13.0643 23.9454 13.2248 24.0256 13.3645H25.6294Z" fill="#41479B"/>
<path d="M24.8275 34.4434C22.9022 34.4434 21.3362 32.8499 21.3362 30.8908V24.496H28.3189V30.8908C28.3189 32.8499 26.7529 34.4434 24.8275 34.4434Z" fill="#FF4B55"/>
<path d="M28.0862 24.7328V30.8908C28.0862 32.722 26.6272 34.2066 24.8275 34.2066C23.0279 34.2066 21.5689 32.722 21.5689 30.8908V24.7328H28.0862ZM28.5518 24.2591H21.1036V30.8908C21.1036 32.9803 22.7742 34.6802 24.8277 34.6802C26.8812 34.6802 28.5518 32.9803 28.5518 30.8908V24.2591Z" fill="#A54B50"/>
<path d="M24.1293 34.1284C24.3545 34.1785 24.5876 34.2066 24.8275 34.2066C25.0675 34.2066 25.3005 34.1782 25.5257 34.1283V24.7327H24.1291L24.1293 34.1284Z" fill="#F5F5F5"/>
<path d="M28.0863 28.6407H21.5683V30.0618H28.0863V28.6407Z" fill="#F5F5F5"/>
</g>
<defs>
<clipPath id="clip0_347_2023">
<rect width="90" height="60" fill="white"/>
</clipPath>
</defs>
</svg>
