<svg width="90" height="60" viewBox="0 0 90 60" fill="none" xmlns="http://www.w3.org/2000/svg">
<g clip-path="url(#clip0_360_7376)">
<path d="M0 53.1414C0 56.9292 3.01764 60 6.74033 60H83.2597C86.9822 60 90 56.9294 90 53.1414V47.3684H0V53.1414Z" fill="#C8414B"/>
<path d="M83.2597 0H6.74033C3.01764 0 0 3.07058 0 6.85859V12.6316H90V6.85859C90 3.07058 86.9824 0 83.2597 0Z" fill="#C8414B"/>
<path d="M90 12.6322H0V47.3696H90V12.6322Z" fill="#FFD250"/>
<path d="M38.0173 30L39.333 23.9756C39.4543 23.4208 39.0393 22.8946 38.4806 22.8946H37.5539C36.9954 22.8946 36.5806 23.421 36.7015 23.9756L38.0173 30Z" fill="#C8414B"/>
<path d="M39.5692 26.8412H36.4658V40.2615H39.5692V26.8412Z" fill="#F5F5F5"/>
<path d="M40.3441 25.2636H35.6889V26.8427H40.3441V25.2636Z" fill="#FAB446"/>
<path d="M40.3453 30H32.5863V31.579H40.3453V30Z" fill="#C8414B"/>
<path d="M40.3448 36.3157L35.6896 34.7369V33.1579L40.3448 34.7369V36.3157Z" fill="#C8414B"/>
<path d="M14.7414 30L16.0571 23.9756C16.1784 23.4208 15.7634 22.8946 15.2047 22.8946H14.278C13.7196 22.8946 13.3047 23.421 13.4256 23.9756L14.7414 30Z" fill="#C8414B"/>
<path d="M20.1725 25.2631C19.3155 25.2631 18.6207 25.9702 18.6207 26.8421V37.1052C18.6207 39.0236 20.3803 42.6316 26.3793 42.6316C32.3784 42.6316 34.138 39.0238 34.138 37.1052V26.8421C34.138 25.9702 33.4431 25.2631 32.5862 25.2631H20.1725Z" fill="#F5F5F5"/>
<path d="M26.3793 33.1579H18.6207V26.8421C18.6207 25.9702 19.3155 25.2631 20.1725 25.2631H26.3793V33.1579Z" fill="#C8414B"/>
<path d="M26.3793 33.1579H34.138V37.1052C34.138 39.2854 32.4012 41.0526 30.2586 41.0526C28.116 41.0526 26.3793 39.2854 26.3793 37.1052V33.1579Z" fill="#C8414B"/>
<path d="M18.6207 33.1579H26.3793V37.1052C26.3793 39.2854 24.6426 41.0526 22.5 41.0526C20.3574 41.0526 18.6207 39.2854 18.6207 37.1052V33.1579Z" fill="#FAB446"/>
<path d="M24.8275 40.2454V33.1579H23.2757V40.973C23.853 40.8539 24.3745 40.5938 24.8275 40.2454Z" fill="#C8414B"/>
<path d="M21.7241 40.973V33.1579H20.1723V40.2454C20.6255 40.5938 21.147 40.8539 21.7241 40.973Z" fill="#C8414B"/>
<path d="M24.8279 30H20.1727V31.579H24.8279V30Z" fill="#FFB441"/>
<path d="M24.8279 26.8412H20.1727V28.4203H24.8279V26.8412Z" fill="#FAB446"/>
<path d="M24.0513 27.7803H20.9479V30.6407H24.0513V27.7803Z" fill="#FAB446"/>
<path d="M16.2923 26.8412H13.1889V40.2615H16.2923V26.8412Z" fill="#F5F5F5"/>
<path d="M17.0689 39.4745H12.4137V41.0535H17.0689V39.4745Z" fill="#FAB446"/>
<path d="M17.0689 25.2636H12.4137V26.8427H17.0689V25.2636Z" fill="#FAB446"/>
<path d="M17.8453 41.0521H11.6385V42.6311H17.8453V41.0521Z" fill="#5064AA"/>
<path d="M41.121 39.4745H36.4658V41.0535H41.121V39.4745Z" fill="#FAB446"/>
<path d="M41.1205 41.0521H34.9137V42.6311H41.1205V41.0521Z" fill="#5064AA"/>
<path d="M31.0352 23.6843H21.7248V25.2633H31.0352V23.6843Z" fill="#FAB446"/>
<path d="M27.1561 18.9479H25.6043V23.6848H27.1561V18.9479Z" fill="#FFB441"/>
<path d="M24.8275 21.3157C23.544 21.3157 22.5 20.2533 22.5 18.9474C22.5 17.6413 23.5441 16.579 24.8275 16.579C26.1111 16.579 27.155 17.6415 27.155 18.9474C27.1552 20.2533 26.1111 21.3157 24.8275 21.3157ZM24.8275 18.1579C24.3995 18.1579 24.0516 18.5117 24.0516 18.9474C24.0516 19.3829 24.3993 19.7369 24.8275 19.7369C25.2557 19.7369 25.6034 19.3831 25.6034 18.9474C25.6034 18.5118 25.2557 18.1579 24.8275 18.1579Z" fill="#F5F5F5"/>
<path d="M27.9311 21.3157C26.6476 21.3157 25.6036 20.2533 25.6036 18.9474C25.6036 17.6413 26.6477 16.579 27.9311 16.579C29.2147 16.579 30.2586 17.6415 30.2586 18.9474C30.2586 20.2533 29.2145 21.3157 27.9311 21.3157ZM27.9311 18.1579C27.5031 18.1579 27.1552 18.5117 27.1552 18.9474C27.1552 19.3829 27.5029 19.7369 27.9311 19.7369C28.3591 19.7369 28.707 19.3831 28.707 18.9474C28.7068 18.5118 28.3591 18.1579 27.9311 18.1579Z" fill="#F5F5F5"/>
<path d="M31.0345 22.8948C29.751 22.8948 28.707 21.8323 28.707 20.5264C28.707 19.2203 29.7512 18.158 31.0345 18.158C32.3181 18.158 33.362 19.2205 33.362 20.5264C33.362 21.8323 32.3179 22.8948 31.0345 22.8948ZM31.0345 19.7369C30.6065 19.7369 30.2586 20.0907 30.2586 20.5264C30.2586 20.9619 30.6063 21.3159 31.0345 21.3159C31.4626 21.3159 31.8104 20.9621 31.8104 20.5264C31.8104 20.0907 31.4626 19.7369 31.0345 19.7369Z" fill="#F5F5F5"/>
<path d="M21.7241 22.8948C20.4405 22.8948 19.3966 21.8323 19.3966 20.5264C19.3966 19.2203 20.4407 18.158 21.7241 18.158C23.0077 18.158 24.0516 19.2205 24.0516 20.5264C24.0518 21.8323 23.0077 22.8948 21.7241 22.8948ZM21.7241 19.7369C21.2961 19.7369 20.9482 20.0907 20.9482 20.5264C20.9482 20.9619 21.2959 21.3159 21.7241 21.3159C22.1523 21.3159 22.5 20.9619 22.5 20.5262C22.5 20.0907 22.1523 19.7369 21.7241 19.7369Z" fill="#F5F5F5"/>
<path d="M31.0345 36.3157V37.1052C31.0345 37.5406 30.6865 37.8948 30.2586 37.8948C29.8308 37.8948 29.4827 37.5406 29.4827 37.1052V36.3157H31.0345ZM32.5862 34.7369H27.9309V37.1052C27.9309 38.4113 28.9751 39.4736 30.2585 39.4736C31.542 39.4736 32.586 38.4111 32.586 37.1052L32.5862 34.7369Z" fill="#FAB446"/>
<path d="M30.2586 31.579C29.4017 31.579 28.7068 30.872 28.7068 30V28.421C28.7068 27.549 29.4017 26.842 30.2586 26.842C31.1156 26.842 31.8104 27.549 31.8104 28.421V30C31.8104 30.872 31.1156 31.579 30.2586 31.579Z" fill="#FFA0D2"/>
<path d="M26.3795 35.5253C27.6649 35.5253 28.707 34.465 28.707 33.157C28.707 31.849 27.6649 30.7886 26.3795 30.7886C25.094 30.7886 24.052 31.849 24.052 33.157C24.052 34.465 25.094 35.5253 26.3795 35.5253Z" fill="#5064AA"/>
<path d="M27.1561 15.7892H25.6043V20.526H27.1561V15.7892Z" fill="#FAB446"/>
<path d="M21.7241 23.6843L20.1723 22.1052L21.0813 21.1803C22.4863 19.7507 24.3921 18.9474 26.3793 18.9474C28.3665 18.9474 30.2722 19.7507 31.6774 21.1803L32.5863 22.1052L31.0345 23.6843H21.7241Z" fill="#C8414B"/>
<path d="M26.3795 22.8944C26.808 22.8944 27.1554 22.5409 27.1554 22.1049C27.1554 21.6689 26.808 21.3154 26.3795 21.3154C25.951 21.3154 25.6036 21.6689 25.6036 22.1049C25.6036 22.5409 25.951 22.8944 26.3795 22.8944Z" fill="#FFD250"/>
<path d="M23.2752 22.8944C23.7037 22.8944 24.0511 22.5409 24.0511 22.1049C24.0511 21.6689 23.7037 21.3154 23.2752 21.3154C22.8467 21.3154 22.4993 21.6689 22.4993 22.1049C22.4993 22.5409 22.8467 22.8944 23.2752 22.8944Z" fill="#FFD250"/>
<path d="M29.482 22.8944C29.9105 22.8944 30.2579 22.5409 30.2579 22.1049C30.2579 21.6689 29.9105 21.3154 29.482 21.3154C29.0535 21.3154 28.7061 21.6689 28.7061 22.1049C28.7061 22.5409 29.0535 22.8944 29.482 22.8944Z" fill="#FFD250"/>
<path d="M20.1727 30H12.4137V31.579H20.1727V30Z" fill="#C8414B"/>
<path d="M12.4138 36.3157L17.0689 34.7369V33.1579L12.4138 34.7369V36.3157Z" fill="#C8414B"/>
</g>
<defs>
<clipPath id="clip0_360_7376">
<rect width="90" height="60" fill="white"/>
</clipPath>
</defs>
</svg>
